<?xml version="1.0" standalone="no"?>
<!DOCTYPE svg PUBLIC "-//W3C//DTD SVG 1.1//EN" "http://www.w3.org/Graphics/SVG/1.1/DTD/svg11.dtd" >
<svg>
<metadata>
Created by FontForge 20090914 at Tue Feb 22 07:53:06 2022
 By www-data
Copyright 2018 IBM Corp. All rights reserved.
</metadata>
<defs>
<font id="IBMPlexSans-Bold" horiz-adv-x="600" >
  <font-face 
    font-family="IBM Plex Sans"
    font-weight="700"
    font-stretch="normal"
    units-per-em="1000"
    panose-1="2 11 8 3 5 2 3 0 2 3"
    ascent="780"
    descent="-220"
    x-height="525"
    cap-height="698"
    bbox="-307 -275.003 1332 1150"
    underline-thickness="100"
    underline-position="-16"
    unicode-range="U+000D-U+FB02"
  />
<missing-glyph horiz-adv-x="472" 
d="M32 0v780h408v-780h-408zM132 100h208v580h-208v-580z" />
    <glyph glyph-name="fi" unicode="fi" horiz-adv-x="647" 
d="M95 410l-74 -0.000976562v115h74v62c0 50.667 13.333 88.834 40 114.501s65.667 38.5 117 38.5h96v-115h-105v-100h335v-525h-148v410h-187v-410h-148v410zM504 580.999c-30 0 -51.833 6.83301 -65.5 20.5s-20.5 31.167 -20.5 52.5v22c0 21.333 6.83301 38.833 20.5 52.5
s35.5 20.5 65.5 20.5s51.833 -6.83301 65.5 -20.5s20.5 -31.167 20.5 -52.5v-22c0 -21.333 -6.83301 -38.833 -20.5 -52.5s-35.5 -20.5 -65.5 -20.5z" />
    <glyph glyph-name=".notdef" horiz-adv-x="472" 
d="M32 0v780h408v-780h-408zM132 100h208v580h-208v-580z" />
    <glyph glyph-name=".null" horiz-adv-x="0" 
 />
    <glyph glyph-name=".null" horiz-adv-x="0" 
 />
    <glyph glyph-name="uni000D" unicode="&#xd;" horiz-adv-x="236" 
 />
    <glyph glyph-name="space" unicode=" " horiz-adv-x="236" 
 />
    <glyph glyph-name="exclam" unicode="!" horiz-adv-x="320" 
d="M130 220l-47 284v194h156v-194l-46 -284h-63zM160 -12c-32 0 -54.833 7.33301 -68.5 22s-20.5 32.667 -20.5 54v24c0 21.333 6.83301 39.333 20.5 54s36.5 22 68.5 22s54.833 -7.33301 68.5 -22s20.5 -32.667 20.5 -54v-24c0 -21.333 -6.83301 -39.333 -20.5 -54
s-36.5 -22 -68.5 -22z" />
    <glyph glyph-name="quotedbl" unicode="&#x22;" horiz-adv-x="493" 
d="M68 414v326h132v-326h-132zM293 414v326h132v-326h-132z" />
    <glyph glyph-name="numbersign" unicode="#" horiz-adv-x="632" 
d="M366 173h-160l-30 -173h-94l30 173h-101v90h117l29 172h-101v90h117l30 173h93l-30 -173h160l30 173h94l-30 -173h101v-90h-117l-29 -172h101v-90h-117l-30 -173h-93zM381 263l30 172h-160l-30 -172h160z" />
    <glyph glyph-name="dollar" unicode="$" horiz-adv-x="601" 
d="M250 -82l0.000976562 91.9971c-50.667 4.66699 -93.334 16.334 -128.001 35.001s-64.667 42 -90 70l90 82c19.333 -20 40.666 -36.5 63.999 -49.5s49 -21.5 77 -25.5v180c-75.333 15.333 -129.333 39.333 -162 72s-49 73.334 -49 122.001
c0 52.667 16.833 95.667 50.5 129s82.834 53.666 147.501 60.999v94h114v-94c40 -4.66699 75 -14.5 105 -29.5s56 -35.167 78 -60.5l-91 -82c-12 13.333 -26.333 25.333 -43 36s-37 18.667 -61 24v-166c70.667 -16 122.834 -39 156.501 -69s50.5 -70.667 50.5 -122
c0 -49.333 -15.833 -92.666 -47.5 -129.999s-80.834 -61.666 -147.501 -72.999v-96h-114zM190.001 499.997c0 -19.333 5.83301 -34.333 17.5 -45s30.167 -19.667 55.5 -27v148c-25.333 -5.33301 -43.833 -14.5 -55.5 -27.5s-17.5 -29.167 -17.5 -48.5zM421.001 205.997
c0 14.667 -4.33105 28.833 -12.998 42.5s-27.334 24.834 -56.001 33.501v-158c23.333 6.66699 40.666 17.167 51.999 31.5s17 31.166 17 50.499z" />
    <glyph glyph-name="percent" unicode="%" horiz-adv-x="974" 
d="M179 0l484 698h132l-484 -698h-132zM230 314c-58.667 0 -103.334 16.667 -134.001 50s-46 82.666 -46 147.999s15.333 114.666 46 147.999s75.334 50 134.001 50s103.334 -16.667 134.001 -50s46 -82.666 46 -147.999s-15.333 -114.666 -46 -147.999
s-75.334 -50 -134.001 -50zM230 400c17.333 0 30.333 6.83301 39 20.5s13 35.5 13 65.5v52c0 30 -4.33301 51.833 -13 65.5s-21.667 20.5 -39 20.5s-30.333 -6.83301 -39 -20.5s-13 -35.5 -13 -65.5v-52c0 -30 4.33301 -51.833 13 -65.5s21.667 -20.5 39 -20.5zM744 -12
c-58.667 0 -103.334 16.667 -134.001 50s-46 82.666 -46 147.999s15.333 114.666 46 147.999s75.334 50 134.001 50s103.334 -16.667 134.001 -50s46 -82.666 46 -147.999s-15.333 -114.666 -46 -147.999s-75.334 -50 -134.001 -50zM744 74c17.333 0 30.333 6.83301 39 20.5
s13 35.5 13 65.5v52c0 30 -4.33301 51.833 -13 65.5s-21.667 20.5 -39 20.5s-30.333 -6.83301 -39 -20.5s-13 -35.5 -13 -65.5v-52c0 -30 4.33301 -51.833 13 -65.5s21.667 -20.5 39 -20.5z" />
    <glyph glyph-name="ampersand" unicode="&#x26;" horiz-adv-x="721" 
d="M487 57c-22 -18 -48.6689 -34.002 -80.002 -48.002s-71.333 -21 -120 -21c-38.667 0 -72.667 4.83301 -102 14.5s-54 23.334 -74 41.001s-35.167 38.334 -45.5 62.001s-15.5 49.5 -15.5 77.5c0 24 3.5 45.333 10.5 64s16.667 35.667 29 51s27.166 29.333 44.499 42
s36 25 56 37c-10 10.667 -19.667 22.334 -29 35.001s-17.666 26 -24.999 40s-13.166 28.667 -17.499 44s-6.5 31 -6.5 47c0 22.667 4.83301 44.167 14.5 64.5s23.667 38.166 42 53.499s40.333 27.333 66 36s54.5 13 86.5 13c28.667 0 55.167 -3.5 79.5 -10.5
s45.5 -17.333 63.5 -31s32.167 -30.5 42.5 -50.5s15.5 -42.667 15.5 -68c0 -22 -3.66699 -42 -11 -60s-17.333 -34.5 -30 -49.5s-27.5 -28.833 -44.5 -41.5s-34.833 -24.667 -53.5 -36l108 -117c8.66699 21.333 15.334 44 20.001 68s7.66699 47.667 9 71h167v-123h-63
c-11.333 -42.667 -26.333 -79.667 -45 -111l139 -151h-179zM316.998 596.998c-18 0 -33.168 -5 -45.501 -15s-18.5 -24 -18.5 -42v-4c0 -13.333 4.33301 -26.5 13 -39.5s23.334 -31.167 44.001 -54.5c23.333 14 41 28.167 53 42.5s18 31.5 18 51.5v4
c0 18 -6.16699 32 -18.5 42s-27.5 15 -45.5 15zM308.997 110.998c39.333 0 73 9.33301 101 28l-147 159c-22.667 -13.333 -38.667 -27 -48 -41s-14 -30 -14 -48v-10c0 -25.333 9 -46.333 27 -63s45 -25 81 -25z" />
    <glyph glyph-name="quotesingle" unicode="'" horiz-adv-x="268" 
d="M68 414v326h132v-326h-132z" />
    <glyph glyph-name="parenleft" unicode="(" horiz-adv-x="338" 
d="M37 312c0 48 4.50293 94.333 13.5029 139s21.167 86.167 36.5 124.5s33.666 73.166 54.999 104.499s44.666 58 69.999 80h139c-54 -50 -96.5 -110.167 -127.5 -180.5s-46.5 -148.166 -46.5 -233.499v-70c0 -88.667 15.667 -167.667 47 -237s73.666 -128.333 126.999 -177
h-140c-24 20.667 -46.667 46.667 -68 78s-39.833 66.5 -55.5 105.5s-28 81 -37 126s-13.5 91.833 -13.5 140.5z" />
    <glyph glyph-name="parenright" unicode=")" horiz-adv-x="338" 
d="M301 312c0 -48.667 -4.49707 -95.5 -13.4971 -140.5s-21.333 -87 -37 -126s-34.167 -74.167 -55.5 -105.5s-44 -57.333 -68 -78h-140c53.333 48.667 95.666 107.667 126.999 177s47 148.333 47 237v70c0 85.333 -15.5 163.166 -46.5 233.499s-73.5 130.5 -127.5 180.5
h139c25.333 -22 48.666 -48.667 69.999 -80s39.666 -66.166 54.999 -104.499s27.5 -79.833 36.5 -124.5s13.5 -91 13.5 -139z" />
    <glyph glyph-name="asterisk" unicode="*" horiz-adv-x="601" 
d="M192 238l-104 70l127 153l-183 55l39 114l174 -73l-9 190h129l-9 -190l174 73l39 -114l-183 -55l126 -153l-104 -69l-108 162z" />
    <glyph glyph-name="plus" unicode="+" 
d="M236 63v184h-169v118h169v184h128v-184h169v-118h-169v-184h-128z" />
    <glyph glyph-name="comma" unicode="," horiz-adv-x="310" 
d="M155 169c30 0 52.166 -7.5 66.499 -22.5s21.5 -34.167 21.5 -57.5v-20c0 -40.667 -9.83301 -80.667 -29.5 -120s-45.5 -71.333 -77.5 -96h-100c23.333 22 43.333 43.833 60 65.5s29.334 45.834 38.001 72.501c-23.333 4 -40.333 13.167 -51 27.5s-16 31.166 -16 50.499
v20c0 23.333 7.16699 42.5 21.5 57.5s36.5 22.5 66.5 22.5z" />
    <glyph glyph-name="hyphen" unicode="-" horiz-adv-x="403" 
d="M53 233v144h297v-144h-297z" />
    <glyph glyph-name="period" unicode="." horiz-adv-x="310" 
d="M155 -11c-30 0 -52.167 7.5 -66.5 22.5s-21.5 34.167 -21.5 57.5v20c0 23.333 7.16699 42.5 21.5 57.5s36.5 22.5 66.5 22.5s52.167 -7.5 66.5 -22.5s21.5 -34.167 21.5 -57.5v-20c0 -23.333 -7.16699 -42.5 -21.5 -57.5s-36.5 -22.5 -66.5 -22.5z" />
    <glyph glyph-name="slash" unicode="/" horiz-adv-x="460" 
d="M3 -151l298 891h122l-298 -891h-122z" />
    <glyph glyph-name="zero" unicode="0" 
d="M300 -12c-91.333 0 -159 31.667 -203 95s-66 152 -66 266s22 202.667 66 266s111.667 95 203 95s159 -31.667 203 -95s66 -152 66 -266s-22 -202.667 -66 -266s-111.667 -95 -203 -95zM300 115c40 0 67.667 14.667 83 44s23 70.666 23 123.999v132
c0 53.333 -7.66699 94.666 -23 123.999s-43 44 -83 44s-67.667 -14.667 -83 -44s-23 -70.666 -23 -123.999v-132c0 -53.333 7.66699 -94.666 23 -123.999s43 -44 83 -44z" />
    <glyph glyph-name="one" unicode="1" 
d="M94 0v121h188v468h-9l-142 -186l-96 75l167 220h230v-577h148v-121h-486z" />
    <glyph glyph-name="two" unicode="2" 
d="M551 0l-493.997 0.00195312v137l215 184c19.333 16.667 35.666 31.834 48.999 45.501s24.166 27 32.499 40s14.333 25.833 18 38.5s5.5 26.334 5.5 41.001v14c0 13.333 -2.66699 25 -8 35s-12.333 18.333 -21 25s-18.5 11.667 -29.5 15s-22.167 5 -33.5 5
c-16.667 0 -31.167 -2.66699 -43.5 -8s-23 -12.5 -32 -21.5s-16.5 -19.333 -22.5 -31s-10.667 -24.167 -14 -37.5l-131 50c8 24 19 46.833 33 68.5s31.5 40.667 52.5 57s45.833 29.166 74.5 38.499s61 14 97 14c38 0 71.667 -5.33301 101 -16s54.166 -25.334 74.499 -44.001
s35.833 -40.834 46.5 -66.501s16 -53.5 16 -83.5s-5 -57.333 -15 -82s-23.5 -47.834 -40.5 -69.501s-36.833 -42.167 -59.5 -61.5l-71 -59l-130 -102h330v-126z" />
    <glyph glyph-name="three" unicode="3" 
d="M262 422c37.333 0 64.5 7.16895 81.5 21.502s25.5 32.166 25.5 53.499v7c0 25.333 -8.16699 45.666 -24.5 60.999s-39.5 23 -69.5 23c-28 0 -54.333 -7.16699 -79 -21.5s-45.667 -34.833 -63 -61.5l-94 88c13.333 17.333 27.666 33.166 42.999 47.499
s32.666 26.666 51.999 36.999s41 18.333 65 24s51 8.5 81 8.5c37.333 0 71.166 -4.33301 101.499 -13s56.333 -21.167 78 -37.5s38.334 -35.833 50.001 -58.5s17.5 -48 17.5 -76c0 -22 -3.5 -42 -10.5 -60s-16.667 -33.667 -29 -47s-26.5 -24.166 -42.5 -32.499
s-33 -14.166 -51 -17.499v-6c20.667 -4 39.834 -10.5 57.501 -19.5s33 -20.5 46 -34.5s23.167 -30.5 30.5 -49.5s11 -40.5 11 -64.5c0 -31.333 -6.33301 -59.666 -19 -84.999s-30.667 -47 -54 -65s-51.333 -31.833 -84 -41.5s-68.667 -14.5 -108 -14.5
c-35.333 0 -66.666 3.66699 -93.999 11s-51.166 17.166 -71.499 29.499s-38 26.5 -53 42.5s-28.167 33 -39.5 51l111 86c15.333 -28.667 34.166 -52.167 56.499 -70.5s52.5 -27.5 90.5 -27.5c34 0 60.5 8.5 79.5 25.5s28.5 40.167 28.5 69.5v6
c0 28.667 -10.833 50.167 -32.5 64.5s-51.5 21.5 -89.5 21.5h-63v125h65z" />
    <glyph glyph-name="four" unicode="4" 
d="M337 0v134h-307v128l272 436h178v-448h88v-116h-88v-134h-143zM150 250h187v293h-10z" />
    <glyph glyph-name="five" unicode="5" 
d="M522 567l-316.995 -0.000976562l-15 -221h8c6.66699 16.667 14.167 31.834 22.5 45.501s18.166 25.334 29.499 35.001s25 17.167 41 22.5s35 8 57 8c30 0 58 -5 84 -15s48.667 -24.5 68 -43.5s34.666 -42.333 45.999 -70s17 -58.834 17 -93.501
c0 -35.333 -5.83301 -68.166 -17.5 -98.499s-29 -56.5 -52 -78.5s-51.167 -39.167 -84.5 -51.5s-71.333 -18.5 -114 -18.5c-34 0 -64 3.66699 -90 11s-49 17.166 -69 29.499s-37.333 26.5 -52 42.5s-27.334 33 -38.001 51l109 86c15.333 -27.333 33.666 -50.5 54.999 -69.5
s50 -28.5 86 -28.5s63.167 10.333 81.5 31s27.5 48 27.5 82v8c0 32 -9.33301 57.333 -28 76s-44.334 28 -77.001 28c-27.333 0 -49.833 -5.5 -67.5 -16.5s-31.167 -21.833 -40.5 -32.5l-123 17l26 395h427v-131z" />
    <glyph glyph-name="six" unicode="6" 
d="M304 -12c-41.333 0 -78.332 6.49902 -110.999 19.499s-60.167 31.667 -82.5 56s-39.333 53.5 -51 87.5s-17.5 72 -17.5 114c0 48.667 7.5 94.834 22.5 138.501s34.333 84 58 121s50.334 70.167 80.001 99.5s59.5 54 89.5 74h207
c-42.667 -30.667 -81 -59.834 -115 -87.501s-63.5 -55.5 -88.5 -83.5s-45.667 -56.5 -62 -85.5s-27.833 -60.167 -34.5 -93.5l9 -3c6 13.333 13.167 26.333 21.5 39s18.666 23.834 30.999 33.501s26.833 17.5 43.5 23.5s36 9 58 9c28.667 0 55.5 -5.16699 80.5 -15.5
s46.667 -24.833 65 -43.5s32.666 -41.5 42.999 -68.5s15.5 -56.833 15.5 -89.5c0 -36 -6.16699 -69 -18.5 -99s-30 -55.833 -53 -77.5s-50.5 -38.5 -82.5 -50.5s-68 -18 -108 -18zM304.001 104.999c33.333 0 59.333 9.16699 78 27.5s28 44.5 28 78.5v18
c0 34 -9.33301 60.167 -28 78.5s-44.667 27.5 -78 27.5s-59.333 -9.16699 -78 -27.5s-28 -44.5 -28 -78.5v-18c0 -34 9.33301 -60.167 28 -78.5s44.667 -27.5 78 -27.5z" />
    <glyph glyph-name="seven" unicode="7" 
d="M166 0l234 576h-218v-127h-127v249h494v-130l-225 -568h-158z" />
    <glyph glyph-name="eight" unicode="8" 
d="M300 -12c-41.333 0 -78.168 5.16699 -110.501 15.5s-59.5 24.5 -81.5 42.5s-38.833 39.333 -50.5 64s-17.5 51.667 -17.5 81c0 44.667 12.333 81.167 37 109.5s58 48.166 100 59.499v8c-34 12.667 -61.833 32 -83.5 58s-32.5 59.333 -32.5 100
c0 26.667 5.16699 51.334 15.5 74.001s25.666 42.167 45.999 58.5s45.333 29 75 38s63.834 13.5 102.501 13.5s72.834 -4.5 102.501 -13.5s54.667 -21.667 75 -38s35.666 -35.833 45.999 -58.5s15.5 -47.334 15.5 -74.001c0 -40.667 -10.833 -74 -32.5 -100
s-49.5 -45.333 -83.5 -58v-8c42 -11.333 75.333 -31.166 100 -59.499s37 -64.833 37 -109.5c0 -29.333 -5.83301 -56.333 -17.5 -81s-28.5 -46 -50.5 -64s-49.167 -32.167 -81.5 -42.5s-69.166 -15.5 -110.499 -15.5zM299.998 103c33.333 0 58.833 7.83301 76.5 23.5
s26.5 37.5 26.5 65.5v20c0 28 -8.83301 49.833 -26.5 65.5s-43.167 23.5 -76.5 23.5s-58.833 -7.83301 -76.5 -23.5s-26.5 -37.5 -26.5 -65.5v-20c0 -28 8.83301 -49.833 26.5 -65.5s43.167 -23.5 76.5 -23.5zM299.998 411c32 0 56.333 7.5 73 22.5s25 35.5 25 61.5v16
c0 26 -8.33301 46.5 -25 61.5s-41 22.5 -73 22.5s-56.333 -7.5 -73 -22.5s-25 -35.5 -25 -61.5v-16c0 -26 8.33301 -46.5 25 -61.5s41 -22.5 73 -22.5z" />
    <glyph glyph-name="nine" unicode="9" 
d="M558 433c0 -49.333 -7.50098 -95.668 -22.501 -139.001s-34.333 -83.5 -58 -120.5s-50.334 -70.167 -80.001 -99.5s-59.5 -54 -89.5 -74h-207c42.667 30.667 81 59.834 115 87.501s63.5 55.5 88.5 83.5s45.5 56.5 61.5 85.5s27.667 60.167 35 93.5l-9 3
c-6 -13.333 -13.167 -26.333 -21.5 -39s-18.666 -23.834 -30.999 -33.501s-26.833 -17.5 -43.5 -23.5s-36 -9 -58 -9c-28.667 0 -55.5 5.16699 -80.5 15.5s-46.667 24.833 -65 43.5s-32.666 41.334 -42.999 68.001s-15.5 56.667 -15.5 90c0 36 6.16699 69 18.5 99
s30 55.833 53 77.5s50.5 38.5 82.5 50.5s68 18 108 18c41.333 0 78.333 -6.5 111 -19.5s60.167 -31.667 82.5 -56s39.333 -53.5 51 -87.5s17.5 -72 17.5 -114zM295.999 362.998c33.333 0 59.333 9.16699 78 27.5s28 44.5 28 78.5v18c0 34 -9.33301 60.167 -28 78.5
s-44.667 27.5 -78 27.5s-59.333 -9.16699 -78 -27.5s-28 -44.5 -28 -78.5v-18c0 -34 9.33301 -60.167 28 -78.5s44.667 -27.5 78 -27.5z" />
    <glyph glyph-name="colon" unicode=":" horiz-adv-x="330" 
d="M165 -11c-30 0 -52.167 7.5 -66.5 22.5s-21.5 34.167 -21.5 57.5v20c0 23.333 7.16699 42.5 21.5 57.5s36.5 22.5 66.5 22.5s52.167 -7.5 66.5 -22.5s21.5 -34.167 21.5 -57.5v-20c0 -23.333 -7.16699 -42.5 -21.5 -57.5s-36.5 -22.5 -66.5 -22.5zM165 356
c-30 0 -52.167 7.5 -66.5 22.5s-21.5 34.167 -21.5 57.5v20c0 23.333 7.16699 42.5 21.5 57.5s36.5 22.5 66.5 22.5s52.167 -7.5 66.5 -22.5s21.5 -34.167 21.5 -57.5v-20c0 -23.333 -7.16699 -42.5 -21.5 -57.5s-36.5 -22.5 -66.5 -22.5z" />
    <glyph glyph-name="semicolon" unicode=";" horiz-adv-x="330" 
d="M165 169c30 0 52.166 -7.5 66.499 -22.5s21.5 -34.167 21.5 -57.5v-20c0 -40.667 -9.83301 -80.667 -29.5 -120s-45.5 -71.333 -77.5 -96h-100c23.333 22 43.333 43.833 60 65.5s29.334 45.834 38.001 72.501c-23.333 4 -40.333 13.167 -51 27.5s-16 31.166 -16 50.499
v20c0 23.333 7.16699 42.5 21.5 57.5s36.5 22.5 66.5 22.5zM164.999 356c-30 0 -52.167 7.5 -66.5 22.5s-21.5 34.167 -21.5 57.5v20c0 23.333 7.16699 42.5 21.5 57.5s36.5 22.5 66.5 22.5s52.167 -7.5 66.5 -22.5s21.5 -34.167 21.5 -57.5v-20
c0 -23.333 -7.16699 -42.5 -21.5 -57.5s-36.5 -22.5 -66.5 -22.5z" />
    <glyph glyph-name="less" unicode="&#x3c;" 
d="M103 258v87l394 259v-149l-238 -150v-7l238 -150v-150z" />
    <glyph glyph-name="equal" unicode="=" 
d="M67 362v118h466v-118h-466zM67 130v118h466v-118h-466z" />
    <glyph glyph-name="greater" unicode="&#x3e;" 
d="M103 148l238 150v7l-238 150v149l394 -258v-87l-394 -261v150z" />
    <glyph glyph-name="question" unicode="?" horiz-adv-x="500" 
d="M158 233l-0.00195312 153.001c52.667 2 92.167 10.833 118.5 26.5s39.5 42.167 39.5 79.5v14c0 25.333 -7.5 44.666 -22.5 57.999s-34.5 20 -58.5 20c-26 0 -47.5 -8 -64.5 -24s-28.5 -36.333 -34.5 -61l-122 51c6 20 14.667 39.5 26 58.5s26.166 36 44.499 51
s40.333 27.167 66 36.5s55.5 14 89.5 14c34.667 0 66.334 -5 95.001 -15s53.334 -24 74.001 -42s36.5 -39.667 47.5 -65s16.5 -53.333 16.5 -84c0 -28 -4.66699 -53.333 -14 -76s-22 -42.5 -38 -59.5s-34.667 -30.833 -56 -41.5s-43.666 -18 -66.999 -22v-72h-140z
M229.998 -11.999c-32 0 -54.833 7.33301 -68.5 22s-20.5 32.667 -20.5 54v24c0 21.333 6.83301 39.333 20.5 54s36.5 22 68.5 22s54.833 -7.33301 68.5 -22s20.5 -32.667 20.5 -54v-24c0 -21.333 -6.83301 -39.333 -20.5 -54s-36.5 -22 -68.5 -22z" />
    <glyph glyph-name="at" unicode="@" horiz-adv-x="903" 
d="M672 -121l-209.999 0.00292969c-63.333 0 -119.833 10 -169.5 30s-91.667 48.167 -126 84.5s-60.5 79.666 -78.5 129.999s-27 106.166 -27 167.499c0 60.667 9.33301 116.667 28 168s45.334 95.5 80.001 132.5s76.667 65.833 126 86.5s105 31 167 31
c57.333 0 109.666 -8.83301 156.999 -26.5s87.833 -42.667 121.5 -75s59.667 -71.666 78 -117.999s27.5 -97.833 27.5 -154.5c0 -80 -16.833 -142.167 -50.5 -186.5s-79.167 -66.5 -136.5 -66.5c-36 0 -65.333 8.66699 -88 26s-35 40 -37 68h-5
c-6.66699 -28 -19.167 -50.333 -37.5 -67s-44.166 -25 -77.499 -25c-44 0 -80.667 17.5 -110 52.5s-44 86.5 -44 154.5s14.667 119.5 44 154.5s66 52.5 110 52.5c28 0 50.667 -7.5 68 -22.5s29 -33.5 35 -55.5h5v69h111v-269c0 -33.333 14.667 -50 44 -50
c22.667 0 41 12.167 55 36.5s21 62.166 21 113.499v28c0 42.667 -7.16699 81 -21.5 115s-34.333 62.667 -60 86s-56.334 41.333 -92.001 54s-74.834 19 -117.501 19c-47.333 0 -89.833 -7.66699 -127.5 -23s-70 -36.833 -97 -64.5s-47.667 -60.667 -62 -99
s-21.5 -80.166 -21.5 -125.499v-38c0 -45.333 7.16699 -86.833 21.5 -124.5s35 -69.834 62 -96.501s59.333 -47.334 97 -62.001s80.167 -22 127.5 -22h210v-88zM455.001 175.003c17.333 0 32.833 6.50098 46.5 19.501s20.5 27.167 20.5 42.5v116
c0 15.333 -6.83301 28.166 -20.5 38.499s-29.167 15.5 -46.5 15.5c-24 0 -43.167 -7.66699 -57.5 -23s-21.5 -35 -21.5 -59v-68c0 -24 7.16699 -43.667 21.5 -59s33.5 -23 57.5 -23z" />
    <glyph glyph-name="A" unicode="A" horiz-adv-x="685" 
d="M507 0l-50 166h-233l-50 -166h-154l230 698h188l227 -698h-158zM342 560h-5l-77 -265h160z" />
    <glyph glyph-name="B" unicode="B" horiz-adv-x="667" 
d="M77 698l339.003 0.000976562c58 0 103.167 -16.333 135.5 -49s48.5 -76 48.5 -130c0 -26.667 -3.5 -49.334 -10.5 -68.001s-16.333 -34 -28 -46s-25.334 -20.833 -41.001 -26.5s-32.5 -8.83398 -50.5 -9.50098v-6c16.667 0 34.167 -3 52.5 -9s35.166 -15.5 50.499 -28.5
s28.166 -29.833 38.499 -50.5s15.5 -46 15.5 -76c0 -27.333 -4.5 -53.166 -13.5 -77.499s-21.5 -45.5 -37.5 -63.5s-35 -32.167 -57 -42.5s-46 -15.5 -72 -15.5h-370v698zM229.003 128.001h175c20 0 35.833 5.5 47.5 16.5s17.5 26.5 17.5 46.5v34
c0 20 -5.83301 35.5 -17.5 46.5s-27.5 16.5 -47.5 16.5h-175v-160zM229.003 412.001h151c20 0 35.667 5.66699 47 17s17 27 17 47v30c0 20 -5.66699 35.667 -17 47s-27 17 -47 17h-151v-158z" />
    <glyph glyph-name="C" unicode="C" horiz-adv-x="651" 
d="M359 -12c-47.333 0 -89.999 7.5 -127.999 22.5s-70.333 37.333 -97 67s-47.334 66.667 -62.001 111s-22 96.166 -22 155.499c0 58.667 7.33301 110.834 22 156.501s35.334 84 62.001 115s59 54.5 97 70.5s80.667 24 128 24c64.667 0 118 -13.167 160 -39.5
s75.667 -67.833 101 -124.5l-131 -68c-9.33301 29.333 -23.833 52.833 -43.5 70.5s-48.5 26.5 -86.5 26.5c-44.667 0 -80.5 -14.5 -107.5 -43.5s-40.5 -71.167 -40.5 -126.5v-112c0 -55.333 13.5 -97.5 40.5 -126.5s62.833 -43.5 107.5 -43.5
c37.333 0 67.166 10.167 89.499 30.5s38.833 44.833 49.5 73.5l124 -72c-26 -53.333 -60.167 -94.5 -102.5 -123.5s-95.833 -43.5 -160.5 -43.5z" />
    <glyph glyph-name="D" unicode="D" horiz-adv-x="697" 
d="M77 698h263c46 0 88 -7.33301 126 -22s70.333 -36.5 97 -65.5s47.334 -65.333 62.001 -109s22 -94.5 22 -152.5s-7.33301 -108.833 -22 -152.5s-35.334 -80 -62.001 -109s-59 -50.833 -97 -65.5s-80 -22 -126 -22h-263v698zM340 135c45.333 0 81 12.667 107 38
s39 66 39 122v108c0 56 -13 96.667 -39 122s-61.667 38 -107 38h-111v-428h111z" />
    <glyph glyph-name="E" unicode="E" horiz-adv-x="607" 
d="M77 0v698h475v-135h-323v-143h277v-134h-277v-151h323v-135h-475z" />
    <glyph glyph-name="F" unicode="F" horiz-adv-x="585" 
d="M77 0v698h463v-135h-311v-143h265v-134h-265v-286h-152z" />
    <glyph glyph-name="G" unicode="G" horiz-adv-x="719" 
d="M520 111l-5 -0.00195312c-5.33301 -35.333 -23.333 -64.666 -54 -87.999s-72.334 -35 -125.001 -35c-40 0 -77.333 7.66699 -112 23s-65 38 -91 68s-46.333 67.333 -61 112s-22 96.334 -22 155.001s7.66699 110.667 23 156s36.833 83.333 64.5 114s60.834 54 99.501 70
s81.667 24 129 24c62.667 0 116.667 -13.5 162 -40.5s81 -67.5 107 -121.5l-124 -71c-10.667 27.333 -27.334 50.5 -50.001 69.5s-54.334 28.5 -95.001 28.5c-47.333 0 -85 -13.667 -113 -41s-42 -70.333 -42 -129v-112c0 -58 14 -100.833 42 -128.5s65.667 -41.5 113 -41.5
c18.667 0 36.334 2.16699 53.001 6.5s31.334 11 44.001 20s22.5 19.833 29.5 32.5s10.5 27.667 10.5 45v35h-130v127h275v-389h-128v111z" />
    <glyph glyph-name="H" unicode="H" horiz-adv-x="724" 
d="M495 286h-266v-286h-152v698h152v-278h266v278h152v-698h-152v286z" />
    <glyph glyph-name="I" unicode="I" horiz-adv-x="432" 
d="M50 0v121h90v456h-90v121h332v-121h-90v-456h90v-121h-332z" />
    <glyph glyph-name="J" unicode="J" horiz-adv-x="559" 
d="M486 698v-496.001c0 -32 -5.16699 -61.167 -15.5 -87.5s-25.5 -48.666 -45.5 -66.999s-44.167 -32.666 -72.5 -42.999s-60.5 -15.5 -96.5 -15.5c-34.667 0 -65.167 4.66699 -91.5 14s-49 22.666 -68 39.999s-34.5 38 -46.5 62s-20.333 50.667 -25 80l142 28
c11.333 -60.667 40.333 -91 87 -91c22 0 40.833 7 56.5 21s23.5 36 23.5 66v367h-212v122h364z" />
    <glyph glyph-name="K" unicode="K" horiz-adv-x="696" 
d="M320 304l-91 -110v-194h-152v698h152v-332h6l99 135l157 197h172l-235 -287l256 -411h-179z" />
    <glyph glyph-name="L" unicode="L" horiz-adv-x="530" 
d="M77 0v698h152v-563h266v-135h-418z" />
    <glyph glyph-name="M" unicode="M" horiz-adv-x="819" 
d="M599 458h-3l-51 -102l-136 -247l-133 246l-53 110h-3v-465h-143v698h161l171 -327h2l169 327h162v-698h-143v458z" />
    <glyph glyph-name="N" unicode="N" horiz-adv-x="724" 
d="M290 330l-67 140h-3v-470h-143v698h166l191 -330l67 -140h3v470h143v-698h-166z" />
    <glyph glyph-name="O" unicode="O" horiz-adv-x="714" 
d="M357 -12c-46 0 -88 7.66699 -126 23s-70.333 38.166 -97 68.499s-47.334 68 -62.001 113s-22 97.167 -22 156.5s7.33301 111.5 22 156.5s35.334 82.667 62.001 113s59 53.166 97 68.499s80 23 126 23s88 -7.66699 126 -23s70.333 -38.166 97 -68.499
s47.334 -68 62.001 -113s22 -97.167 22 -156.5s-7.33301 -111.5 -22 -156.5s-35.334 -82.667 -62.001 -113s-59 -53.166 -97 -68.499s-80 -23 -126 -23zM357 123c46 0 81.833 15 107.5 45s38.5 73 38.5 129v104c0 56 -12.833 99 -38.5 129s-61.5 45 -107.5 45
s-81.833 -15 -107.5 -45s-38.5 -73 -38.5 -129v-104c0 -56 12.833 -99 38.5 -129s61.5 -45 107.5 -45z" />
    <glyph glyph-name="P" unicode="P" horiz-adv-x="656" 
d="M77 0v697.999h330c32.667 0 62 -5.5 88 -16.5s48.167 -26.167 66.5 -45.5s32.5 -42.833 42.5 -70.5s15 -57.834 15 -90.501c0 -33.333 -5 -63.666 -15 -90.999s-24.167 -50.666 -42.5 -69.999s-40.5 -34.5 -66.5 -45.5s-55.333 -16.5 -88 -16.5h-178v-252h-152z
M229 383.999l160 -0.00195312c22.667 0 40.5 5.83301 53.5 17.5s19.5 28.834 19.5 51.501v44c0 22.667 -6.5 39.834 -19.5 51.501s-30.833 17.5 -53.5 17.5h-160v-182z" />
    <glyph glyph-name="Q" unicode="Q" horiz-adv-x="714" 
d="M542 -184l-94.001 -0.00292969c-54 0 -93.333 12.667 -118 38s-37 62 -37 110v29c-74.667 13.333 -133.834 49.833 -177.501 109.5s-65.5 141.834 -65.5 246.501c0 59.333 7.33301 111.5 22 156.5s35.334 82.667 62.001 113s59 53.166 97 68.499s80 23 126 23
s88 -7.66699 126 -23s70.333 -38.166 97 -68.499s47.334 -68 62.001 -113s22 -97.167 22 -156.5c0 -101.333 -20.5 -181.666 -61.5 -240.999s-96.833 -96.666 -167.5 -111.999v-56h107v-124zM356.999 122.997c46 0 81.833 15 107.5 45s38.5 73 38.5 129v104
c0 56 -12.833 99 -38.5 129s-61.5 45 -107.5 45s-81.833 -15 -107.5 -45s-38.5 -73 -38.5 -129v-104c0 -56 12.833 -99 38.5 -129s61.5 -45 107.5 -45z" />
    <glyph glyph-name="R" unicode="R" horiz-adv-x="674" 
d="M229 0l-152 -0.000976562v698h331c32 0 61 -5.33301 87 -16s48.167 -25.834 66.5 -45.501s32.5 -43.167 42.5 -70.5s15 -57.666 15 -90.999c0 -47.333 -10.5 -88.666 -31.5 -123.999s-52.833 -61 -95.5 -77l137 -274h-169l-122 256h-109v-256zM389 383.999
c22.667 0 40.5 5.83105 53.5 17.498s19.5 28.834 19.5 51.501v44c0 22.667 -6.5 39.834 -19.5 51.501s-30.833 17.5 -53.5 17.5h-160v-182h160z" />
    <glyph glyph-name="S" unicode="S" horiz-adv-x="624" 
d="M303 -12c-61.333 0 -113.328 10.5039 -155.995 31.5039s-79 48.167 -109 81.5l100 101c47.333 -53.333 105.666 -80 174.999 -80c37.333 0 65 7.66699 83 23s27 35.666 27 60.999c0 19.333 -5.33301 35.5 -16 48.5s-32.334 21.833 -65.001 26.5l-69 9
c-74 9.33301 -128.167 31.666 -162.5 66.999s-51.5 82.333 -51.5 141c0 31.333 6 60 18 86s29.167 48.333 51.5 67s49.666 33.167 81.999 43.5s69.166 15.5 110.499 15.5c52.667 0 99 -8.33301 139 -25s74.333 -41 103 -73l-101 -102
c-16.667 19.333 -36.834 35.166 -60.501 47.499s-53.5 18.5 -89.5 18.5c-34 0 -59.333 -6 -76 -18s-25 -28.667 -25 -50c0 -24 6.5 -41.333 19.5 -52s34.167 -18.334 63.5 -23.001l69 -11c72 -11.333 125.333 -33.5 160 -66.5s52 -79.833 52 -140.5
c0 -33.333 -6 -64 -18 -92s-29.5 -52 -52.5 -72s-51.5 -35.5 -85.5 -46.5s-72.667 -16.5 -116 -16.5z" />
    <glyph glyph-name="T" unicode="T" horiz-adv-x="584" 
d="M368 563v-563h-152v563h-189v135h530v-135h-189z" />
    <glyph glyph-name="U" unicode="U" horiz-adv-x="694" 
d="M221 698l0.00195312 -428c0 -49.333 9.66699 -86.166 29 -110.499s51.666 -36.5 96.999 -36.5s77.666 12.167 96.999 36.5s29 61.166 29 110.499v428h148v-412c0 -51.333 -4.83301 -95.833 -14.5 -133.5s-25.5 -68.667 -47.5 -93s-50.333 -42.333 -85 -54
s-77 -17.5 -127 -17.5s-92.333 5.83301 -127 17.5s-63 29.667 -85 54s-37.833 55.333 -47.5 93s-14.5 82.167 -14.5 133.5v412h148z" />
    <glyph glyph-name="V" unicode="V" horiz-adv-x="650" 
d="M239 0l-225 698h154l104 -335l55 -219h3l53 219l104 335h149l-227 -698h-170z" />
    <glyph glyph-name="W" unicode="W" horiz-adv-x="973" 
d="M187 0l-158 698h150l66 -335l37 -194h3l44 194l77 335h166l78 -335l43 -194h3l37 194l67 335h144l-162 -698h-173l-88 378l-34 153h-3l-35 -153l-88 -378h-174z" />
    <glyph glyph-name="X" unicode="X" horiz-adv-x="673" 
d="M657 0h-176l-151 257h-3l-147 -257h-164l224 361l-213 337h177l136 -236h3l138 236h164l-215 -340z" />
    <glyph glyph-name="Y" unicode="Y" horiz-adv-x="649" 
d="M248 0v273l-239 425h170l150 -278h2l144 278h165l-239 -424v-274h-153z" />
    <glyph glyph-name="Z" unicode="Z" horiz-adv-x="607" 
d="M568 0h-529v135l344 428h-327v135h504v-135l-345 -428h353v-135z" />
    <glyph glyph-name="bracketleft" unicode="[" horiz-adv-x="334" 
d="M77 -138v898h207v-104h-70v-690h70v-104h-207z" />
    <glyph glyph-name="backslash" unicode="\" horiz-adv-x="460" 
d="M334 -151l-298 891h122l298 -891h-122z" />
    <glyph glyph-name="bracketright" unicode="]" horiz-adv-x="334" 
d="M257 760v-898h-207v104h70v690h-70v104h207z" />
    <glyph glyph-name="asciicircum" unicode="^" 
d="M440 277l-140 260h-6l-140 -260l-112 57l200 364h120l197 -364z" />
    <glyph glyph-name="underscore" unicode="_" horiz-adv-x="556" 
d="M30 -190v123h496v-123h-496z" />
    <glyph glyph-name="grave" unicode="`" 
d="M150 755l123 61l99 -194l-88 -43z" />
    <glyph glyph-name="a" unicode="a" horiz-adv-x="569" 
d="M457 0c-26.667 0 -48.832 8.33398 -66.499 25.001s-28.834 39 -33.501 67h-6c-8 -34 -25.667 -59.833 -53 -77.5s-61 -26.5 -101 -26.5c-52.667 0 -93 14 -121 42s-42 65 -42 111c0 55.333 20.167 96.5 60.5 123.5s95.166 40.5 164.499 40.5h83v33
c0 25.333 -6.66699 45.5 -20 60.5s-35.666 22.5 -66.999 22.5c-29.333 0 -52.666 -6.33301 -69.999 -19s-31.666 -27 -42.999 -43l-88 78c21.333 31.333 48.166 55.833 80.499 73.5s76.166 26.5 131.499 26.5c74.667 0 130.667 -16.333 168 -49s56 -80.334 56 -143.001v-230
h49v-115h-82zM252.002 91.001c24.667 0 45.833 5.33301 63.5 16s26.5 28 26.5 52v62h-72c-58 0 -87 -19.667 -87 -59v-15c0 -19.333 6 -33.5 18 -42.5s29 -13.5 51 -13.5z" />
    <glyph glyph-name="b" unicode="b" horiz-adv-x="608" 
d="M69 740h147.999v-303h5c7.33301 29.333 24.166 53.333 50.499 72s56.5 28 90.5 28c66.667 0 117 -23.333 151 -70s51 -114.667 51 -204s-17 -157.5 -51 -204.5s-84.333 -70.5 -151 -70.5c-17.333 0 -33.666 2.5 -48.999 7.5s-29.166 12 -41.499 21
s-22.833 19.667 -31.5 32s-15 25.5 -19 39.5h-5v-88h-148v740zM313.999 108c28 0 51.167 9.83301 69.5 29.5s27.5 46.167 27.5 79.5v91c0 33.333 -9.16699 59.833 -27.5 79.5s-41.5 29.5 -69.5 29.5s-51.167 -6.83301 -69.5 -20.5s-27.5 -32.5 -27.5 -56.5v-155
c0 -24 9.16699 -42.833 27.5 -56.5s41.5 -20.5 69.5 -20.5z" />
    <glyph glyph-name="c" unicode="c" horiz-adv-x="517" 
d="M281 -12c-39.333 0 -74.334 6.5 -105.001 19.5s-56.334 31.333 -77.001 55s-36.334 52.5 -47.001 86.5s-16 72 -16 114s5.33301 79.833 16 113.5s26.334 62.5 47.001 86.5s46.334 42.333 77.001 55s65.667 19 105 19c53.333 0 97.833 -12 133.5 -36
s61.167 -57.667 76.5 -101l-120 -52c-4.66699 20 -14.334 37 -29.001 51s-35 21 -61 21c-30 0 -52.667 -9.83301 -68 -29.5s-23 -46.167 -23 -79.5v-98c0 -33.333 7.66699 -59.666 23 -78.999s38 -29 68 -29c26.667 0 47.834 7.16699 63.501 21.5s27.167 33.166 34.5 56.499
l115 -50c-17.333 -50 -44.166 -86.667 -80.499 -110s-80.5 -35 -132.5 -35z" />
    <glyph glyph-name="d" unicode="d" horiz-adv-x="608" 
d="M391 88h-4.99805c-4 -14 -10.333 -27.167 -19 -39.5s-19.167 -23 -31.5 -32s-26.333 -16 -42 -21s-31.834 -7.5 -48.501 -7.5c-66.667 0 -117 23.5 -151 70.5s-51 115.167 -51 204.5s17 157.333 51 204s84.333 70 151 70c34 0 64.167 -9.33301 90.5 -28
s43.166 -42.667 50.499 -72h5v303h148v-740h-148v88zM294.002 108c28 0 51.167 6.83301 69.5 20.5s27.5 32.5 27.5 56.5v155c0 24 -9.16699 42.833 -27.5 56.5s-41.5 20.5 -69.5 20.5s-51.167 -9.83301 -69.5 -29.5s-27.5 -46.167 -27.5 -79.5v-91
c0 -33.333 9.16699 -59.833 27.5 -79.5s41.5 -29.5 69.5 -29.5z" />
    <glyph glyph-name="e" unicode="e" horiz-adv-x="562" 
d="M288 -12c-40 0 -75.667 6.5 -107 19.5s-57.833 31.333 -79.5 55s-38 52.5 -49 86.5s-16.5 72 -16.5 114c0 41.333 5.33301 78.833 16 112.5s26.5 62.5 47.5 86.5s46.833 42.5 77.5 55.5s65.667 19.5 105 19.5c43.333 0 80.5 -7.33301 111.5 -22
s56.333 -34.334 76 -59.001s34 -53.167 43 -85.5s13.5 -66.166 13.5 -101.499v-44h-337v-8c0 -34.667 9.33301 -62.167 28 -82.5s48 -30.5 88 -30.5c30.667 0 55.667 6.16699 75 18.5s37.333 27.166 54 44.499l74 -92c-23.333 -27.333 -53.833 -48.666 -91.5 -63.999
s-80.5 -23 -128.5 -23zM285 428c-30 0 -53.5 -9.83203 -70.5 -29.499s-25.5 -45.834 -25.5 -78.501v-8h184v9c0 32 -7.16699 57.833 -21.5 77.5s-36.5 29.5 -66.5 29.5z" />
    <glyph glyph-name="f" unicode="f" horiz-adv-x="361" 
d="M95 410l-74 -0.000976562v115h74v62c0 50.667 13.333 88.834 40 114.501s65.667 38.5 117 38.5h96v-115h-105v-100h105v-115h-105v-410h-148v410z" />
    <glyph glyph-name="g" unicode="g" horiz-adv-x="552" 
d="M555 -38c0 -28 -4.83594 -52.666 -14.5029 -73.999s-25.5 -39.5 -47.5 -54.5s-51.167 -26.333 -87.5 -34s-81.166 -11.5 -134.499 -11.5c-45.333 0 -83.833 2.83301 -115.5 8.5s-57.334 13.667 -77.001 24s-34 23 -43 38s-13.5 32.167 -13.5 51.5
c0 29.333 8.66699 52.333 26 69s41.333 27 72 31v11c-25.333 4.66699 -44.333 15.5 -57 32.5s-19 36.833 -19 59.5c0 14 2.83301 26.167 8.5 36.5s13 19.333 22 27s19.5 13.834 31.5 18.501s24 8.33398 36 11.001v4c-32 14.667 -55.667 34.834 -71 60.501s-23 55.5 -23 89.5
c0 53.333 18.5 96.166 55.5 128.499s93.5 48.5 169.5 48.5c34.667 0 64.334 -3.33301 89.001 -10v20c0 28 6.83301 48.167 20.5 60.5s33.167 18.5 58.5 18.5h83v-110h-116v-6c30.667 -14.667 53.334 -34.834 68.001 -60.501s22 -55.5 22 -89.5
c0 -52.667 -18.5 -94.834 -55.5 -126.501s-93.5 -47.5 -169.5 -47.5c-34 0 -65 3.66699 -93 11c-15.333 -10 -23 -24 -23 -42c0 -12.667 4.83301 -22.5 14.5 -29.5s25.834 -10.5 48.501 -10.5h152c64 0 110.5 -13.333 139.5 -40s43.5 -64.334 43.5 -113.001z
M415.997 -57.999c0 15.333 -6 27 -18 35s-33 12 -63 12h-180c-6.66699 -6.66699 -11.5 -14.167 -14.5 -22.5s-4.5 -16.5 -4.5 -24.5c0 -19.333 8.33301 -33.5 25 -42.5s45 -13.5 85 -13.5h60c40 0 68.333 4.5 85 13.5s25 23.167 25 42.5zM272.997 283.001
c29.333 0 51.166 6.16699 65.499 18.5s21.5 30.166 21.5 53.499v12c0 23.333 -7.16699 41.166 -21.5 53.499s-36.166 18.5 -65.499 18.5s-51.166 -6.16699 -65.499 -18.5s-21.5 -30.166 -21.5 -53.499v-12c0 -23.333 7.16699 -41.166 21.5 -53.499
s36.166 -18.5 65.499 -18.5z" />
    <glyph glyph-name="h" unicode="h" horiz-adv-x="596" 
d="M69 740l148.002 0.00195312v-304h6c9.33301 27.333 25.666 51 48.999 71s55.666 30 96.999 30c54 0 94.833 -18 122.5 -54s41.5 -87.333 41.5 -154v-329h-148v317c0 34 -5.33301 59.167 -16 75.5s-29.667 24.5 -57 24.5c-12 0 -23.667 -1.5 -35 -4.5
s-21.5 -7.83301 -30.5 -14.5s-16.167 -14.834 -21.5 -24.501s-8 -20.834 -8 -33.501v-340h-148v740z" />
    <glyph glyph-name="i" unicode="i" horiz-adv-x="286" 
d="M143 581c-30 0 -51.833 6.83301 -65.5 20.5s-20.5 31.167 -20.5 52.5v22c0 21.333 6.83301 38.833 20.5 52.5s35.5 20.5 65.5 20.5s51.833 -6.83301 65.5 -20.5s20.5 -31.167 20.5 -52.5v-22c0 -21.333 -6.83301 -38.833 -20.5 -52.5s-35.5 -20.5 -65.5 -20.5zM69 525
h148v-525h-148v525z" />
    <glyph glyph-name="j" unicode="j" horiz-adv-x="286" 
d="M69 525l148 0.000976562v-581c0 -46.667 -11.667 -82.334 -35 -107.001s-61 -37 -113 -37h-78v115h78v610zM143 581.001c-30 0 -51.833 6.83301 -65.5 20.5s-20.5 31.167 -20.5 52.5v22c0 21.333 6.83301 38.833 20.5 52.5s35.5 20.5 65.5 20.5
s51.833 -6.83301 65.5 -20.5s20.5 -31.167 20.5 -52.5v-22c0 -21.333 -6.83301 -38.833 -20.5 -52.5s-35.5 -20.5 -65.5 -20.5z" />
    <glyph glyph-name="k" unicode="k" horiz-adv-x="577" 
d="M69 740h148v-437h6l65 97l105 125h164l-175 -201l195 -324h-176l-118 222l-66 -74v-148h-148v740z" />
    <glyph glyph-name="l" unicode="l" horiz-adv-x="303" 
d="M216 0c-50.667 0 -87.833 12.332 -111.5 36.999s-35.5 60.334 -35.5 107.001v596h148v-625h66v-115h-67z" />
    <glyph glyph-name="m" unicode="m" horiz-adv-x="894" 
d="M69 0l-0.000976562 525.002h148v-89h6c9.33301 28 25.333 51.833 48 71.5s53.667 29.5 93 29.5c36 0 66.667 -9 92 -27s43.666 -44.333 54.999 -79h3c4.66699 14.667 11.834 28.5 21.501 41.5s21.5 24.167 35.5 33.5s29.667 16.833 47 22.5s36 8.5 56 8.5
c50.667 0 89.5 -18 116.5 -54s40.5 -87.333 40.5 -154v-329h-148v317c0 66.667 -24 100 -72 100c-22 0 -42 -6.33301 -60 -19s-27 -32 -27 -58v-340h-148v317c0 66.667 -24 100 -72 100c-10.667 0 -21.167 -1.5 -31.5 -4.5s-19.666 -7.83301 -27.999 -14.5
s-15 -14.834 -20 -24.501s-7.5 -20.834 -7.5 -33.501v-340h-148z" />
    <glyph glyph-name="n" unicode="n" horiz-adv-x="596" 
d="M69 0l0.00195312 525.002h148v-89h6c9.33301 27.333 25.666 51 48.999 71s55.666 30 96.999 30c54 0 94.833 -18 122.5 -54s41.5 -87.333 41.5 -154v-329h-148v317c0 34 -5.33301 59.167 -16 75.5s-29.667 24.5 -57 24.5c-12 0 -23.667 -1.5 -35 -4.5
s-21.5 -7.83301 -30.5 -14.5s-16.167 -14.834 -21.5 -24.501s-8 -20.834 -8 -33.501v-340h-148z" />
    <glyph glyph-name="o" unicode="o" horiz-adv-x="564" 
d="M282 -12c-38.667 0 -73.167 6.33301 -103.5 19s-56 31 -77 55s-37.167 53 -48.5 87s-17 72 -17 114s5.66699 80 17 114s27.5 62.833 48.5 86.5s46.667 41.834 77 54.501s64.833 19 103.5 19s73.167 -6.33301 103.5 -19s56 -30.834 77 -54.501s37.167 -52.5 48.5 -86.5
s17 -72 17 -114s-5.66699 -80 -17 -114s-27.5 -63 -48.5 -87s-46.667 -42.333 -77 -55s-64.833 -19 -103.5 -19zM282 105c29.333 0 52 9 68 27s24 43.667 24 77v107c0 33.333 -8 59 -24 77s-38.667 27 -68 27s-52 -9 -68 -27s-24 -43.667 -24 -77v-107
c0 -33.333 8 -59 24 -77s38.667 -27 68 -27z" />
    <glyph glyph-name="p" unicode="p" horiz-adv-x="608" 
d="M69 525h147.999v-88h5c7.33301 29.333 24.166 53.333 50.499 72s56.5 28 90.5 28c66.667 0 117 -23.333 151 -70s51 -114.667 51 -204s-17 -157.5 -51 -204.5s-84.333 -70.5 -151 -70.5c-17.333 0 -33.666 2.5 -48.999 7.5s-29.166 12 -41.499 21
s-22.833 19.667 -31.5 32s-15 25.5 -19 39.5h-5v-288h-148v725zM313.999 108c28 0 51.167 9.83301 69.5 29.5s27.5 46.167 27.5 79.5v91c0 33.333 -9.16699 59.833 -27.5 79.5s-41.5 29.5 -69.5 29.5s-51.167 -6.83301 -69.5 -20.5s-27.5 -32.5 -27.5 -56.5v-155
c0 -24 9.16699 -42.833 27.5 -56.5s41.5 -20.5 69.5 -20.5z" />
    <glyph glyph-name="q" unicode="q" horiz-adv-x="608" 
d="M391 88h-4.99805c-4 -14 -10.333 -27.167 -19 -39.5s-19.167 -23 -31.5 -32s-26.333 -16 -42 -21s-31.834 -7.5 -48.501 -7.5c-66.667 0 -117 23.5 -151 70.5s-51 115.167 -51 204.5s17 157.333 51 204s84.333 70 151 70c34 0 64.167 -9.33301 90.5 -28
s43.166 -42.667 50.499 -72h5v88h148v-725h-148v288zM294.002 108c28 0 51.167 6.83301 69.5 20.5s27.5 32.5 27.5 56.5v155c0 24 -9.16699 42.833 -27.5 56.5s-41.5 20.5 -69.5 20.5s-51.167 -9.83301 -69.5 -29.5s-27.5 -46.167 -27.5 -79.5v-91
c0 -33.333 9.16699 -59.833 27.5 -79.5s41.5 -29.5 69.5 -29.5z" />
    <glyph glyph-name="r" unicode="r" horiz-adv-x="404" 
d="M69 0l-0.000976562 524.998h148v-114h5c2.66699 14.667 7.33398 28.834 14.001 42.501s15.5 25.834 26.5 36.501s24.167 19.167 39.5 25.5s33.333 9.5 54 9.5h26v-138h-37c-43.333 0 -75.5 -5.66699 -96.5 -17s-31.5 -32.333 -31.5 -63v-307h-148z" />
    <glyph glyph-name="s" unicode="s" horiz-adv-x="504" 
d="M247 -12c-50.667 0 -93.333 8.16504 -128 24.498s-65.667 39.5 -93 69.5l87 88c18.667 -20.667 39.334 -37 62.001 -49s48.334 -18 77.001 -18c29.333 0 49.666 4.5 60.999 13.5s17 21.167 17 36.5c0 24.667 -17.667 39.334 -53 44.001l-57 7
c-118 14.667 -177 68.667 -177 162c0 25.333 4.83301 48.5 14.5 69.5s23.334 39 41.001 54s39 26.667 64 35s53.167 12.5 84.5 12.5c27.333 0 51.5 -1.83301 72.5 -5.5s39.667 -9 56 -16s31.333 -15.667 45 -26s27.167 -21.833 40.5 -34.5l-85 -87
c-16.667 16.667 -35.5 29.834 -56.5 39.501s-42.5 14.5 -64.5 14.5c-25.333 0 -43.333 -4 -54 -12s-16 -18.667 -16 -32c0 -14 3.83301 -24.833 11.5 -32.5s22.167 -13.167 43.5 -16.5l59 -8c115.333 -15.333 173 -68 173 -158c0 -25.333 -5.33301 -48.666 -16 -69.999
s-25.834 -39.833 -45.501 -55.5s-43.334 -27.834 -71.001 -36.501s-58.5 -13 -92.5 -13z" />
    <glyph glyph-name="t" unicode="t" horiz-adv-x="383" 
d="M253 0c-51.333 0 -90.167 13 -116.5 39s-39.5 64 -39.5 114v257h-74v115h37c20 0 33.667 4.83301 41 14.5s11 23.5 11 41.5v86h133v-142h104v-115h-104v-295h96v-115h-88z" />
    <glyph glyph-name="u" unicode="u" horiz-adv-x="596" 
d="M379 88h-4.99805c-4.66699 -13.333 -10.834 -26 -18.501 -38s-17.5 -22.667 -29.5 -32s-26.167 -16.666 -42.5 -21.999s-35.166 -8 -56.499 -8c-54 0 -94.833 17.833 -122.5 53.5s-41.5 86.834 -41.5 153.501v330h148v-317c0 -32 5.66699 -56.667 17 -74
s30.666 -26 57.999 -26c11.333 0 22.666 1.66699 33.999 5s21.333 8.16602 30 14.499s15.667 14.166 21 23.499s8 20.333 8 33v341h148v-525h-148v88z" />
    <glyph glyph-name="v" unicode="v" horiz-adv-x="538" 
d="M181 0l-172 525h146l65 -212l49 -190h8l49 190l63 212h140l-172 -525h-176z" />
    <glyph glyph-name="w" unicode="w" horiz-adv-x="841" 
d="M19 525h143l51 -212l36 -160h4l42 160l60 212h135l61 -212l43 -160h4l36 160l51 212h137l-145 -525h-155l-64 222l-37 136h-3l-36 -136l-64 -222h-152z" />
    <glyph glyph-name="x" unicode="x" horiz-adv-x="560" 
d="M18 0l173 267l-171 258h168l98 -165h4l95 165h156l-174 -263l175 -262h-168l-101 171h-4l-97 -171h-154z" />
    <glyph glyph-name="y" unicode="y" horiz-adv-x="534" 
d="M390 525h137.998l-202 -606c-13.333 -40.667 -32.166 -70.667 -56.499 -90s-59.166 -29 -104.499 -29h-92v115h99l18 58l-184 552h147l77 -245l38 -152h6l39 152z" />
    <glyph glyph-name="z" unicode="z" horiz-adv-x="518" 
d="M39 0v117l261 293h-252v115h424v-116l-262 -294h269v-115h-440z" />
    <glyph glyph-name="braceleft" unicode="{" horiz-adv-x="372" 
d="M213 -138c-27.333 0 -50.333 8.66699 -69 26s-28 42.333 -28 75v203c0 29.333 -9.16699 51.5 -27.5 66.5s-41.5 22.5 -69.5 22.5v113c28 0 51.167 7.5 69.5 22.5s27.5 37.167 27.5 66.5v202c0 32.667 9.33301 57.667 28 75s41.667 26 69 26h109v-104h-69v-215
c0 -16 -2.83301 -31.167 -8.5 -45.5s-13.167 -27.166 -22.5 -38.499s-20.333 -20.833 -33 -28.5s-26 -12.834 -40 -15.501v-4c14 -2.66699 27.333 -7.83398 40 -15.501s23.667 -17.167 33 -28.5s16.833 -24.166 22.5 -38.499s8.5 -29.5 8.5 -45.5v-215h69v-104h-109z" />
    <glyph glyph-name="bar" unicode="|" horiz-adv-x="402" 
d="M138 -138v898h126v-898h-126z" />
    <glyph glyph-name="braceright" unicode="}" horiz-adv-x="372" 
d="M159 760c27.333 0 50.333 -8.66699 69 -26s28 -42.333 28 -75v-202c0 -29.333 9.16699 -51.5 27.5 -66.5s41.5 -22.5 69.5 -22.5v-113c-28 0 -51.167 -7.5 -69.5 -22.5s-27.5 -37.167 -27.5 -66.5v-203c0 -32.667 -9.33301 -57.667 -28 -75s-41.667 -26 -69 -26h-109v104
h69v216c0 16 2.83301 31.167 8.5 45.5s13.167 27.166 22.5 38.499s20.333 20.833 33 28.5s26 12.834 40 15.501v4c-14 2.66699 -27.333 7.83398 -40 15.501s-23.667 17.167 -33 28.5s-16.833 24.166 -22.5 38.499s-8.5 29.5 -8.5 45.5v214h-69v104h109z" />
    <glyph glyph-name="asciitilde" unicode="~" 
d="M416 212c-24.667 0 -46.334 3.16699 -65.001 9.5s-39 15.166 -61 26.499c-18 9.33301 -35.667 17.166 -53 23.499s-36.333 9.5 -57 9.5c-15.333 0 -28.5 -2.16699 -39.5 -6.5s-23.833 -11.166 -38.5 -20.499l-49 84c12 17.333 28.667 32 50 44s48.333 18 81 18
c24.667 0 46.334 -3.16699 65.001 -9.5s39 -15.166 61 -26.499c18 -9.33301 35.667 -17.166 53 -23.499s36.333 -9.5 57 -9.5c15.333 0 28.5 2.16699 39.5 6.5s23.833 11.166 38.5 20.499l49 -84c-12 -17.333 -28.667 -32 -50 -44s-48.333 -18 -81 -18z" />
    <glyph glyph-name="uni00A0" unicode="&#xa0;" horiz-adv-x="236" 
 />
    <glyph glyph-name="exclamdown" unicode="&#xa1;" horiz-adv-x="320" 
d="M82 -173v194l46 284h63l47 -284v-194h-156zM160 361c-32 0 -54.833 7.33301 -68.5 22s-20.5 32.667 -20.5 54v24c0 21.333 6.83301 39.333 20.5 54s36.5 22 68.5 22s54.833 -7.33301 68.5 -22s20.5 -32.667 20.5 -54v-24c0 -21.333 -6.83301 -39.333 -20.5 -54
s-36.5 -22 -68.5 -22z" />
    <glyph glyph-name="cent" unicode="&#xa2;" horiz-adv-x="552" 
d="M237 -114l-0.000976562 107.002c-62.667 12 -111 41 -145 87s-51 105.333 -51 178s17.167 132.167 51.5 178.5s82.5 75.166 144.5 86.499v107h110v-106c40.667 -6.66699 74 -20.667 100 -42s46.333 -48 61 -80l-106 -58c-6.66699 14.667 -15.167 28 -25.5 40
s-23.166 21 -38.499 27v-307c17.333 6 31.833 15.167 43.5 27.5s21.5 26.166 29.5 41.499l105 -59c-15.333 -32 -36.833 -58.833 -64.5 -80.5s-62.5 -35.5 -104.5 -41.5v-106h-110zM181.999 216.002c0 -26.667 5.5 -49.5 16.5 -68.5s27.167 -32.833 48.5 -41.5v304
c-21.333 -8.66699 -37.5 -22.5 -48.5 -41.5s-16.5 -41.833 -16.5 -68.5v-84z" />
    <glyph glyph-name="sterling" unicode="&#xa3;" horiz-adv-x="582" 
d="M66 0v135.998c25.333 11.333 45.5 27.333 60.5 48s22.5 45.334 22.5 74.001c0 12 -1.33301 23 -4 33h-111v120h66c-5.33301 14 -9.66602 28.833 -12.999 44.5s-5 32.167 -5 49.5c0 30.667 5.83301 58.667 17.5 84s28.5 47 50.5 65s48.333 31.833 79 41.5
s65 14.5 103 14.5c54 0 100.167 -10.167 138.5 -30.5s70.833 -50.5 97.5 -90.5l-110 -77c-18.667 24 -37.667 41.167 -57 51.5s-41 15.5 -65 15.5c-32.667 0 -57.667 -8.5 -75 -25.5s-26 -41.167 -26 -72.5c0 -13.333 1.33301 -25.5 4 -36.5s6 -22.167 10 -33.5h196v-120
h-150c0.666992 -4.66699 1.16699 -9.16699 1.5 -13.5s0.5 -9.16602 0.5 -14.499c0 -17.333 -2.33301 -32.833 -7 -46.5s-10.834 -25.667 -18.501 -36s-16 -19 -25 -26s-17.833 -12.833 -26.5 -17.5v-9h334v-128h-488z" />
    <glyph glyph-name="currency" unicode="&#xa4;" horiz-adv-x="628" 
d="M314 107c-25.333 0 -49.333 2.66699 -72 8s-42.667 12.666 -60 21.999l-91 -92l-81 80l91 91c-21.333 36.667 -32 81 -32 133s10.667 96.333 32 133l-91 91l81 80l91 -92c17.333 9.33301 37.333 16.666 60 21.999s46.667 8 72 8s49.333 -2.66699 72 -8
s42.667 -12.666 60 -21.999l91 92l81 -80l-91 -91c21.333 -36.667 32 -81 32 -133s-10.667 -96.333 -32 -133l91 -91l-81 -80l-91 92c-17.333 -9.33301 -37.333 -16.666 -60 -21.999s-46.667 -8 -72 -8zM314 214c30.667 0 54.5 9.33301 71.5 28s25.5 45 25.5 79v56
c0 34 -8.5 60.333 -25.5 79s-40.833 28 -71.5 28s-54.5 -9.33301 -71.5 -28s-25.5 -45 -25.5 -79v-56c0 -34 8.5 -60.333 25.5 -79s40.833 -28 71.5 -28z" />
    <glyph glyph-name="yen" unicode="&#xa5;" horiz-adv-x="650" 
d="M399 133v-133h-153v133h-168v90h168v68h-168v90h110l-169 317h172l138 -275h2l137 275h163l-174 -317h110v-90h-168v-68h168v-90h-168z" />
    <glyph glyph-name="brokenbar" unicode="&#xa6;" horiz-adv-x="402" 
d="M138 401v359h126v-359h-126zM138 -138v359h126v-359h-126z" />
    <glyph glyph-name="section" unicode="&#xa7;" horiz-adv-x="569" 
d="M488 13c0 -27.333 -5.33203 -51.668 -15.999 -73.001s-25.5 -39.5 -44.5 -54.5s-41.833 -26.5 -68.5 -34.5s-56 -12 -88 -12c-34.667 0 -69.334 5.33301 -104.001 16s-66.334 29.334 -95.001 56.001l72 88c17.333 -17.333 36.666 -30.833 57.999 -40.5s45 -14.5 71 -14.5
c27.333 0 49.333 5.33301 66 16s25 26.334 25 47.001c0 18.667 -7 33.167 -21 43.5s-36 19.5 -66 27.5l-77 21c-28 8 -51.667 17.333 -71 28s-34.833 22.5 -46.5 35.5s-20 26.667 -25 41s-7.5 28.833 -7.5 43.5c0 28.667 8.66699 55 26 79s44.333 43.667 81 59v17
c-23.333 15.333 -42 34.5 -56 57.5s-21 50.167 -21 81.5c0 27.333 5.33301 51.5 16 72.5s25.5 38.667 44.5 53s41.833 25.166 68.5 32.499s55.667 11 87 11c36 0 71.167 -5.16699 105.5 -15.5s66.166 -29.166 95.499 -56.499l-73 -88
c-17.333 17.333 -36.166 30.833 -56.499 40.5s-45.166 14.5 -74.499 14.5c-25.333 0 -46.5 -4.5 -63.5 -13.5s-25.5 -24.167 -25.5 -45.5c0 -17.333 7 -31 21 -41s36 -19 66 -27l77 -21c28 -8 51.667 -17.5 71 -28.5s35 -23 47 -36s20.5 -26.833 25.5 -41.5
s7.5 -29.334 7.5 -44.001c0 -28.667 -8.66699 -55 -26 -79s-44.666 -43.667 -81.999 -59v-16c23.333 -15.333 42 -34.5 56 -57.5s21 -50.5 21 -82.5zM396.001 261.998c0 17.333 -5.33398 33.1709 -16.001 47.5039s-32 26.166 -64 35.499l-76 21
c-12 3.33301 -22.667 6.66602 -32 9.99902c-11.333 -13.333 -20.166 -26.833 -26.499 -40.5s-9.5 -28.167 -9.5 -43.5c0 -16.667 5.33301 -32 16 -46s32 -25.667 64 -35l76 -21c5.33301 -1.33301 10.833 -3 16.5 -5l16.5 -6c11.333 13.333 20 26.666 26 39.999
s9 27.666 9 42.999z" />
    <glyph glyph-name="dieresis" unicode="&#xa8;" 
d="M190 600c-30 0 -50.833 6.16699 -62.5 18.5s-17.5 27.166 -17.5 44.499v25c0 17.333 5.83301 32.166 17.5 44.499s32.5 18.5 62.5 18.5s50.833 -6.16699 62.5 -18.5s17.5 -27.166 17.5 -44.499v-25c0 -17.333 -5.83301 -32.166 -17.5 -44.499s-32.5 -18.5 -62.5 -18.5z
M410 600c-30 0 -50.833 6.16699 -62.5 18.5s-17.5 27.166 -17.5 44.499v25c0 17.333 5.83301 32.166 17.5 44.499s32.5 18.5 62.5 18.5s50.833 -6.16699 62.5 -18.5s17.5 -27.166 17.5 -44.499v-25c0 -17.333 -5.83301 -32.166 -17.5 -44.499s-32.5 -18.5 -62.5 -18.5z" />
    <glyph glyph-name="copyright" unicode="&#xa9;" horiz-adv-x="792" 
d="M396 -12c-50.667 0 -97.334 8.33301 -140.001 25s-79.334 40.667 -110.001 72s-54.667 69.166 -72 113.499s-26 94.5 -26 150.5s8.66699 106.167 26 150.5s41.333 82.166 72 113.499s67.334 55.333 110.001 72s89.334 25 140.001 25s97.334 -8.33301 140.001 -25
s79.334 -40.667 110.001 -72s54.667 -69.166 72 -113.499s26 -94.5 26 -150.5s-8.66699 -106.167 -26 -150.5s-41.333 -82.166 -72 -113.499s-67.334 -55.333 -110.001 -72s-89.334 -25 -140.001 -25zM396 52c40 0 76.667 6.83301 110 20.5s62.166 32.167 86.499 55.5
s43.333 51 57 83s20.5 66.667 20.5 104v68c0 36.667 -6.83301 71.167 -20.5 103.5s-32.667 60.166 -57 83.499s-53.166 41.833 -86.499 55.5s-70 20.5 -110 20.5s-76.667 -6.83301 -110 -20.5s-62.166 -32.167 -86.499 -55.5s-43.333 -51.166 -57 -83.499
s-20.5 -66.833 -20.5 -103.5v-68c0 -37.333 6.83301 -72 20.5 -104s32.667 -59.667 57 -83s53.166 -41.833 86.499 -55.5s70 -20.5 110 -20.5zM403 134c-32.667 0 -61.8359 5.16797 -87.5029 15.501s-47.5 24.833 -65.5 43.5s-31.667 41.167 -41 67.5s-14 55.833 -14 88.5
s4.66699 62.167 14 88.5s23 48.833 41 67.5s39.833 33.167 65.5 43.5s54.834 15.5 87.501 15.5c48.667 0 87.667 -10.333 117 -31s50.666 -48 63.999 -82l-100 -48c-8 17.333 -18 31.333 -30 42s-29 16 -51 16s-39.333 -6.5 -52 -19.5s-19 -30.5 -19 -52.5v-80
c0 -22 6.33301 -39.5 19 -52.5s30 -19.5 52 -19.5s40 5.5 54 16.5s25.333 24.833 34 41.5l101 -47c-7.33301 -15.333 -16.166 -29.833 -26.499 -43.5s-23.166 -25.834 -38.499 -36.501s-33.166 -19 -53.499 -25s-43.833 -9 -70.5 -9z" />
    <glyph glyph-name="ordfeminine" unicode="&#xaa;" horiz-adv-x="449" 
d="M405 330l-60.002 -0.000976562c-16.667 0 -32.167 4.5 -46.5 13.5s-23.166 25.833 -26.499 50.5h-4c-6.66699 -23.333 -19.5 -40.833 -38.5 -52.5s-42.167 -17.5 -69.5 -17.5c-34 0 -61.5 9.5 -82.5 28.5s-31.5 45.833 -31.5 80.5c0 38 13.667 66 41 84s67 27 119 27h56
v19c0 22 -4.66699 38.333 -14 49s-25.666 16 -48.999 16c-21.333 0 -38.833 -4.16699 -52.5 -12.5s-25.167 -19.166 -34.5 -32.499l-56 50c12 21.333 30.833 38.5 56.5 51.5s58.5 19.5 98.5 19.5c48 0 85.833 -11.333 113.5 -34s41.5 -57 41.5 -103v-162h39v-75z
M208.998 487.999c-41.333 0 -62 -14.334 -62 -43.001v-14c0 -13.333 4.83301 -23.166 14.5 -29.499s22.5 -9.5 38.5 -9.5c17.333 0 32 4.33301 44 13s18 21.667 18 39v44h-53z" />
    <glyph glyph-name="guillemotleft" unicode="&#xab;" horiz-adv-x="558" 
d="M224 49l-186 160v126l186 160l43 -92l-120 -131l120 -131zM465 49l-186 160v126l186 160l43 -92l-120 -131l120 -131z" />
    <glyph glyph-name="logicalnot" unicode="&#xac;" 
d="M412 78v169h-360v118h481v-287h-121z" />
    <glyph glyph-name="uni00AD" unicode="&#xad;" horiz-adv-x="403" 
d="M53 233v144h297v-144h-297z" />
    <glyph glyph-name="registered" unicode="&#xae;" horiz-adv-x="464" 
d="M232 298c-28 0 -54.333 5.16699 -79 15.5s-46.167 24.666 -64.5 42.999s-32.666 40.166 -42.999 65.499s-15.5 52.666 -15.5 81.999s5.16699 56.666 15.5 81.999s24.666 47.166 42.999 65.499s39.833 32.666 64.5 42.999s51 15.5 79 15.5s54.333 -5.16699 79 -15.5
s46.167 -24.666 64.5 -42.999s32.666 -40.166 42.999 -65.499s15.5 -52.666 15.5 -81.999s-5.16699 -56.666 -15.5 -81.999s-24.666 -47.166 -42.999 -65.499s-39.833 -32.666 -64.5 -42.999s-51 -15.5 -79 -15.5zM232 345c20 0 39 3.16699 57 9.5s33.667 15.666 47 27.999
s24 27.333 32 45s12 37.834 12 60.501v32c0 22.667 -4 42.834 -12 60.501s-18.667 32.667 -32 45s-29 21.666 -47 27.999s-37 9.5 -57 9.5s-39 -3.16699 -57 -9.5s-33.667 -15.666 -47 -27.999s-24 -27.333 -32 -45s-12 -37.834 -12 -60.501v-32
c0 -22.667 4 -42.834 12 -60.501s18.667 -32.667 32 -45s29 -21.666 47 -27.999s37 -9.5 57 -9.5zM209 400h-64v209h102c28 0 48.333 -6.66699 61 -20s19 -30 19 -50c0 -16.667 -3.33301 -30.5 -10 -41.5s-15.667 -19.167 -27 -24.5l43 -73h-69l-32 61h-23v-61zM234 508
c18.667 0 28 7.66699 28 23v7c0 15.333 -9.33301 23 -28 23h-25v-53h25z" />
    <glyph glyph-name="macron" unicode="&#xaf;" 
d="M147 727h306v-103h-306v103z" />
    <glyph glyph-name="degree" unicode="&#xb0;" horiz-adv-x="470" 
d="M235 334c-26 0 -50.333 4.66699 -73 14s-42.334 22.5 -59.001 39.5s-29.667 36.833 -39 59.5s-14 47.667 -14 75c0 26.667 4.66699 51.5 14 74.5s22.333 43 39 60s36.334 30.167 59.001 39.5s47 14 73 14s50.333 -4.66699 73 -14s42.334 -22.5 59.001 -39.5
s29.667 -37 39 -60s14 -47.833 14 -74.5c0 -27.333 -4.66699 -52.333 -14 -75s-22.333 -42.5 -39 -59.5s-36.334 -30.167 -59.001 -39.5s-47 -14 -73 -14zM235 429c25.333 0 45.666 8.83301 60.999 26.5s23 39.834 23 66.501s-7.66699 48.834 -23 66.501
s-35.666 26.5 -60.999 26.5s-45.666 -8.83301 -60.999 -26.5s-23 -39.834 -23 -66.501s7.66699 -48.834 23 -66.501s35.666 -26.5 60.999 -26.5z" />
    <glyph glyph-name="plusminus" unicode="&#xb1;" 
d="M236 184v167h-169v119h169v165h128v-165h169v-119h-169v-167h-128zM67 0v119h466v-119h-466z" />
    <glyph glyph-name="twosuperior" unicode="&#xb2;" horiz-adv-x="347" 
d="M322 329l-288.997 -0.000976562v88l109 83c12.667 9.33301 23.167 17.5 31.5 24.5s15.166 13.667 20.499 20s9.16602 12.5 11.499 18.5s3.5 12.667 3.5 20v1c0 13.333 -4.83301 22.333 -14.5 27s-19.167 7 -28.5 7c-16.667 0 -29.167 -4.5 -37.5 -13.5
s-14.166 -19.5 -17.499 -31.5l-89 33c9.33301 28 26.833 51.333 52.5 70s59.5 28 101.5 28c45.333 0 80.333 -10.667 105 -32s37 -48.666 37 -81.999c0 -17.333 -3.16699 -33 -9.5 -47s-14.833 -26.833 -25.5 -38.5s-22.834 -22.5 -36.501 -32.5s-27.834 -19 -42.501 -27
l-59 -33h177v-83z" />
    <glyph glyph-name="threesuperior" unicode="&#xb3;" horiz-adv-x="345" 
d="M151 558c18 0 31 2.66602 39 7.99902s12 11.666 12 18.999v4c0 9.33301 -3.83301 17.666 -11.5 24.999s-18.834 11 -33.501 11c-14 0 -28.167 -3.66699 -42.5 -11s-26.833 -18 -37.5 -32l-62 59c17.333 20.667 37 36.334 59 47.001s50.667 16 86 16
c47.333 0 84.166 -9.33301 110.499 -28s39.5 -43 39.5 -73c0 -23.333 -7.5 -42 -22.5 -56s-32.833 -22.333 -53.5 -25v-4c25.333 -4 45.333 -13.333 60 -28s22 -33.667 22 -57c0 -34 -14.5 -60.833 -43.5 -80.5s-66.833 -29.5 -113.5 -29.5
c-43.333 0 -76.666 7.33301 -99.999 22s-41.666 32.334 -54.999 53.001l76 58c7.33301 -15.333 17.333 -28.166 30 -38.499s29 -15.5 49 -15.5c15.333 0 27.5 3.66699 36.5 11s13.5 17 13.5 29v2c0 11.333 -5.66699 19.5 -17 24.5s-26 7.5 -44 7.5h-31v82h34z" />
    <glyph glyph-name="acute" unicode="&#xb4;" 
d="M316 579l-88 43l99 194l123 -61z" />
    <glyph glyph-name="mu" unicode="&#xb5;" horiz-adv-x="602" 
d="M69 -200v725h148v-319c0 -32 5.66699 -56.333 17 -73s30.333 -25 57 -25c12 0 23.5 1.66699 34.5 5s21 8.16602 30 14.499s16.167 14.333 21.5 24s8 20.834 8 33.501v340h148v-525h-148v88h-5c-8.66699 -27.333 -22.667 -50.833 -42 -70.5s-44 -29.5 -74 -29.5
c-19.333 0 -34.833 4 -46.5 12s-20.167 18 -25.5 30h-5l30 -136v-94h-148z" />
    <glyph glyph-name="paragraph" unicode="&#xb6;" horiz-adv-x="677" 
d="M242 260c-29.333 0 -56.833 5.8291 -82.5 17.4961s-48 27.334 -67 47.001s-34 42.834 -45 69.501s-16.5 55 -16.5 85s5.5 58.333 16.5 85s26 49.834 45 69.501s41.333 35.334 67 47.001s53.167 17.5 82.5 17.5h382v-106h-66v-741h-109v741h-98v-741h-109v409z" />
    <glyph glyph-name="periodcentered" unicode="&#xb7;" horiz-adv-x="358" 
d="M179 213c-30 0 -52.167 7.5 -66.5 22.5s-21.5 34.167 -21.5 57.5v20c0 23.333 7.16699 42.5 21.5 57.5s36.5 22.5 66.5 22.5s52.167 -7.5 66.5 -22.5s21.5 -34.167 21.5 -57.5v-20c0 -23.333 -7.16699 -42.5 -21.5 -57.5s-36.5 -22.5 -66.5 -22.5z" />
    <glyph glyph-name="cedilla" unicode="&#xb8;" 
d="M314 -212c-34.667 0 -61.832 4.83203 -81.499 14.499s-33.834 19.5 -42.501 29.5l46 56c6.66699 -8 15.5 -14.833 26.5 -20.5s24.167 -8.5 39.5 -8.5c12.667 0 23.167 2 31.5 6s12.5 10.333 12.5 19c0 4 -1 8 -3 12s-5.83301 7.83301 -11.5 11.5s-13.334 7 -23.001 10
s-22.167 5.16699 -37.5 6.5l-21 2l22 104h67l-18 -85l4 -4c8 2 16 3.66699 24 5s16 2 24 2c20 0 37.167 -5.33301 51.5 -16s21.5 -28.334 21.5 -53.001c0 -17.333 -3.66699 -31.666 -11 -42.999s-17.166 -20.666 -29.499 -27.999s-26.5 -12.5 -42.5 -15.5
s-32.333 -4.5 -49 -4.5z" />
    <glyph glyph-name="onesuperior" unicode="&#xb9;" horiz-adv-x="344" 
d="M49 329v79h93v210h-6l-61 -83l-67 48l85 115h150v-290h81v-79h-275z" />
    <glyph glyph-name="ordmasculine" unicode="&#xba;" horiz-adv-x="433" 
d="M217 324c-56.667 0 -100.667 17 -132 51s-47 80.333 -47 139s15.667 105 47 139s75.333 51 132 51s100.667 -17 132 -51s47 -80.333 47 -139s-15.667 -105 -47 -139s-75.333 -51 -132 -51zM217 402c22.667 0 40.334 6.83301 53.001 20.5s19 34.5 19 62.5v58
c0 28 -6.33301 48.833 -19 62.5s-30.334 20.5 -53.001 20.5s-40.334 -6.83301 -53.001 -20.5s-19 -34.5 -19 -62.5v-58c0 -28 6.33301 -48.833 19 -62.5s30.334 -20.5 53.001 -20.5z" />
    <glyph glyph-name="guillemotright" unicode="&#xbb;" horiz-adv-x="558" 
d="M50 141l120 131l-120 131l43 92l186 -160v-126l-186 -160zM291 141l120 131l-120 131l43 92l186 -160v-126l-186 -160z" />
    <glyph glyph-name="onequarter" unicode="&#xbc;" horiz-adv-x="837" 
d="M49 329v79h93v210h-6l-61 -83l-67 48l85 115h150v-290h81v-79h-275zM114 0l529 698h108l-529 -698h-108zM674 0v70h-166v85l149 214h115v-223h46v-76h-46v-70h-98zM674 259h-7l-80 -113h87v113z" />
    <glyph glyph-name="onehalf" unicode="&#xbd;" horiz-adv-x="859" 
d="M49 329v79h93v210h-6l-61 -83l-67 48l85 115h150v-290h81v-79h-275zM114 0l529 698h108l-529 -698h-108zM834 0l-288.997 -0.000976562v88l109 83c12.667 9.33301 23.167 17.5 31.5 24.5s15.166 13.667 20.499 20s9.16602 12.5 11.499 18.5s3.5 12.667 3.5 20v1
c0 13.333 -4.83301 22.333 -14.5 27s-19.167 7 -28.5 7c-16.667 0 -29.167 -4.5 -37.5 -13.5s-14.166 -19.5 -17.499 -31.5l-89 33c9.33301 28 26.833 51.333 52.5 70s59.5 28 101.5 28c45.333 0 80.333 -10.667 105 -32s37 -48.666 37 -81.999
c0 -17.333 -3.16699 -33 -9.5 -47s-14.833 -26.833 -25.5 -38.5s-22.834 -22.5 -36.501 -32.5s-27.834 -19 -42.501 -27l-59 -33h177v-83z" />
    <glyph glyph-name="threequarters" unicode="&#xbe;" horiz-adv-x="828" 
d="M151 558c18 0 31 2.66602 39 7.99902s12 11.666 12 18.999v4c0 9.33301 -3.83301 17.666 -11.5 24.999s-18.834 11 -33.501 11c-14 0 -28.167 -3.66699 -42.5 -11s-26.833 -18 -37.5 -32l-62 59c17.333 20.667 37 36.334 59 47.001s50.667 16 86 16
c47.333 0 84.166 -9.33301 110.499 -28s39.5 -43 39.5 -73c0 -23.333 -7.5 -42 -22.5 -56s-32.833 -22.333 -53.5 -25v-4c25.333 -4 45.333 -13.333 60 -28s22 -33.667 22 -57c0 -34 -14.5 -60.833 -43.5 -80.5s-66.833 -29.5 -113.5 -29.5
c-43.333 0 -76.666 7.33301 -99.999 22s-41.666 32.334 -54.999 53.001l76 58c7.33301 -15.333 17.333 -28.166 30 -38.499s29 -15.5 49 -15.5c15.333 0 27.5 3.66699 36.5 11s13.5 17 13.5 29v2c0 11.333 -5.66699 19.5 -17 24.5s-26 7.5 -44 7.5h-31v82h34z
M105 -0.000976562l529 698h108l-529 -698h-108zM665 -0.000976562v70h-166v85l149 214h115v-223h46v-76h-46v-70h-98zM665 258.999h-7l-80 -113h87v113z" />
    <glyph glyph-name="questiondown" unicode="&#xbf;" horiz-adv-x="494" 
d="M260 -185c-35.333 0 -67.167 4.99902 -95.5 14.999s-52.833 24 -73.5 42s-36.5 39.667 -47.5 65s-16.5 53.333 -16.5 84c0 28 4.66699 53.333 14 76s22 42.5 38 59.5s34.667 30.833 56 41.5s43.666 18 66.999 22v72h140v-153c-52.667 -2 -92.167 -10.833 -118.5 -26.5
s-39.5 -42.167 -39.5 -79.5v-14c0 -25.333 7.5 -44.666 22.5 -57.999s34.5 -20 58.5 -20c26 0 47.5 8 64.5 24s28.5 36.333 34.5 61l122 -51c-6 -20 -14.667 -39.667 -26 -59s-26.166 -36.5 -44.499 -51.5s-40.333 -27 -66 -36s-55.5 -13.5 -89.5 -13.5zM269.999 360.999
c-32 0 -54.833 7.33301 -68.5 22s-20.5 32.667 -20.5 54v24c0 21.333 6.83301 39.333 20.5 54s36.5 22 68.5 22s54.833 -7.33301 68.5 -22s20.5 -32.667 20.5 -54v-24c0 -21.333 -6.83301 -39.333 -20.5 -54s-36.5 -22 -68.5 -22z" />
    <glyph glyph-name="Agrave" unicode="&#xc0;" horiz-adv-x="685" 
d="M507 0l-50 166h-233l-50 -166h-154l230 698h188l227 -698h-158zM342 560h-5l-77 -265h160zM189 916l123 61l99 -194l-88 -43z" />
    <glyph glyph-name="Aacute" unicode="&#xc1;" horiz-adv-x="685" 
d="M507 0l-50 166h-233l-50 -166h-154l230 698h188l227 -698h-158zM342 560h-5l-77 -265h160zM355 740l-88 43l99 194l123 -61z" />
    <glyph glyph-name="Acircumflex" unicode="&#xc2;" horiz-adv-x="685" 
d="M507 0l-50 166h-233l-50 -166h-154l230 698h188l227 -698h-158zM342 560h-5l-77 -265h160zM401 956l132 -159l-73 -58l-121 115l-121 -115l-73 58l132 159h124z" />
    <glyph glyph-name="Atilde" unicode="&#xc3;" horiz-adv-x="685" 
d="M507 0l-50 166h-233l-50 -166h-154l230 698h188l227 -698h-158zM342 560h-5l-77 -265h160zM415 762c-15.333 0 -28.833 2 -40.5 6s-23.834 8.66699 -36.501 14c-14.667 6 -28 11.167 -40 15.5s-24.667 6.5 -38 6.5c-11.333 0 -21.333 -2 -30 -6
s-18.334 -10.333 -29.001 -19l-52 68c12 18 27.333 33.167 46 45.5s41.334 18.5 68.001 18.5c15.333 0 28.833 -2 40.5 -6s23.834 -8.66699 36.501 -14c14.667 -6 28 -11.167 40 -15.5s24.667 -6.5 38 -6.5c11.333 0 21.333 2 30 6s18.334 10.333 29.001 19l52 -68
c-12 -18 -27.333 -33.167 -46 -45.5s-41.334 -18.5 -68.001 -18.5z" />
    <glyph glyph-name="Adieresis" unicode="&#xc4;" horiz-adv-x="685" 
d="M507 0l-50 166h-233l-50 -166h-154l230 698h188l227 -698h-158zM342 560h-5l-77 -265h160zM229 761c-30 0 -50.833 6.16699 -62.5 18.5s-17.5 27.166 -17.5 44.499v25c0 17.333 5.83301 32.166 17.5 44.499s32.5 18.5 62.5 18.5s50.833 -6.16699 62.5 -18.5
s17.5 -27.166 17.5 -44.499v-25c0 -17.333 -5.83301 -32.166 -17.5 -44.499s-32.5 -18.5 -62.5 -18.5zM449 761c-30 0 -50.833 6.16699 -62.5 18.5s-17.5 27.166 -17.5 44.499v25c0 17.333 5.83301 32.166 17.5 44.499s32.5 18.5 62.5 18.5s50.833 -6.16699 62.5 -18.5
s17.5 -27.166 17.5 -44.499v-25c0 -17.333 -5.83301 -32.166 -17.5 -44.499s-32.5 -18.5 -62.5 -18.5z" />
    <glyph glyph-name="Aring" unicode="&#xc5;" horiz-adv-x="685" 
d="M507 0l-50 166h-233l-50 -166h-154l230 698h188l227 -698h-158zM342 560h-5l-77 -265h160zM339 719c-20.667 0 -40 3.5 -58 10.5s-33.667 16.833 -47 29.5s-23.833 27.834 -31.5 45.501s-11.5 36.834 -11.5 57.501s3.83301 39.834 11.5 57.501s18.167 32.834 31.5 45.501
s29 22.5 47 29.5s37.333 10.5 58 10.5s40 -3.5 58 -10.5s33.667 -16.833 47 -29.5s23.833 -27.834 31.5 -45.501s11.5 -36.834 11.5 -57.501s-3.83301 -39.834 -11.5 -57.501s-18.167 -32.834 -31.5 -45.501s-29 -22.5 -47 -29.5s-37.333 -10.5 -58 -10.5zM339 794
c16.667 0 29.334 4.66699 38.001 14s13 21.666 13 36.999v34c0 15.333 -4.33301 27.666 -13 36.999s-21.334 14 -38.001 14s-29.334 -4.66699 -38.001 -14s-13 -21.666 -13 -36.999v-34c0 -15.333 4.33301 -27.666 13 -36.999s21.334 -14 38.001 -14z" />
    <glyph glyph-name="AE" unicode="&#xc6;" horiz-adv-x="968" 
d="M438 166h-209l-78 -166h-152l341 698h573v-135h-324v-143h278v-134h-278v-151h324v-135h-475v166zM415 563l-125 -268h148v268h-23z" />
    <glyph glyph-name="Ccedilla" unicode="&#xc7;" horiz-adv-x="651" 
d="M359 575c-44.667 0 -80.498 -14.502 -107.498 -43.502s-40.5 -71.167 -40.5 -126.5v-112c0 -55.333 13.5 -97.5 40.5 -126.5s62.833 -43.5 107.5 -43.5c37.333 0 67.166 10.167 89.499 30.5s38.833 44.833 49.5 73.5l124 -72c-26 -53.333 -60 -94.5 -102 -123.5
s-94 -43.5 -156 -43.5l-9 -43l4 -4c8 2 16 3.66699 24 5s16 2 24 2c20 0 37.167 -5.33301 51.5 -16s21.5 -28.334 21.5 -53.001c0 -17.333 -3.66699 -31.666 -11 -42.999s-17.166 -20.666 -29.499 -27.999s-26.5 -12.5 -42.5 -15.5s-32.333 -4.5 -49 -4.5
c-34.667 0 -61.834 4.83301 -81.501 14.5s-33.834 19.5 -42.501 29.5l46 56c6.66699 -8 15.5 -14.833 26.5 -20.5s24.167 -8.5 39.5 -8.5c12.667 0 23.167 2 31.5 6s12.5 10.333 12.5 19c0 4 -1 8 -3 12s-5.83301 7.83301 -11.5 11.5s-13.334 7 -23.001 10
s-22.167 5.16699 -37.5 6.5l-21 2l14 67c-76.667 11.333 -137.167 46.5 -181.5 105.5s-66.5 140.833 -66.5 245.5c0 58.667 7.33301 110.834 22 156.501s35.334 84 62.001 115s59 54.5 97 70.5s80.667 24 128 24c64.667 0 118 -13.167 160 -39.5s75.667 -67.833 101 -124.5
l-131 -68c-9.33301 29.333 -23.833 52.833 -43.5 70.5s-48.5 26.5 -86.5 26.5z" />
    <glyph glyph-name="Egrave" unicode="&#xc8;" horiz-adv-x="607" 
d="M77 0v698h475v-135h-323v-143h277v-134h-277v-151h323v-135h-475zM165 916l123 61l99 -194l-88 -43z" />
    <glyph glyph-name="Eacute" unicode="&#xc9;" horiz-adv-x="607" 
d="M77 0v698h475v-135h-323v-143h277v-134h-277v-151h323v-135h-475zM331 740l-88 43l99 194l123 -61z" />
    <glyph glyph-name="Ecircumflex" unicode="&#xca;" horiz-adv-x="607" 
d="M77 0v698h475v-135h-323v-143h277v-134h-277v-151h323v-135h-475zM377 956l132 -159l-73 -58l-121 115l-121 -115l-73 58l132 159h124z" />
    <glyph glyph-name="Edieresis" unicode="&#xcb;" horiz-adv-x="607" 
d="M77 0v698h475v-135h-323v-143h277v-134h-277v-151h323v-135h-475zM205 761c-30 0 -50.833 6.16699 -62.5 18.5s-17.5 27.166 -17.5 44.499v25c0 17.333 5.83301 32.166 17.5 44.499s32.5 18.5 62.5 18.5s50.833 -6.16699 62.5 -18.5s17.5 -27.166 17.5 -44.499v-25
c0 -17.333 -5.83301 -32.166 -17.5 -44.499s-32.5 -18.5 -62.5 -18.5zM425 761c-30 0 -50.833 6.16699 -62.5 18.5s-17.5 27.166 -17.5 44.499v25c0 17.333 5.83301 32.166 17.5 44.499s32.5 18.5 62.5 18.5s50.833 -6.16699 62.5 -18.5s17.5 -27.166 17.5 -44.499v-25
c0 -17.333 -5.83301 -32.166 -17.5 -44.499s-32.5 -18.5 -62.5 -18.5z" />
    <glyph glyph-name="Igrave" unicode="&#xcc;" horiz-adv-x="432" 
d="M50 0v121h90v456h-90v121h332v-121h-90v-456h90v-121h-332zM67 916l123 61l99 -194l-88 -43z" />
    <glyph glyph-name="Iacute" unicode="&#xcd;" horiz-adv-x="432" 
d="M50 0v121h90v456h-90v121h332v-121h-90v-456h90v-121h-332zM233 740l-88 43l99 194l123 -61z" />
    <glyph glyph-name="Icircumflex" unicode="&#xce;" horiz-adv-x="432" 
d="M50 0v121h90v456h-90v121h332v-121h-90v-456h90v-121h-332zM279 956l132 -159l-73 -58l-121 115l-121 -115l-73 58l132 159h124z" />
    <glyph glyph-name="Idieresis" unicode="&#xcf;" horiz-adv-x="432" 
d="M50 0v121h90v456h-90v121h332v-121h-90v-456h90v-121h-332zM107 761c-30 0 -50.833 6.16699 -62.5 18.5s-17.5 27.166 -17.5 44.499v25c0 17.333 5.83301 32.166 17.5 44.499s32.5 18.5 62.5 18.5s50.833 -6.16699 62.5 -18.5s17.5 -27.166 17.5 -44.499v-25
c0 -17.333 -5.83301 -32.166 -17.5 -44.499s-32.5 -18.5 -62.5 -18.5zM327 761c-30 0 -50.833 6.16699 -62.5 18.5s-17.5 27.166 -17.5 44.499v25c0 17.333 5.83301 32.166 17.5 44.499s32.5 18.5 62.5 18.5s50.833 -6.16699 62.5 -18.5s17.5 -27.166 17.5 -44.499v-25
c0 -17.333 -5.83301 -32.166 -17.5 -44.499s-32.5 -18.5 -62.5 -18.5z" />
    <glyph glyph-name="Eth" unicode="&#xd0;" horiz-adv-x="702" 
d="M82 297h-75v114h75v287h263c46 0 88 -7.33301 126 -22s70.333 -36.5 97 -65.5s47.334 -65.333 62.001 -109s22 -94.5 22 -152.5s-7.33301 -108.833 -22 -152.5s-35.334 -80 -62.001 -109s-59 -50.833 -97 -65.5s-80 -22 -126 -22h-263v297zM345 135
c45.333 0 81 12.667 107 38s39 66 39 122v108c0 56 -13 96.667 -39 122s-61.667 38 -107 38h-111v-152h119v-114h-119v-162h111z" />
    <glyph glyph-name="Ntilde" unicode="&#xd1;" horiz-adv-x="724" 
d="M290 330l-67 140h-3v-470h-143v698h166l191 -330l67 -140h3v470h143v-698h-166zM437 762c-15.333 0 -28.833 2 -40.5 6s-23.834 8.66699 -36.501 14c-14.667 6 -28 11.167 -40 15.5s-24.667 6.5 -38 6.5c-11.333 0 -21.333 -2 -30 -6s-18.334 -10.333 -29.001 -19l-52 68
c12 18 27.333 33.167 46 45.5s41.334 18.5 68.001 18.5c15.333 0 28.833 -2 40.5 -6s23.834 -8.66699 36.501 -14c14.667 -6 28 -11.167 40 -15.5s24.667 -6.5 38 -6.5c11.333 0 21.333 2 30 6s18.334 10.333 29.001 19l52 -68c-12 -18 -27.333 -33.167 -46 -45.5
s-41.334 -18.5 -68.001 -18.5z" />
    <glyph glyph-name="Ograve" unicode="&#xd2;" horiz-adv-x="714" 
d="M357 -12c-46 0 -88 7.66699 -126 23s-70.333 38.166 -97 68.499s-47.334 68 -62.001 113s-22 97.167 -22 156.5s7.33301 111.5 22 156.5s35.334 82.667 62.001 113s59 53.166 97 68.499s80 23 126 23s88 -7.66699 126 -23s70.333 -38.166 97 -68.499
s47.334 -68 62.001 -113s22 -97.167 22 -156.5s-7.33301 -111.5 -22 -156.5s-35.334 -82.667 -62.001 -113s-59 -53.166 -97 -68.499s-80 -23 -126 -23zM357 123c46 0 81.833 15 107.5 45s38.5 73 38.5 129v104c0 56 -12.833 99 -38.5 129s-61.5 45 -107.5 45
s-81.833 -15 -107.5 -45s-38.5 -73 -38.5 -129v-104c0 -56 12.833 -99 38.5 -129s61.5 -45 107.5 -45zM207 916l123 61l99 -194l-88 -43z" />
    <glyph glyph-name="Oacute" unicode="&#xd3;" horiz-adv-x="714" 
d="M357 -12c-46 0 -88 7.66699 -126 23s-70.333 38.166 -97 68.499s-47.334 68 -62.001 113s-22 97.167 -22 156.5s7.33301 111.5 22 156.5s35.334 82.667 62.001 113s59 53.166 97 68.499s80 23 126 23s88 -7.66699 126 -23s70.333 -38.166 97 -68.499
s47.334 -68 62.001 -113s22 -97.167 22 -156.5s-7.33301 -111.5 -22 -156.5s-35.334 -82.667 -62.001 -113s-59 -53.166 -97 -68.499s-80 -23 -126 -23zM357 123c46 0 81.833 15 107.5 45s38.5 73 38.5 129v104c0 56 -12.833 99 -38.5 129s-61.5 45 -107.5 45
s-81.833 -15 -107.5 -45s-38.5 -73 -38.5 -129v-104c0 -56 12.833 -99 38.5 -129s61.5 -45 107.5 -45zM373 740l-88 43l99 194l123 -61z" />
    <glyph glyph-name="Ocircumflex" unicode="&#xd4;" horiz-adv-x="714" 
d="M357 -12c-46 0 -88 7.66699 -126 23s-70.333 38.166 -97 68.499s-47.334 68 -62.001 113s-22 97.167 -22 156.5s7.33301 111.5 22 156.5s35.334 82.667 62.001 113s59 53.166 97 68.499s80 23 126 23s88 -7.66699 126 -23s70.333 -38.166 97 -68.499
s47.334 -68 62.001 -113s22 -97.167 22 -156.5s-7.33301 -111.5 -22 -156.5s-35.334 -82.667 -62.001 -113s-59 -53.166 -97 -68.499s-80 -23 -126 -23zM357 123c46 0 81.833 15 107.5 45s38.5 73 38.5 129v104c0 56 -12.833 99 -38.5 129s-61.5 45 -107.5 45
s-81.833 -15 -107.5 -45s-38.5 -73 -38.5 -129v-104c0 -56 12.833 -99 38.5 -129s61.5 -45 107.5 -45zM419 956l132 -159l-73 -58l-121 115l-121 -115l-73 58l132 159h124z" />
    <glyph glyph-name="Otilde" unicode="&#xd5;" horiz-adv-x="714" 
d="M357 -12c-46 0 -88 7.66699 -126 23s-70.333 38.166 -97 68.499s-47.334 68 -62.001 113s-22 97.167 -22 156.5s7.33301 111.5 22 156.5s35.334 82.667 62.001 113s59 53.166 97 68.499s80 23 126 23s88 -7.66699 126 -23s70.333 -38.166 97 -68.499
s47.334 -68 62.001 -113s22 -97.167 22 -156.5s-7.33301 -111.5 -22 -156.5s-35.334 -82.667 -62.001 -113s-59 -53.166 -97 -68.499s-80 -23 -126 -23zM357 123c46 0 81.833 15 107.5 45s38.5 73 38.5 129v104c0 56 -12.833 99 -38.5 129s-61.5 45 -107.5 45
s-81.833 -15 -107.5 -45s-38.5 -73 -38.5 -129v-104c0 -56 12.833 -99 38.5 -129s61.5 -45 107.5 -45zM433 762c-15.333 0 -28.833 2 -40.5 6s-23.834 8.66699 -36.501 14c-14.667 6 -28 11.167 -40 15.5s-24.667 6.5 -38 6.5c-11.333 0 -21.333 -2 -30 -6
s-18.334 -10.333 -29.001 -19l-52 68c12 18 27.333 33.167 46 45.5s41.334 18.5 68.001 18.5c15.333 0 28.833 -2 40.5 -6s23.834 -8.66699 36.501 -14c14.667 -6 28 -11.167 40 -15.5s24.667 -6.5 38 -6.5c11.333 0 21.333 2 30 6s18.334 10.333 29.001 19l52 -68
c-12 -18 -27.333 -33.167 -46 -45.5s-41.334 -18.5 -68.001 -18.5z" />
    <glyph glyph-name="Odieresis" unicode="&#xd6;" horiz-adv-x="714" 
d="M357 -12c-46 0 -88 7.66699 -126 23s-70.333 38.166 -97 68.499s-47.334 68 -62.001 113s-22 97.167 -22 156.5s7.33301 111.5 22 156.5s35.334 82.667 62.001 113s59 53.166 97 68.499s80 23 126 23s88 -7.66699 126 -23s70.333 -38.166 97 -68.499
s47.334 -68 62.001 -113s22 -97.167 22 -156.5s-7.33301 -111.5 -22 -156.5s-35.334 -82.667 -62.001 -113s-59 -53.166 -97 -68.499s-80 -23 -126 -23zM357 123c46 0 81.833 15 107.5 45s38.5 73 38.5 129v104c0 56 -12.833 99 -38.5 129s-61.5 45 -107.5 45
s-81.833 -15 -107.5 -45s-38.5 -73 -38.5 -129v-104c0 -56 12.833 -99 38.5 -129s61.5 -45 107.5 -45zM247 761c-30 0 -50.833 6.16699 -62.5 18.5s-17.5 27.166 -17.5 44.499v25c0 17.333 5.83301 32.166 17.5 44.499s32.5 18.5 62.5 18.5s50.833 -6.16699 62.5 -18.5
s17.5 -27.166 17.5 -44.499v-25c0 -17.333 -5.83301 -32.166 -17.5 -44.499s-32.5 -18.5 -62.5 -18.5zM467 761c-30 0 -50.833 6.16699 -62.5 18.5s-17.5 27.166 -17.5 44.499v25c0 17.333 5.83301 32.166 17.5 44.499s32.5 18.5 62.5 18.5s50.833 -6.16699 62.5 -18.5
s17.5 -27.166 17.5 -44.499v-25c0 -17.333 -5.83301 -32.166 -17.5 -44.499s-32.5 -18.5 -62.5 -18.5z" />
    <glyph glyph-name="multiply" unicode="&#xd7;" 
d="M300 217l-139 -146l-82 82l139 146l-139 146l82 82l139 -146l139 146l82 -82l-139 -146l139 -146l-82 -82z" />
    <glyph glyph-name="Oslash" unicode="&#xd8;" horiz-adv-x="714" 
d="M357 -12c-56 0 -106 11.333 -150 34l-53 -78l-92 59l61 90c-23.333 30 -41.333 66.333 -54 109s-19 91.667 -19 147c0 59.333 7.33301 111.5 22 156.5s35.334 82.667 62.001 113s59 53.166 97 68.499s80 23 126 23c56 0 106 -11.333 150 -34l53 78l92 -59l-61 -90
c23.333 -30 41.333 -66.333 54 -109s19 -91.667 19 -147c0 -59.333 -7.33301 -111.5 -22 -156.5s-35.334 -82.667 -62.001 -113s-59 -53.166 -97 -68.499s-80 -23 -126 -23zM204 294c0 -31.333 4 -59 12 -83l223 354c-22 14 -49.333 21 -82 21
c-48 0 -85.5 -15.667 -112.5 -47s-40.5 -76.333 -40.5 -135v-110zM510 404c0 31.333 -4 59 -12 83l-223 -354c22 -14 49.333 -21 82 -21c48 0 85.5 15.667 112.5 47s40.5 76.333 40.5 135v110z" />
    <glyph glyph-name="Ugrave" unicode="&#xd9;" horiz-adv-x="694" 
d="M221 698l0.00195312 -428c0 -49.333 9.66699 -86.166 29 -110.499s51.666 -36.5 96.999 -36.5s77.666 12.167 96.999 36.5s29 61.166 29 110.499v428h148v-412c0 -51.333 -4.83301 -95.833 -14.5 -133.5s-25.5 -68.667 -47.5 -93s-50.333 -42.333 -85 -54
s-77 -17.5 -127 -17.5s-92.333 5.83301 -127 17.5s-63 29.667 -85 54s-37.833 55.333 -47.5 93s-14.5 82.167 -14.5 133.5v412h148zM197.002 916l123 61l99 -194l-88 -43z" />
    <glyph glyph-name="Uacute" unicode="&#xda;" horiz-adv-x="694" 
d="M221 698l0.00195312 -428c0 -49.333 9.66699 -86.166 29 -110.499s51.666 -36.5 96.999 -36.5s77.666 12.167 96.999 36.5s29 61.166 29 110.499v428h148v-412c0 -51.333 -4.83301 -95.833 -14.5 -133.5s-25.5 -68.667 -47.5 -93s-50.333 -42.333 -85 -54
s-77 -17.5 -127 -17.5s-92.333 5.83301 -127 17.5s-63 29.667 -85 54s-37.833 55.333 -47.5 93s-14.5 82.167 -14.5 133.5v412h148zM363.002 740l-88 43l99 194l123 -61z" />
    <glyph glyph-name="Ucircumflex" unicode="&#xdb;" horiz-adv-x="694" 
d="M221 698l0.00195312 -428c0 -49.333 9.66699 -86.166 29 -110.499s51.666 -36.5 96.999 -36.5s77.666 12.167 96.999 36.5s29 61.166 29 110.499v428h148v-412c0 -51.333 -4.83301 -95.833 -14.5 -133.5s-25.5 -68.667 -47.5 -93s-50.333 -42.333 -85 -54
s-77 -17.5 -127 -17.5s-92.333 5.83301 -127 17.5s-63 29.667 -85 54s-37.833 55.333 -47.5 93s-14.5 82.167 -14.5 133.5v412h148zM409.002 956l132 -159l-73 -58l-121 115l-121 -115l-73 58l132 159h124z" />
    <glyph glyph-name="Udieresis" unicode="&#xdc;" horiz-adv-x="694" 
d="M221 698l0.00195312 -428c0 -49.333 9.66699 -86.166 29 -110.499s51.666 -36.5 96.999 -36.5s77.666 12.167 96.999 36.5s29 61.166 29 110.499v428h148v-412c0 -51.333 -4.83301 -95.833 -14.5 -133.5s-25.5 -68.667 -47.5 -93s-50.333 -42.333 -85 -54
s-77 -17.5 -127 -17.5s-92.333 5.83301 -127 17.5s-63 29.667 -85 54s-37.833 55.333 -47.5 93s-14.5 82.167 -14.5 133.5v412h148zM237.002 761c-30 0 -50.833 6.16699 -62.5 18.5s-17.5 27.166 -17.5 44.499v25c0 17.333 5.83301 32.166 17.5 44.499s32.5 18.5 62.5 18.5
s50.833 -6.16699 62.5 -18.5s17.5 -27.166 17.5 -44.499v-25c0 -17.333 -5.83301 -32.166 -17.5 -44.499s-32.5 -18.5 -62.5 -18.5zM457.002 761c-30 0 -50.833 6.16699 -62.5 18.5s-17.5 27.166 -17.5 44.499v25c0 17.333 5.83301 32.166 17.5 44.499s32.5 18.5 62.5 18.5
s50.833 -6.16699 62.5 -18.5s17.5 -27.166 17.5 -44.499v-25c0 -17.333 -5.83301 -32.166 -17.5 -44.499s-32.5 -18.5 -62.5 -18.5z" />
    <glyph glyph-name="Yacute" unicode="&#xdd;" horiz-adv-x="649" 
d="M248 0v273l-239 425h170l150 -278h2l144 278h165l-239 -424v-274h-153zM341 740l-88 43l99 194l123 -61z" />
    <glyph glyph-name="Thorn" unicode="&#xde;" horiz-adv-x="656" 
d="M77 0v698h152v-120h178c32.667 0 62 -5.5 88 -16.5s48.167 -26.333 66.5 -46s32.5 -43.167 42.5 -70.5s15 -57.333 15 -90s-5 -62.667 -15 -90s-24.167 -50.833 -42.5 -70.5s-40.5 -35 -66.5 -46s-55.333 -16.5 -88 -16.5h-178v-132h-152zM229 264l160 -0.00195312
c22.667 0 40.5 5.83301 53.5 17.5s19.5 28.834 19.5 51.501v44c0 22.667 -6.5 39.834 -19.5 51.501s-30.833 17.5 -53.5 17.5h-160v-182z" />
    <glyph glyph-name="germandbls" unicode="&#xdf;" horiz-adv-x="692" 
d="M667 173c0 -28.667 -4.83203 -54.332 -14.499 -76.999s-23 -42 -40 -58s-37.333 -28.333 -61 -37s-49.834 -13 -78.501 -13c-42 0 -78.667 6 -110 18s-56.666 31 -75.999 57l84 86c15.333 -18 31 -31 47 -39s33.667 -12 53 -12c18 0 32.5 4.83301 43.5 14.5
s16.5 23.834 16.5 42.501c0 17.333 -5.16699 30.5 -15.5 39.5s-27.166 17.167 -50.499 24.5l-31 10c-34.667 11.333 -62 28.166 -82 50.499s-30 53.833 -30 94.5c0 40 12.333 73.333 37 100s59.334 45 104.001 55v2c0 38.667 -9.16699 66.834 -27.5 84.501
s-45.833 26.5 -82.5 26.5s-64.167 -8.83301 -82.5 -26.5s-27.5 -45.834 -27.5 -84.501v-531h-148v410h-74v115h74v4c0 34.667 6.16699 65.834 18.5 93.501s29.666 51.167 51.999 70.5s49.166 34 80.499 44s65.666 15 102.999 15s71.333 -5 102 -15s57 -24.333 79 -43
s39 -41.834 51 -69.501s18 -58.834 18 -93.501v-97h-56c-31.333 0 -53.333 -3.5 -66 -10.5s-19 -19.167 -19 -36.5c0 -16 5 -27.5 15 -34.5s25.667 -14.167 47 -21.5l31 -10c36 -11.333 64.333 -28.5 85 -51.5s31 -55.167 31 -96.5z" />
    <glyph glyph-name="agrave" unicode="&#xe0;" horiz-adv-x="569" 
d="M457 0c-26.667 0 -48.832 8.33398 -66.499 25.001s-28.834 39 -33.501 67h-6c-8 -34 -25.667 -59.833 -53 -77.5s-61 -26.5 -101 -26.5c-52.667 0 -93 14 -121 42s-42 65 -42 111c0 55.333 20.167 96.5 60.5 123.5s95.166 40.5 164.499 40.5h83v33
c0 25.333 -6.66699 45.5 -20 60.5s-35.666 22.5 -66.999 22.5c-29.333 0 -52.666 -6.33301 -69.999 -19s-31.666 -27 -42.999 -43l-88 78c21.333 31.333 48.166 55.833 80.499 73.5s76.166 26.5 131.499 26.5c74.667 0 130.667 -16.333 168 -49s56 -80.334 56 -143.001v-230
h49v-115h-82zM252.002 91.001c24.667 0 45.833 5.33301 63.5 16s26.5 28 26.5 52v62h-72c-58 0 -87 -19.667 -87 -59v-15c0 -19.333 6 -33.5 18 -42.5s29 -13.5 51 -13.5zM119.001 755.001l123 61l99 -194l-88 -43z" />
    <glyph glyph-name="aacute" unicode="&#xe1;" horiz-adv-x="569" 
d="M457 0c-26.667 0 -48.832 8.33398 -66.499 25.001s-28.834 39 -33.501 67h-6c-8 -34 -25.667 -59.833 -53 -77.5s-61 -26.5 -101 -26.5c-52.667 0 -93 14 -121 42s-42 65 -42 111c0 55.333 20.167 96.5 60.5 123.5s95.166 40.5 164.499 40.5h83v33
c0 25.333 -6.66699 45.5 -20 60.5s-35.666 22.5 -66.999 22.5c-29.333 0 -52.666 -6.33301 -69.999 -19s-31.666 -27 -42.999 -43l-88 78c21.333 31.333 48.166 55.833 80.499 73.5s76.166 26.5 131.499 26.5c74.667 0 130.667 -16.333 168 -49s56 -80.334 56 -143.001v-230
h49v-115h-82zM252.002 91.001c24.667 0 45.833 5.33301 63.5 16s26.5 28 26.5 52v62h-72c-58 0 -87 -19.667 -87 -59v-15c0 -19.333 6 -33.5 18 -42.5s29 -13.5 51 -13.5zM285.001 579.001l-88 43l99 194l123 -61z" />
    <glyph glyph-name="acircumflex" unicode="&#xe2;" horiz-adv-x="569" 
d="M457 0c-26.667 0 -48.832 8.33398 -66.499 25.001s-28.834 39 -33.501 67h-6c-8 -34 -25.667 -59.833 -53 -77.5s-61 -26.5 -101 -26.5c-52.667 0 -93 14 -121 42s-42 65 -42 111c0 55.333 20.167 96.5 60.5 123.5s95.166 40.5 164.499 40.5h83v33
c0 25.333 -6.66699 45.5 -20 60.5s-35.666 22.5 -66.999 22.5c-29.333 0 -52.666 -6.33301 -69.999 -19s-31.666 -27 -42.999 -43l-88 78c21.333 31.333 48.166 55.833 80.499 73.5s76.166 26.5 131.499 26.5c74.667 0 130.667 -16.333 168 -49s56 -80.334 56 -143.001v-230
h49v-115h-82zM252.002 91.001c24.667 0 45.833 5.33301 63.5 16s26.5 28 26.5 52v62h-72c-58 0 -87 -19.667 -87 -59v-15c0 -19.333 6 -33.5 18 -42.5s29 -13.5 51 -13.5zM331.001 795.001l132 -159l-73 -58l-121 115l-121 -115l-73 58l132 159h124z" />
    <glyph glyph-name="atilde" unicode="&#xe3;" horiz-adv-x="569" 
d="M457 0c-26.667 0 -48.832 8.33398 -66.499 25.001s-28.834 39 -33.501 67h-6c-8 -34 -25.667 -59.833 -53 -77.5s-61 -26.5 -101 -26.5c-52.667 0 -93 14 -121 42s-42 65 -42 111c0 55.333 20.167 96.5 60.5 123.5s95.166 40.5 164.499 40.5h83v33
c0 25.333 -6.66699 45.5 -20 60.5s-35.666 22.5 -66.999 22.5c-29.333 0 -52.666 -6.33301 -69.999 -19s-31.666 -27 -42.999 -43l-88 78c21.333 31.333 48.166 55.833 80.499 73.5s76.166 26.5 131.499 26.5c74.667 0 130.667 -16.333 168 -49s56 -80.334 56 -143.001v-230
h49v-115h-82zM252.002 91.001c24.667 0 45.833 5.33301 63.5 16s26.5 28 26.5 52v62h-72c-58 0 -87 -19.667 -87 -59v-15c0 -19.333 6 -33.5 18 -42.5s29 -13.5 51 -13.5zM345.001 601.001c-15.333 0 -28.833 2 -40.5 6s-23.834 8.66699 -36.501 14
c-14.667 6 -28 11.167 -40 15.5s-24.667 6.5 -38 6.5c-11.333 0 -21.333 -2 -30 -6s-18.334 -10.333 -29.001 -19l-52 68c12 18 27.333 33.167 46 45.5s41.334 18.5 68.001 18.5c15.333 0 28.833 -2 40.5 -6s23.834 -8.66699 36.501 -14c14.667 -6 28 -11.167 40 -15.5
s24.667 -6.5 38 -6.5c11.333 0 21.333 2 30 6s18.334 10.333 29.001 19l52 -68c-12 -18 -27.333 -33.167 -46 -45.5s-41.334 -18.5 -68.001 -18.5z" />
    <glyph glyph-name="adieresis" unicode="&#xe4;" horiz-adv-x="569" 
d="M457 0c-26.667 0 -48.832 8.33398 -66.499 25.001s-28.834 39 -33.501 67h-6c-8 -34 -25.667 -59.833 -53 -77.5s-61 -26.5 -101 -26.5c-52.667 0 -93 14 -121 42s-42 65 -42 111c0 55.333 20.167 96.5 60.5 123.5s95.166 40.5 164.499 40.5h83v33
c0 25.333 -6.66699 45.5 -20 60.5s-35.666 22.5 -66.999 22.5c-29.333 0 -52.666 -6.33301 -69.999 -19s-31.666 -27 -42.999 -43l-88 78c21.333 31.333 48.166 55.833 80.499 73.5s76.166 26.5 131.499 26.5c74.667 0 130.667 -16.333 168 -49s56 -80.334 56 -143.001v-230
h49v-115h-82zM252.002 91.001c24.667 0 45.833 5.33301 63.5 16s26.5 28 26.5 52v62h-72c-58 0 -87 -19.667 -87 -59v-15c0 -19.333 6 -33.5 18 -42.5s29 -13.5 51 -13.5zM159.001 600.001c-30 0 -50.833 6.16699 -62.5 18.5s-17.5 27.166 -17.5 44.499v25
c0 17.333 5.83301 32.166 17.5 44.499s32.5 18.5 62.5 18.5s50.833 -6.16699 62.5 -18.5s17.5 -27.166 17.5 -44.499v-25c0 -17.333 -5.83301 -32.166 -17.5 -44.499s-32.5 -18.5 -62.5 -18.5zM379.001 600.001c-30 0 -50.833 6.16699 -62.5 18.5s-17.5 27.166 -17.5 44.499
v25c0 17.333 5.83301 32.166 17.5 44.499s32.5 18.5 62.5 18.5s50.833 -6.16699 62.5 -18.5s17.5 -27.166 17.5 -44.499v-25c0 -17.333 -5.83301 -32.166 -17.5 -44.499s-32.5 -18.5 -62.5 -18.5z" />
    <glyph glyph-name="aring" unicode="&#xe5;" horiz-adv-x="569" 
d="M457 0c-26.667 0 -48.832 8.33398 -66.499 25.001s-28.834 39 -33.501 67h-6c-8 -34 -25.667 -59.833 -53 -77.5s-61 -26.5 -101 -26.5c-52.667 0 -93 14 -121 42s-42 65 -42 111c0 55.333 20.167 96.5 60.5 123.5s95.166 40.5 164.499 40.5h83v33
c0 25.333 -6.66699 45.5 -20 60.5s-35.666 22.5 -66.999 22.5c-29.333 0 -52.666 -6.33301 -69.999 -19s-31.666 -27 -42.999 -43l-88 78c21.333 31.333 48.166 55.833 80.499 73.5s76.166 26.5 131.499 26.5c74.667 0 130.667 -16.333 168 -49s56 -80.334 56 -143.001v-230
h49v-115h-82zM252.002 91.001c24.667 0 45.833 5.33301 63.5 16s26.5 28 26.5 52v62h-72c-58 0 -87 -19.667 -87 -59v-15c0 -19.333 6 -33.5 18 -42.5s29 -13.5 51 -13.5zM269.001 558.001c-20.667 0 -40 3.5 -58 10.5s-33.667 16.833 -47 29.5s-23.833 27.834 -31.5 45.501
s-11.5 36.834 -11.5 57.501s3.83301 39.834 11.5 57.501s18.167 32.834 31.5 45.501s29 22.5 47 29.5s37.333 10.5 58 10.5s40 -3.5 58 -10.5s33.667 -16.833 47 -29.5s23.833 -27.834 31.5 -45.501s11.5 -36.834 11.5 -57.501s-3.83301 -39.834 -11.5 -57.501
s-18.167 -32.834 -31.5 -45.501s-29 -22.5 -47 -29.5s-37.333 -10.5 -58 -10.5zM269.001 633.001c16.667 0 29.334 4.5 38.001 13.5s13 21.5 13 37.5v34c0 16 -4.33301 28.5 -13 37.5s-21.334 13.5 -38.001 13.5s-29.334 -4.5 -38.001 -13.5s-13 -21.5 -13 -37.5v-34
c0 -16 4.33301 -28.5 13 -37.5s21.334 -13.5 38.001 -13.5z" />
    <glyph glyph-name="ae" unicode="&#xe6;" horiz-adv-x="864" 
d="M270 225c-26.667 0 -47.833 -5 -63.5 -15s-23.5 -24.667 -23.5 -44v-14c0 -40.667 23.667 -61 71 -61c23.333 0 43.833 5.33301 61.5 16s26.5 28 26.5 52v66h-72zM675.001 312v9.00098c0 32 -7.16699 57.833 -21.5 77.5s-36.5 29.5 -66.5 29.5
s-53.5 -9.83301 -70.5 -29.5s-25.5 -45.834 -25.5 -78.501v-8h184zM610.001 106.001c30.667 0 56.165 6.33105 76.498 18.998s37.833 26.667 52.5 42l74 -92c-23.333 -27.333 -53.833 -48.666 -91.5 -63.999s-80.5 -23 -128.5 -23c-50 0 -93 9.83301 -129 29.5
s-61 44.167 -75 73.5h-6c-5.33301 -14 -12.833 -27.333 -22.5 -40s-22 -23.667 -37 -33s-32.833 -16.666 -53.5 -21.999s-44.667 -8 -72 -8c-26.667 0 -50.167 3.83301 -70.5 11.5s-37.5 18.5 -51.5 32.5s-24.5 30.5 -31.5 49.5s-10.5 39.833 -10.5 62.5
c0 28 5.5 52.5 16.5 73.5s26.5 38.5 46.5 52.5s43.833 24.5 71.5 31.5s57.834 10.5 90.501 10.5h83v26c0 25.333 -6.66699 45.5 -20 60.5s-35.666 22.5 -66.999 22.5c-29.333 0 -52.666 -6.33301 -69.999 -19s-31.666 -27 -42.999 -43l-88 78
c21.333 31.333 48.166 55.833 80.499 73.5s76.166 26.5 131.499 26.5c32 0 60.5 -5.83301 85.5 -17.5s45.833 -30.5 62.5 -56.5h6c16 25.333 38.5 44 67.5 56s62.5 18 100.5 18c43.333 0 80.333 -7.33301 111 -22s55.5 -34.334 74.5 -59.001s32.833 -53.167 41.5 -85.5
s13 -66.166 13 -101.499v-44h-338v-8c0 -34 10.5 -61 31.5 -81s50.5 -30 88.5 -30z" />
    <glyph glyph-name="ccedilla" unicode="&#xe7;" horiz-adv-x="517" 
d="M281 537c53.333 0 97.833 -12.001 133.5 -36.001s61.167 -57.667 76.5 -101l-120 -52c-4.66699 20 -14.334 37 -29.001 51s-35 21 -61 21c-30 0 -52.667 -9.83301 -68 -29.5s-23 -46.167 -23 -79.5v-98c0 -33.333 7.66699 -59.666 23 -78.999s38 -29 68 -29
c26.667 0 47.834 7.16699 63.501 21.5s27.167 33.166 34.5 56.499l115 -50c-17.333 -48.667 -43.333 -84.667 -78 -108s-76.334 -35.666 -125.001 -36.999l-9 -43l4 -4c8 2 16 3.66699 24 5s16 2 24 2c20 0 37.167 -5.33301 51.5 -16s21.5 -28.334 21.5 -53.001
c0 -17.333 -3.66699 -31.666 -11 -42.999s-17.166 -20.666 -29.499 -27.999s-26.5 -12.5 -42.5 -15.5s-32.333 -4.5 -49 -4.5c-34.667 0 -61.834 4.83301 -81.501 14.5s-33.834 19.5 -42.501 29.5l46 56c6.66699 -8 15.5 -14.833 26.5 -20.5s24.167 -8.5 39.5 -8.5
c12.667 0 23.167 2 31.5 6s12.5 10.333 12.5 19c0 4 -1 8 -3 12s-5.83301 7.83301 -11.5 11.5s-13.334 7 -23.001 10s-22.167 5.16699 -37.5 6.5l-21 2l14 67c-61.333 11.333 -108.166 40.666 -140.499 87.999s-48.5 108 -48.5 182c0 42 5.33301 79.833 16 113.5
s26.334 62.5 47.001 86.5s46.334 42.333 77.001 55s65.667 19 105 19z" />
    <glyph glyph-name="egrave" unicode="&#xe8;" horiz-adv-x="562" 
d="M288 -12c-40 0 -75.667 6.5 -107 19.5s-57.833 31.333 -79.5 55s-38 52.5 -49 86.5s-16.5 72 -16.5 114c0 41.333 5.33301 78.833 16 112.5s26.5 62.5 47.5 86.5s46.833 42.5 77.5 55.5s65.667 19.5 105 19.5c43.333 0 80.5 -7.33301 111.5 -22
s56.333 -34.334 76 -59.001s34 -53.167 43 -85.5s13.5 -66.166 13.5 -101.499v-44h-337v-8c0 -34.667 9.33301 -62.167 28 -82.5s48 -30.5 88 -30.5c30.667 0 55.667 6.16699 75 18.5s37.333 27.166 54 44.499l74 -92c-23.333 -27.333 -53.833 -48.666 -91.5 -63.999
s-80.5 -23 -128.5 -23zM285 428c-30 0 -53.5 -9.83203 -70.5 -29.499s-25.5 -45.834 -25.5 -78.501v-8h184v9c0 32 -7.16699 57.833 -21.5 77.5s-36.5 29.5 -66.5 29.5zM138 755.001l123 61l99 -194l-88 -43z" />
    <glyph glyph-name="eacute" unicode="&#xe9;" horiz-adv-x="562" 
d="M288 -12c-40 0 -75.667 6.5 -107 19.5s-57.833 31.333 -79.5 55s-38 52.5 -49 86.5s-16.5 72 -16.5 114c0 41.333 5.33301 78.833 16 112.5s26.5 62.5 47.5 86.5s46.833 42.5 77.5 55.5s65.667 19.5 105 19.5c43.333 0 80.5 -7.33301 111.5 -22
s56.333 -34.334 76 -59.001s34 -53.167 43 -85.5s13.5 -66.166 13.5 -101.499v-44h-337v-8c0 -34.667 9.33301 -62.167 28 -82.5s48 -30.5 88 -30.5c30.667 0 55.667 6.16699 75 18.5s37.333 27.166 54 44.499l74 -92c-23.333 -27.333 -53.833 -48.666 -91.5 -63.999
s-80.5 -23 -128.5 -23zM285 428c-30 0 -53.5 -9.83203 -70.5 -29.499s-25.5 -45.834 -25.5 -78.501v-8h184v9c0 32 -7.16699 57.833 -21.5 77.5s-36.5 29.5 -66.5 29.5zM304 579.001l-88 43l99 194l123 -61z" />
    <glyph glyph-name="ecircumflex" unicode="&#xea;" horiz-adv-x="562" 
d="M288 -12c-40 0 -75.667 6.5 -107 19.5s-57.833 31.333 -79.5 55s-38 52.5 -49 86.5s-16.5 72 -16.5 114c0 41.333 5.33301 78.833 16 112.5s26.5 62.5 47.5 86.5s46.833 42.5 77.5 55.5s65.667 19.5 105 19.5c43.333 0 80.5 -7.33301 111.5 -22
s56.333 -34.334 76 -59.001s34 -53.167 43 -85.5s13.5 -66.166 13.5 -101.499v-44h-337v-8c0 -34.667 9.33301 -62.167 28 -82.5s48 -30.5 88 -30.5c30.667 0 55.667 6.16699 75 18.5s37.333 27.166 54 44.499l74 -92c-23.333 -27.333 -53.833 -48.666 -91.5 -63.999
s-80.5 -23 -128.5 -23zM285 428c-30 0 -53.5 -9.83203 -70.5 -29.499s-25.5 -45.834 -25.5 -78.501v-8h184v9c0 32 -7.16699 57.833 -21.5 77.5s-36.5 29.5 -66.5 29.5zM350 795.001l132 -159l-73 -58l-121 115l-121 -115l-73 58l132 159h124z" />
    <glyph glyph-name="edieresis" unicode="&#xeb;" horiz-adv-x="562" 
d="M288 -12c-40 0 -75.667 6.5 -107 19.5s-57.833 31.333 -79.5 55s-38 52.5 -49 86.5s-16.5 72 -16.5 114c0 41.333 5.33301 78.833 16 112.5s26.5 62.5 47.5 86.5s46.833 42.5 77.5 55.5s65.667 19.5 105 19.5c43.333 0 80.5 -7.33301 111.5 -22
s56.333 -34.334 76 -59.001s34 -53.167 43 -85.5s13.5 -66.166 13.5 -101.499v-44h-337v-8c0 -34.667 9.33301 -62.167 28 -82.5s48 -30.5 88 -30.5c30.667 0 55.667 6.16699 75 18.5s37.333 27.166 54 44.499l74 -92c-23.333 -27.333 -53.833 -48.666 -91.5 -63.999
s-80.5 -23 -128.5 -23zM285 428c-30 0 -53.5 -9.83203 -70.5 -29.499s-25.5 -45.834 -25.5 -78.501v-8h184v9c0 32 -7.16699 57.833 -21.5 77.5s-36.5 29.5 -66.5 29.5zM178 600.001c-30 0 -50.833 6.16699 -62.5 18.5s-17.5 27.166 -17.5 44.499v25
c0 17.333 5.83301 32.166 17.5 44.499s32.5 18.5 62.5 18.5s50.833 -6.16699 62.5 -18.5s17.5 -27.166 17.5 -44.499v-25c0 -17.333 -5.83301 -32.166 -17.5 -44.499s-32.5 -18.5 -62.5 -18.5zM398 600.001c-30 0 -50.833 6.16699 -62.5 18.5s-17.5 27.166 -17.5 44.499v25
c0 17.333 5.83301 32.166 17.5 44.499s32.5 18.5 62.5 18.5s50.833 -6.16699 62.5 -18.5s17.5 -27.166 17.5 -44.499v-25c0 -17.333 -5.83301 -32.166 -17.5 -44.499s-32.5 -18.5 -62.5 -18.5z" />
    <glyph glyph-name="igrave" unicode="&#xec;" horiz-adv-x="286" 
d="M69 0v525h148v-525h-148zM-6 755l123 61l99 -194l-88 -43z" />
    <glyph glyph-name="iacute" unicode="&#xed;" horiz-adv-x="286" 
d="M69 0v525h148v-525h-148zM160 579l-88 43l99 194l123 -61z" />
    <glyph glyph-name="icircumflex" unicode="&#xee;" horiz-adv-x="286" 
d="M69 0v525h148v-525h-148zM206 795l132 -159l-73 -58l-121 115l-121 -115l-73 58l132 159h124z" />
    <glyph glyph-name="idieresis" unicode="&#xef;" horiz-adv-x="286" 
d="M69 0v525h148v-525h-148zM34 600c-30 0 -50.833 6.16699 -62.5 18.5s-17.5 27.166 -17.5 44.499v25c0 17.333 5.83301 32.166 17.5 44.499s32.5 18.5 62.5 18.5s50.833 -6.16699 62.5 -18.5s17.5 -27.166 17.5 -44.499v-25c0 -17.333 -5.83301 -32.166 -17.5 -44.499
s-32.5 -18.5 -62.5 -18.5zM254 600c-30 0 -50.833 6.16699 -62.5 18.5s-17.5 27.166 -17.5 44.499v25c0 17.333 5.83301 32.166 17.5 44.499s32.5 18.5 62.5 18.5s50.833 -6.16699 62.5 -18.5s17.5 -27.166 17.5 -44.499v-25c0 -17.333 -5.83301 -32.166 -17.5 -44.499
s-32.5 -18.5 -62.5 -18.5z" />
    <glyph glyph-name="eth" unicode="&#xf0;" horiz-adv-x="603" 
d="M479 693l-72.998 -44.001c48 -50 84.833 -106.167 110.5 -168.5s38.5 -129.833 38.5 -202.5c0 -50.667 -6.16699 -94.334 -18.5 -131.001s-29.666 -66.667 -51.999 -90s-49 -40.666 -80 -51.999s-65.5 -17 -103.5 -17c-40.667 0 -77.167 6.16699 -109.5 18.5
s-59.666 29.833 -81.999 52.5s-39.333 50.334 -51 83.001s-17.5 69.667 -17.5 111c0 37.333 4.66699 71.166 14 101.499s22.666 56.333 39.999 78s38.166 38.334 62.499 50.001s51.5 17.5 81.5 17.5c37.333 0 68.666 -8.83301 93.999 -26.5s46 -41.5 62 -71.5l7 3
c-9.33301 32 -23.5 62.5 -42.5 91.5s-42.167 57.167 -69.5 84.5l-89 -53l-51 60l80 47c-24.667 20 -50.334 38.667 -77.001 56s-54 33.666 -82 48.999h226c8.66699 -5.33301 17 -11.166 25 -17.499l24 -18.5l83 49zM298.002 97.999c32 0 57.333 10.167 76 30.5
s28 49.5 28 87.5v54c0 38 -9.33301 67.167 -28 87.5s-44 30.5 -76 30.5s-57.333 -10.167 -76 -30.5s-28 -49.5 -28 -87.5v-54c0 -38 9.33301 -67.167 28 -87.5s44 -30.5 76 -30.5z" />
    <glyph glyph-name="ntilde" unicode="&#xf1;" horiz-adv-x="596" 
d="M69 0l0.00195312 525.002h148v-89h6c9.33301 27.333 25.666 51 48.999 71s55.666 30 96.999 30c54 0 94.833 -18 122.5 -54s41.5 -87.333 41.5 -154v-329h-148v317c0 34 -5.33301 59.167 -16 75.5s-29.667 24.5 -57 24.5c-12 0 -23.667 -1.5 -35 -4.5
s-21.5 -7.83301 -30.5 -14.5s-16.167 -14.834 -21.5 -24.501s-8 -20.834 -8 -33.501v-340h-148zM376.002 601.002c-15.333 0 -28.833 2 -40.5 6s-23.834 8.66699 -36.501 14c-14.667 6 -28 11.167 -40 15.5s-24.667 6.5 -38 6.5c-11.333 0 -21.333 -2 -30 -6
s-18.334 -10.333 -29.001 -19l-52 68c12 18 27.333 33.167 46 45.5s41.334 18.5 68.001 18.5c15.333 0 28.833 -2 40.5 -6s23.834 -8.66699 36.501 -14c14.667 -6 28 -11.167 40 -15.5s24.667 -6.5 38 -6.5c11.333 0 21.333 2 30 6s18.334 10.333 29.001 19l52 -68
c-12 -18 -27.333 -33.167 -46 -45.5s-41.334 -18.5 -68.001 -18.5z" />
    <glyph glyph-name="ograve" unicode="&#xf2;" horiz-adv-x="564" 
d="M282 -12c-38.667 0 -73.167 6.33301 -103.5 19s-56 31 -77 55s-37.167 53 -48.5 87s-17 72 -17 114s5.66699 80 17 114s27.5 62.833 48.5 86.5s46.667 41.834 77 54.501s64.833 19 103.5 19s73.167 -6.33301 103.5 -19s56 -30.834 77 -54.501s37.167 -52.5 48.5 -86.5
s17 -72 17 -114s-5.66699 -80 -17 -114s-27.5 -63 -48.5 -87s-46.667 -42.333 -77 -55s-64.833 -19 -103.5 -19zM282 105c29.333 0 52 9 68 27s24 43.667 24 77v107c0 33.333 -8 59 -24 77s-38.667 27 -68 27s-52 -9 -68 -27s-24 -43.667 -24 -77v-107
c0 -33.333 8 -59 24 -77s38.667 -27 68 -27zM132 755l123 61l99 -194l-88 -43z" />
    <glyph glyph-name="oacute" unicode="&#xf3;" horiz-adv-x="564" 
d="M282 -12c-38.667 0 -73.167 6.33301 -103.5 19s-56 31 -77 55s-37.167 53 -48.5 87s-17 72 -17 114s5.66699 80 17 114s27.5 62.833 48.5 86.5s46.667 41.834 77 54.501s64.833 19 103.5 19s73.167 -6.33301 103.5 -19s56 -30.834 77 -54.501s37.167 -52.5 48.5 -86.5
s17 -72 17 -114s-5.66699 -80 -17 -114s-27.5 -63 -48.5 -87s-46.667 -42.333 -77 -55s-64.833 -19 -103.5 -19zM282 105c29.333 0 52 9 68 27s24 43.667 24 77v107c0 33.333 -8 59 -24 77s-38.667 27 -68 27s-52 -9 -68 -27s-24 -43.667 -24 -77v-107
c0 -33.333 8 -59 24 -77s38.667 -27 68 -27zM298 579l-88 43l99 194l123 -61z" />
    <glyph glyph-name="ocircumflex" unicode="&#xf4;" horiz-adv-x="564" 
d="M282 -12c-38.667 0 -73.167 6.33301 -103.5 19s-56 31 -77 55s-37.167 53 -48.5 87s-17 72 -17 114s5.66699 80 17 114s27.5 62.833 48.5 86.5s46.667 41.834 77 54.501s64.833 19 103.5 19s73.167 -6.33301 103.5 -19s56 -30.834 77 -54.501s37.167 -52.5 48.5 -86.5
s17 -72 17 -114s-5.66699 -80 -17 -114s-27.5 -63 -48.5 -87s-46.667 -42.333 -77 -55s-64.833 -19 -103.5 -19zM282 105c29.333 0 52 9 68 27s24 43.667 24 77v107c0 33.333 -8 59 -24 77s-38.667 27 -68 27s-52 -9 -68 -27s-24 -43.667 -24 -77v-107
c0 -33.333 8 -59 24 -77s38.667 -27 68 -27zM344 795l132 -159l-73 -58l-121 115l-121 -115l-73 58l132 159h124z" />
    <glyph glyph-name="otilde" unicode="&#xf5;" horiz-adv-x="564" 
d="M282 -12c-38.667 0 -73.167 6.33301 -103.5 19s-56 31 -77 55s-37.167 53 -48.5 87s-17 72 -17 114s5.66699 80 17 114s27.5 62.833 48.5 86.5s46.667 41.834 77 54.501s64.833 19 103.5 19s73.167 -6.33301 103.5 -19s56 -30.834 77 -54.501s37.167 -52.5 48.5 -86.5
s17 -72 17 -114s-5.66699 -80 -17 -114s-27.5 -63 -48.5 -87s-46.667 -42.333 -77 -55s-64.833 -19 -103.5 -19zM282 105c29.333 0 52 9 68 27s24 43.667 24 77v107c0 33.333 -8 59 -24 77s-38.667 27 -68 27s-52 -9 -68 -27s-24 -43.667 -24 -77v-107
c0 -33.333 8 -59 24 -77s38.667 -27 68 -27zM358 601c-15.333 0 -28.833 2 -40.5 6s-23.834 8.66699 -36.501 14c-14.667 6 -28 11.167 -40 15.5s-24.667 6.5 -38 6.5c-11.333 0 -21.333 -2 -30 -6s-18.334 -10.333 -29.001 -19l-52 68c12 18 27.333 33.167 46 45.5
s41.334 18.5 68.001 18.5c15.333 0 28.833 -2 40.5 -6s23.834 -8.66699 36.501 -14c14.667 -6 28 -11.167 40 -15.5s24.667 -6.5 38 -6.5c11.333 0 21.333 2 30 6s18.334 10.333 29.001 19l52 -68c-12 -18 -27.333 -33.167 -46 -45.5s-41.334 -18.5 -68.001 -18.5z" />
    <glyph glyph-name="odieresis" unicode="&#xf6;" horiz-adv-x="564" 
d="M282 -12c-38.667 0 -73.167 6.33301 -103.5 19s-56 31 -77 55s-37.167 53 -48.5 87s-17 72 -17 114s5.66699 80 17 114s27.5 62.833 48.5 86.5s46.667 41.834 77 54.501s64.833 19 103.5 19s73.167 -6.33301 103.5 -19s56 -30.834 77 -54.501s37.167 -52.5 48.5 -86.5
s17 -72 17 -114s-5.66699 -80 -17 -114s-27.5 -63 -48.5 -87s-46.667 -42.333 -77 -55s-64.833 -19 -103.5 -19zM282 105c29.333 0 52 9 68 27s24 43.667 24 77v107c0 33.333 -8 59 -24 77s-38.667 27 -68 27s-52 -9 -68 -27s-24 -43.667 -24 -77v-107
c0 -33.333 8 -59 24 -77s38.667 -27 68 -27zM172 600c-30 0 -50.833 6.16699 -62.5 18.5s-17.5 27.166 -17.5 44.499v25c0 17.333 5.83301 32.166 17.5 44.499s32.5 18.5 62.5 18.5s50.833 -6.16699 62.5 -18.5s17.5 -27.166 17.5 -44.499v-25
c0 -17.333 -5.83301 -32.166 -17.5 -44.499s-32.5 -18.5 -62.5 -18.5zM392 600c-30 0 -50.833 6.16699 -62.5 18.5s-17.5 27.166 -17.5 44.499v25c0 17.333 5.83301 32.166 17.5 44.499s32.5 18.5 62.5 18.5s50.833 -6.16699 62.5 -18.5s17.5 -27.166 17.5 -44.499v-25
c0 -17.333 -5.83301 -32.166 -17.5 -44.499s-32.5 -18.5 -62.5 -18.5z" />
    <glyph glyph-name="divide" unicode="&#xf7;" 
d="M67 247v118h465v-118h-465zM300 28c-31.333 0 -53.666 6.83301 -66.999 20.5s-20 29.834 -20 48.501v24c0 18.667 6.66699 34.834 20 48.501s35.666 20.5 66.999 20.5s53.666 -6.83301 66.999 -20.5s20 -29.834 20 -48.501v-24c0 -18.667 -6.66699 -34.834 -20 -48.501
s-35.666 -20.5 -66.999 -20.5zM300 420c-31.333 0 -53.666 6.83301 -66.999 20.5s-20 29.834 -20 48.501v24c0 18.667 6.66699 34.834 20 48.501s35.666 20.5 66.999 20.5s53.666 -6.83301 66.999 -20.5s20 -29.834 20 -48.501v-24c0 -18.667 -6.66699 -34.834 -20 -48.501
s-35.666 -20.5 -66.999 -20.5z" />
    <glyph glyph-name="oslash" unicode="&#xf8;" horiz-adv-x="572" 
d="M14 10l66.999 82.999c-27.333 45.333 -41 102 -41 170c0 42 5.66699 80 17 114s27.5 62.833 48.5 86.5s46.667 41.834 77 54.501s64.833 19 103.5 19c50 0 94 -11.333 132 -34l60 72l80 -60l-68 -84c28 -44 42 -100.333 42 -169c0 -42 -5.66699 -80 -17 -114
s-27.5 -62.833 -48.5 -86.5s-46.667 -41.834 -77 -54.501s-64.833 -19 -103.5 -19c-25.333 0 -49.166 2.83301 -71.499 8.5s-42.5 13.834 -60.5 24.501l-60 -71zM285.999 95.999c30.667 0 54.5 10.667 71.5 32s25.5 50 25.5 86v98l-161 -193c16.667 -15.333 38 -23 64 -23z
M188.999 213.999l160 192c-16.667 15.333 -37.667 23 -63 23c-30.667 0 -54.5 -10.667 -71.5 -32s-25.5 -50 -25.5 -86v-97z" />
    <glyph glyph-name="ugrave" unicode="&#xf9;" horiz-adv-x="596" 
d="M379 88h-4.99805c-4.66699 -13.333 -10.834 -26 -18.501 -38s-17.5 -22.667 -29.5 -32s-26.167 -16.666 -42.5 -21.999s-35.166 -8 -56.499 -8c-54 0 -94.833 17.833 -122.5 53.5s-41.5 86.834 -41.5 153.501v330h148v-317c0 -32 5.66699 -56.667 17 -74
s30.666 -26 57.999 -26c11.333 0 22.666 1.66699 33.999 5s21.333 8.16602 30 14.499s15.667 14.166 21 23.499s8 20.333 8 33v341h148v-525h-148v88zM146.002 755l123 61l99 -194l-88 -43z" />
    <glyph glyph-name="uacute" unicode="&#xfa;" horiz-adv-x="596" 
d="M379 88h-4.99805c-4.66699 -13.333 -10.834 -26 -18.501 -38s-17.5 -22.667 -29.5 -32s-26.167 -16.666 -42.5 -21.999s-35.166 -8 -56.499 -8c-54 0 -94.833 17.833 -122.5 53.5s-41.5 86.834 -41.5 153.501v330h148v-317c0 -32 5.66699 -56.667 17 -74
s30.666 -26 57.999 -26c11.333 0 22.666 1.66699 33.999 5s21.333 8.16602 30 14.499s15.667 14.166 21 23.499s8 20.333 8 33v341h148v-525h-148v88zM312.002 579l-88 43l99 194l123 -61z" />
    <glyph glyph-name="ucircumflex" unicode="&#xfb;" horiz-adv-x="596" 
d="M379 88h-4.99805c-4.66699 -13.333 -10.834 -26 -18.501 -38s-17.5 -22.667 -29.5 -32s-26.167 -16.666 -42.5 -21.999s-35.166 -8 -56.499 -8c-54 0 -94.833 17.833 -122.5 53.5s-41.5 86.834 -41.5 153.501v330h148v-317c0 -32 5.66699 -56.667 17 -74
s30.666 -26 57.999 -26c11.333 0 22.666 1.66699 33.999 5s21.333 8.16602 30 14.499s15.667 14.166 21 23.499s8 20.333 8 33v341h148v-525h-148v88zM358.002 795l132 -159l-73 -58l-121 115l-121 -115l-73 58l132 159h124z" />
    <glyph glyph-name="udieresis" unicode="&#xfc;" horiz-adv-x="596" 
d="M379 88h-4.99805c-4.66699 -13.333 -10.834 -26 -18.501 -38s-17.5 -22.667 -29.5 -32s-26.167 -16.666 -42.5 -21.999s-35.166 -8 -56.499 -8c-54 0 -94.833 17.833 -122.5 53.5s-41.5 86.834 -41.5 153.501v330h148v-317c0 -32 5.66699 -56.667 17 -74
s30.666 -26 57.999 -26c11.333 0 22.666 1.66699 33.999 5s21.333 8.16602 30 14.499s15.667 14.166 21 23.499s8 20.333 8 33v341h148v-525h-148v88zM186.002 600c-30 0 -50.833 6.16699 -62.5 18.5s-17.5 27.166 -17.5 44.499v25c0 17.333 5.83301 32.166 17.5 44.499
s32.5 18.5 62.5 18.5s50.833 -6.16699 62.5 -18.5s17.5 -27.166 17.5 -44.499v-25c0 -17.333 -5.83301 -32.166 -17.5 -44.499s-32.5 -18.5 -62.5 -18.5zM406.002 600c-30 0 -50.833 6.16699 -62.5 18.5s-17.5 27.166 -17.5 44.499v25c0 17.333 5.83301 32.166 17.5 44.499
s32.5 18.5 62.5 18.5s50.833 -6.16699 62.5 -18.5s17.5 -27.166 17.5 -44.499v-25c0 -17.333 -5.83301 -32.166 -17.5 -44.499s-32.5 -18.5 -62.5 -18.5z" />
    <glyph glyph-name="yacute" unicode="&#xfd;" horiz-adv-x="534" 
d="M390 525h137.998l-202 -606c-13.333 -40.667 -32.166 -70.667 -56.499 -90s-59.166 -29 -104.499 -29h-92v115h99l18 58l-184 552h147l77 -245l38 -152h6l39 152zM287.998 579l-88 43l99 194l123 -61z" />
    <glyph glyph-name="thorn" unicode="&#xfe;" horiz-adv-x="608" 
d="M69 740h147.999v-303h5c7.33301 29.333 24.166 53.333 50.499 72s56.5 28 90.5 28c66.667 0 117 -23.333 151 -70s51 -114.667 51 -204s-17 -157.5 -51 -204.5s-84.333 -70.5 -151 -70.5c-17.333 0 -33.666 2.5 -48.999 7.5s-29.166 12 -41.499 21
s-22.833 19.667 -31.5 32s-15 25.5 -19 39.5h-5v-288h-148v940zM313.999 108c28 0 51.167 9.83301 69.5 29.5s27.5 46.167 27.5 79.5v91c0 33.333 -9.16699 59.833 -27.5 79.5s-41.5 29.5 -69.5 29.5s-51.167 -6.83301 -69.5 -20.5s-27.5 -32.5 -27.5 -56.5v-155
c0 -24 9.16699 -42.833 27.5 -56.5s41.5 -20.5 69.5 -20.5z" />
    <glyph glyph-name="ydieresis" unicode="&#xff;" horiz-adv-x="534" 
d="M390 525h137.998l-202 -606c-13.333 -40.667 -32.166 -70.667 -56.499 -90s-59.166 -29 -104.499 -29h-92v115h99l18 58l-184 552h147l77 -245l38 -152h6l39 152zM161.998 600c-30 0 -50.833 6.16699 -62.5 18.5s-17.5 27.166 -17.5 44.499v25
c0 17.333 5.83301 32.166 17.5 44.499s32.5 18.5 62.5 18.5s50.833 -6.16699 62.5 -18.5s17.5 -27.166 17.5 -44.499v-25c0 -17.333 -5.83301 -32.166 -17.5 -44.499s-32.5 -18.5 -62.5 -18.5zM381.998 600c-30 0 -50.833 6.16699 -62.5 18.5s-17.5 27.166 -17.5 44.499v25
c0 17.333 5.83301 32.166 17.5 44.499s32.5 18.5 62.5 18.5s50.833 -6.16699 62.5 -18.5s17.5 -27.166 17.5 -44.499v-25c0 -17.333 -5.83301 -32.166 -17.5 -44.499s-32.5 -18.5 -62.5 -18.5z" />
    <glyph glyph-name="Amacron" unicode="&#x100;" horiz-adv-x="685" 
d="M507 0l-50 166h-233l-50 -166h-154l230 698h188l227 -698h-158zM342 560h-5l-77 -265h160zM186 888h306v-103h-306v103z" />
    <glyph glyph-name="amacron" unicode="&#x101;" horiz-adv-x="569" 
d="M457 0c-26.667 0 -48.832 8.33398 -66.499 25.001s-28.834 39 -33.501 67h-6c-8 -34 -25.667 -59.833 -53 -77.5s-61 -26.5 -101 -26.5c-52.667 0 -93 14 -121 42s-42 65 -42 111c0 55.333 20.167 96.5 60.5 123.5s95.166 40.5 164.499 40.5h83v33
c0 25.333 -6.66699 45.5 -20 60.5s-35.666 22.5 -66.999 22.5c-29.333 0 -52.666 -6.33301 -69.999 -19s-31.666 -27 -42.999 -43l-88 78c21.333 31.333 48.166 55.833 80.499 73.5s76.166 26.5 131.499 26.5c74.667 0 130.667 -16.333 168 -49s56 -80.334 56 -143.001v-230
h49v-115h-82zM252.002 91.001c24.667 0 45.833 5.33301 63.5 16s26.5 28 26.5 52v62h-72c-58 0 -87 -19.667 -87 -59v-15c0 -19.333 6 -33.5 18 -42.5s29 -13.5 51 -13.5zM116.001 727.001h306v-103h-306v103z" />
    <glyph glyph-name="Abreve" unicode="&#x102;" horiz-adv-x="685" 
d="M507 0l-50 166h-233l-50 -166h-154l230 698h188l227 -698h-158zM342 560h-5l-77 -265h160zM339 740c-29.333 0 -54.6689 5.5 -76.002 16.5s-39.5 24.833 -54.5 41.5s-27.167 35 -36.5 55s-17 39 -23 57l81 42l19 -32c14.667 -24.667 28.667 -43.667 42 -57
s29.333 -20 48 -20s34.834 6.66699 48.501 20s27.834 32.333 42.501 57l19 32l80 -42c-6 -18 -14 -37 -24 -57s-22.5 -38.333 -37.5 -55s-33.167 -30.5 -54.5 -41.5s-46 -16.5 -74 -16.5z" />
    <glyph glyph-name="abreve" unicode="&#x103;" horiz-adv-x="569" 
d="M457 0c-26.667 0 -48.832 8.33398 -66.499 25.001s-28.834 39 -33.501 67h-6c-8 -34 -25.667 -59.833 -53 -77.5s-61 -26.5 -101 -26.5c-52.667 0 -93 14 -121 42s-42 65 -42 111c0 55.333 20.167 96.5 60.5 123.5s95.166 40.5 164.499 40.5h83v33
c0 25.333 -6.66699 45.5 -20 60.5s-35.666 22.5 -66.999 22.5c-29.333 0 -52.666 -6.33301 -69.999 -19s-31.666 -27 -42.999 -43l-88 78c21.333 31.333 48.166 55.833 80.499 73.5s76.166 26.5 131.499 26.5c74.667 0 130.667 -16.333 168 -49s56 -80.334 56 -143.001v-230
h49v-115h-82zM252.002 91.001c24.667 0 45.833 5.33301 63.5 16s26.5 28 26.5 52v62h-72c-58 0 -87 -19.667 -87 -59v-15c0 -19.333 6 -33.5 18 -42.5s29 -13.5 51 -13.5zM269.001 579.001c-29.333 0 -54.667 5.5 -76 16.5s-39.333 24.833 -54 41.5s-26.834 35 -36.501 55
s-17.5 39 -23.5 57l81 42l20 -33c14.667 -24 28.834 -42.667 42.501 -56s29.167 -20 46.5 -20s33 6.66699 47 20s28.333 32 43 56l20 33l80 -42c-6 -18 -14 -37 -24 -57s-22.667 -38.333 -38 -55s-33.5 -30.5 -54.5 -41.5s-45.5 -16.5 -73.5 -16.5z" />
    <glyph glyph-name="Aogonek" unicode="&#x104;" horiz-adv-x="685" 
d="M250 698l188 0.000976562l227 -698c-24.667 -15.333 -44.5 -28.166 -59.5 -38.499s-26.5 -19.5 -34.5 -27.5s-13.333 -15 -16 -21s-4 -12 -4 -18c0 -12.667 3.83301 -21.334 11.5 -26.001s16.5 -7 26.5 -7c12 0 22.333 2.66699 31 8s16.667 12 24 20l53 -51
c-8.66699 -16 -23.167 -28.5 -43.5 -37.5s-46.5 -13.5 -78.5 -13.5c-16.667 0 -32.5 1.5 -47.5 4.5s-28.167 7.66699 -39.5 14s-20.333 15 -27 26s-10 24.5 -10 40.5c0 28 10.5 51.167 31.5 69.5s50.167 36.166 87.5 53.499l-1 4h-62l-50 166h-233l-50 -166h-154z
M342 560.001h-5l-77 -265h160z" />
    <glyph glyph-name="aogonek" unicode="&#x105;" horiz-adv-x="569" 
d="M539 0c-24.667 -15.333 -44.5 -28.1641 -59.5 -38.4971s-26.5 -19.5 -34.5 -27.5s-13.333 -15 -16 -21s-4 -12 -4 -18c0 -12.667 3.83301 -21.334 11.5 -26.001s16.5 -7 26.5 -7c12 0 22.333 2.66699 31 8s16.667 12 24 20l53 -51
c-8.66699 -16 -23.167 -28.5 -43.5 -37.5s-46.5 -13.5 -78.5 -13.5c-16.667 0 -32.5 1.5 -47.5 4.5s-28.167 7.66699 -39.5 14s-20.333 15 -27 26s-10 24.5 -10 40.5c0 28 10.5 51.167 31.5 69.5s50.167 36.166 87.5 53.499l-2 5c-22.667 3.33301 -41.5 13 -56.5 29
s-24.5 36.667 -28.5 62h-6c-8 -34 -25.667 -59.833 -53 -77.5s-61 -26.5 -101 -26.5c-52.667 0 -93 14 -121 42s-42 65 -42 111c0 55.333 20.167 96.5 60.5 123.5s95.166 40.5 164.499 40.5h83v33c0 25.333 -6.66699 45.5 -20 60.5s-35.666 22.5 -66.999 22.5
c-29.333 0 -52.666 -6.33301 -69.999 -19s-31.666 -27 -42.999 -43l-88 78c21.333 31.333 48.166 55.833 80.499 73.5s76.166 26.5 131.499 26.5c74.667 0 130.667 -16.333 168 -49s56 -80.334 56 -143.001v-229h49v-116zM270 221.002c-58 0 -87.001 -19.667 -87.001 -59
v-15c0 -19.333 6 -33.5 18 -42.5s29 -13.5 51 -13.5c24.667 0 45.834 5.33301 63.501 16s26.5 28 26.5 52v62h-72z" />
    <glyph glyph-name="Cacute" unicode="&#x106;" horiz-adv-x="651" 
d="M359 -12c-47.333 0 -89.999 7.5 -127.999 22.5s-70.333 37.333 -97 67s-47.334 66.667 -62.001 111s-22 96.166 -22 155.499c0 58.667 7.33301 110.834 22 156.501s35.334 84 62.001 115s59 54.5 97 70.5s80.667 24 128 24c64.667 0 118 -13.167 160 -39.5
s75.667 -67.833 101 -124.5l-131 -68c-9.33301 29.333 -23.833 52.833 -43.5 70.5s-48.5 26.5 -86.5 26.5c-44.667 0 -80.5 -14.5 -107.5 -43.5s-40.5 -71.167 -40.5 -126.5v-112c0 -55.333 13.5 -97.5 40.5 -126.5s62.833 -43.5 107.5 -43.5
c37.333 0 67.166 10.167 89.499 30.5s38.833 44.833 49.5 73.5l124 -72c-26 -53.333 -60.167 -94.5 -102.5 -123.5s-95.833 -43.5 -160.5 -43.5zM371.001 740l-88 43l99 194l123 -61z" />
    <glyph glyph-name="cacute" unicode="&#x107;" horiz-adv-x="517" 
d="M281 -12c-39.333 0 -74.334 6.5 -105.001 19.5s-56.334 31.333 -77.001 55s-36.334 52.5 -47.001 86.5s-16 72 -16 114s5.33301 79.833 16 113.5s26.334 62.5 47.001 86.5s46.334 42.333 77.001 55s65.667 19 105 19c53.333 0 97.833 -12 133.5 -36
s61.167 -57.667 76.5 -101l-120 -52c-4.66699 20 -14.334 37 -29.001 51s-35 21 -61 21c-30 0 -52.667 -9.83301 -68 -29.5s-23 -46.167 -23 -79.5v-98c0 -33.333 7.66699 -59.666 23 -78.999s38 -29 68 -29c26.667 0 47.834 7.16699 63.501 21.5s27.167 33.166 34.5 56.499
l115 -50c-17.333 -50 -44.166 -86.667 -80.499 -110s-80.5 -35 -132.5 -35zM290.999 579l-88 43l99 194l123 -61z" />
    <glyph glyph-name="Ccircumflex" unicode="&#x108;" horiz-adv-x="651" 
d="M359 -12c-47.333 0 -89.999 7.5 -127.999 22.5s-70.333 37.333 -97 67s-47.334 66.667 -62.001 111s-22 96.166 -22 155.499c0 58.667 7.33301 110.834 22 156.501s35.334 84 62.001 115s59 54.5 97 70.5s80.667 24 128 24c64.667 0 118 -13.167 160 -39.5
s75.667 -67.833 101 -124.5l-131 -68c-9.33301 29.333 -23.833 52.833 -43.5 70.5s-48.5 26.5 -86.5 26.5c-44.667 0 -80.5 -14.5 -107.5 -43.5s-40.5 -71.167 -40.5 -126.5v-112c0 -55.333 13.5 -97.5 40.5 -126.5s62.833 -43.5 107.5 -43.5
c37.333 0 67.166 10.167 89.499 30.5s38.833 44.833 49.5 73.5l124 -72c-26 -53.333 -60.167 -94.5 -102.5 -123.5s-95.833 -43.5 -160.5 -43.5zM417.001 956l132 -159l-73 -58l-121 115l-121 -115l-73 58l132 159h124z" />
    <glyph glyph-name="ccircumflex" unicode="&#x109;" horiz-adv-x="517" 
d="M281 -12c-39.333 0 -74.334 6.5 -105.001 19.5s-56.334 31.333 -77.001 55s-36.334 52.5 -47.001 86.5s-16 72 -16 114s5.33301 79.833 16 113.5s26.334 62.5 47.001 86.5s46.334 42.333 77.001 55s65.667 19 105 19c53.333 0 97.833 -12 133.5 -36
s61.167 -57.667 76.5 -101l-120 -52c-4.66699 20 -14.334 37 -29.001 51s-35 21 -61 21c-30 0 -52.667 -9.83301 -68 -29.5s-23 -46.167 -23 -79.5v-98c0 -33.333 7.66699 -59.666 23 -78.999s38 -29 68 -29c26.667 0 47.834 7.16699 63.501 21.5s27.167 33.166 34.5 56.499
l115 -50c-17.333 -50 -44.166 -86.667 -80.499 -110s-80.5 -35 -132.5 -35zM336.999 795l132 -159l-73 -58l-121 115l-121 -115l-73 58l132 159h124z" />
    <glyph glyph-name="Cdotaccent" unicode="&#x10a;" horiz-adv-x="651" 
d="M359 -12c-47.333 0 -89.999 7.5 -127.999 22.5s-70.333 37.333 -97 67s-47.334 66.667 -62.001 111s-22 96.166 -22 155.499c0 58.667 7.33301 110.834 22 156.501s35.334 84 62.001 115s59 54.5 97 70.5s80.667 24 128 24c64.667 0 118 -13.167 160 -39.5
s75.667 -67.833 101 -124.5l-131 -68c-9.33301 29.333 -23.833 52.833 -43.5 70.5s-48.5 26.5 -86.5 26.5c-44.667 0 -80.5 -14.5 -107.5 -43.5s-40.5 -71.167 -40.5 -126.5v-112c0 -55.333 13.5 -97.5 40.5 -126.5s62.833 -43.5 107.5 -43.5
c37.333 0 67.166 10.167 89.499 30.5s38.833 44.833 49.5 73.5l124 -72c-26 -53.333 -60.167 -94.5 -102.5 -123.5s-95.833 -43.5 -160.5 -43.5zM355.001 752c-33.333 0 -56.5 6.83301 -69.5 20.5s-19.5 30.167 -19.5 49.5v29c0 19.333 6.5 35.833 19.5 49.5
s36.167 20.5 69.5 20.5s56.5 -6.83301 69.5 -20.5s19.5 -30.167 19.5 -49.5v-29c0 -19.333 -6.5 -35.833 -19.5 -49.5s-36.167 -20.5 -69.5 -20.5z" />
    <glyph glyph-name="cdotaccent" unicode="&#x10b;" horiz-adv-x="517" 
d="M281 -12c-39.333 0 -74.334 6.5 -105.001 19.5s-56.334 31.333 -77.001 55s-36.334 52.5 -47.001 86.5s-16 72 -16 114s5.33301 79.833 16 113.5s26.334 62.5 47.001 86.5s46.334 42.333 77.001 55s65.667 19 105 19c53.333 0 97.833 -12 133.5 -36
s61.167 -57.667 76.5 -101l-120 -52c-4.66699 20 -14.334 37 -29.001 51s-35 21 -61 21c-30 0 -52.667 -9.83301 -68 -29.5s-23 -46.167 -23 -79.5v-98c0 -33.333 7.66699 -59.666 23 -78.999s38 -29 68 -29c26.667 0 47.834 7.16699 63.501 21.5s27.167 33.166 34.5 56.499
l115 -50c-17.333 -50 -44.166 -86.667 -80.499 -110s-80.5 -35 -132.5 -35zM274.999 591c-33.333 0 -56.5 6.83301 -69.5 20.5s-19.5 30.167 -19.5 49.5v29c0 19.333 6.5 35.833 19.5 49.5s36.167 20.5 69.5 20.5s56.5 -6.83301 69.5 -20.5s19.5 -30.167 19.5 -49.5v-29
c0 -19.333 -6.5 -35.833 -19.5 -49.5s-36.167 -20.5 -69.5 -20.5z" />
    <glyph glyph-name="Ccaron" unicode="&#x10c;" horiz-adv-x="651" 
d="M359 -12c-47.333 0 -89.999 7.5 -127.999 22.5s-70.333 37.333 -97 67s-47.334 66.667 -62.001 111s-22 96.166 -22 155.499c0 58.667 7.33301 110.834 22 156.501s35.334 84 62.001 115s59 54.5 97 70.5s80.667 24 128 24c64.667 0 118 -13.167 160 -39.5
s75.667 -67.833 101 -124.5l-131 -68c-9.33301 29.333 -23.833 52.833 -43.5 70.5s-48.5 26.5 -86.5 26.5c-44.667 0 -80.5 -14.5 -107.5 -43.5s-40.5 -71.167 -40.5 -126.5v-112c0 -55.333 13.5 -97.5 40.5 -126.5s62.833 -43.5 107.5 -43.5
c37.333 0 67.166 10.167 89.499 30.5s38.833 44.833 49.5 73.5l124 -72c-26 -53.333 -60.167 -94.5 -102.5 -123.5s-95.833 -43.5 -160.5 -43.5zM293.001 748l-132 159l73 58l121 -115l121 115l73 -58l-132 -159h-124z" />
    <glyph glyph-name="ccaron" unicode="&#x10d;" horiz-adv-x="517" 
d="M281 -12c-39.333 0 -74.334 6.5 -105.001 19.5s-56.334 31.333 -77.001 55s-36.334 52.5 -47.001 86.5s-16 72 -16 114s5.33301 79.833 16 113.5s26.334 62.5 47.001 86.5s46.334 42.333 77.001 55s65.667 19 105 19c53.333 0 97.833 -12 133.5 -36
s61.167 -57.667 76.5 -101l-120 -52c-4.66699 20 -14.334 37 -29.001 51s-35 21 -61 21c-30 0 -52.667 -9.83301 -68 -29.5s-23 -46.167 -23 -79.5v-98c0 -33.333 7.66699 -59.666 23 -78.999s38 -29 68 -29c26.667 0 47.834 7.16699 63.501 21.5s27.167 33.166 34.5 56.499
l115 -50c-17.333 -50 -44.166 -86.667 -80.499 -110s-80.5 -35 -132.5 -35zM212.999 587l-132 159l73 58l121 -115l121 115l73 -58l-132 -159h-124z" />
    <glyph glyph-name="Dcaron" unicode="&#x10e;" horiz-adv-x="697" 
d="M77 698h263c46 0 88 -7.33301 126 -22s70.333 -36.5 97 -65.5s47.334 -65.333 62.001 -109s22 -94.5 22 -152.5s-7.33301 -108.833 -22 -152.5s-35.334 -80 -62.001 -109s-59 -50.833 -97 -65.5s-80 -22 -126 -22h-263v698zM340 135c45.333 0 81 12.667 107 38
s39 66 39 122v108c0 56 -13 96.667 -39 122s-61.667 38 -107 38h-111v-428h111zM261 748l-132 159l73 58l121 -115l121 115l73 -58l-132 -159h-124z" />
    <glyph glyph-name="dcaron" unicode="&#x10f;" horiz-adv-x="682" 
d="M391 88h-4.99805c-4 -14 -10.333 -27.167 -19 -39.5s-19.167 -23 -31.5 -32s-26.333 -16 -42 -21s-31.834 -7.5 -48.501 -7.5c-66.667 0 -117 23.5 -151 70.5s-51 115.167 -51 204.5s17 157.333 51 204s84.333 70 151 70c34 0 64.167 -9.33301 90.5 -28
s43.166 -42.667 50.499 -72h5v303h148v-740h-148v88zM294.002 108c28 0 51.167 6.83301 69.5 20.5s27.5 32.5 27.5 56.5v155c0 24 -9.16699 42.833 -27.5 56.5s-41.5 20.5 -69.5 20.5s-51.167 -9.83301 -69.5 -29.5s-27.5 -46.167 -27.5 -79.5v-91
c0 -33.333 9.16699 -59.833 27.5 -79.5s41.5 -29.5 69.5 -29.5zM699.002 525h-97l6 215h157z" />
    <glyph glyph-name="Dcroat" unicode="&#x110;" horiz-adv-x="702" 
d="M82 297h-75v114h75v287h263c46 0 88 -7.33301 126 -22s70.333 -36.5 97 -65.5s47.334 -65.333 62.001 -109s22 -94.5 22 -152.5s-7.33301 -108.833 -22 -152.5s-35.334 -80 -62.001 -109s-59 -50.833 -97 -65.5s-80 -22 -126 -22h-263v297zM345 135
c45.333 0 81 12.667 107 38s39 66 39 122v108c0 56 -13 96.667 -39 122s-61.667 38 -107 38h-111v-152h119v-114h-119v-162h111z" />
    <glyph glyph-name="dcroat" unicode="&#x111;" horiz-adv-x="611" 
d="M391 88h-4.99805c-4 -14 -10.333 -27.167 -19 -39.5s-19.167 -23 -31.5 -32s-26.333 -16 -42 -21s-31.834 -7.5 -48.501 -7.5c-66.667 0 -117 23.5 -151 70.5s-51 115.167 -51 204.5s17 157.333 51 204s84.333 70 151 70c34 0 64.167 -9.33301 90.5 -28
s43.166 -42.667 50.499 -72h5v153h-141v100h141v50h148v-50h61v-100h-61v-590h-148v88zM294.002 108c28 0 51.167 6.83301 69.5 20.5s27.5 32.5 27.5 56.5v155c0 24 -9.16699 42.833 -27.5 56.5s-41.5 20.5 -69.5 20.5s-51.167 -9.83301 -69.5 -29.5
s-27.5 -46.167 -27.5 -79.5v-91c0 -33.333 9.16699 -59.833 27.5 -79.5s41.5 -29.5 69.5 -29.5z" />
    <glyph glyph-name="Emacron" unicode="&#x112;" horiz-adv-x="607" 
d="M77 0v698h475v-135h-323v-143h277v-134h-277v-151h323v-135h-475zM162 888h306v-103h-306v103z" />
    <glyph glyph-name="emacron" unicode="&#x113;" horiz-adv-x="562" 
d="M288 -12c-40 0 -75.667 6.5 -107 19.5s-57.833 31.333 -79.5 55s-38 52.5 -49 86.5s-16.5 72 -16.5 114c0 41.333 5.33301 78.833 16 112.5s26.5 62.5 47.5 86.5s46.833 42.5 77.5 55.5s65.667 19.5 105 19.5c43.333 0 80.5 -7.33301 111.5 -22
s56.333 -34.334 76 -59.001s34 -53.167 43 -85.5s13.5 -66.166 13.5 -101.499v-44h-337v-8c0 -34.667 9.33301 -62.167 28 -82.5s48 -30.5 88 -30.5c30.667 0 55.667 6.16699 75 18.5s37.333 27.166 54 44.499l74 -92c-23.333 -27.333 -53.833 -48.666 -91.5 -63.999
s-80.5 -23 -128.5 -23zM285 428c-30 0 -53.5 -9.83203 -70.5 -29.499s-25.5 -45.834 -25.5 -78.501v-8h184v9c0 32 -7.16699 57.833 -21.5 77.5s-36.5 29.5 -66.5 29.5zM135 727.001h306v-103h-306v103z" />
    <glyph glyph-name="Ebreve" unicode="&#x114;" horiz-adv-x="607" 
d="M77 0v698h475v-135h-323v-143h277v-134h-277v-151h323v-135h-475zM315 740c-29.333 0 -54.6689 5.5 -76.002 16.5s-39.5 24.833 -54.5 41.5s-27.167 35 -36.5 55s-17 39 -23 57l81 42l19 -32c14.667 -24.667 28.667 -43.667 42 -57s29.333 -20 48 -20
s34.834 6.66699 48.501 20s27.834 32.333 42.501 57l19 32l80 -42c-6 -18 -14 -37 -24 -57s-22.5 -38.333 -37.5 -55s-33.167 -30.5 -54.5 -41.5s-46 -16.5 -74 -16.5z" />
    <glyph glyph-name="ebreve" unicode="&#x115;" horiz-adv-x="562" 
d="M288 -12c-40 0 -75.667 6.5 -107 19.5s-57.833 31.333 -79.5 55s-38 52.5 -49 86.5s-16.5 72 -16.5 114c0 41.333 5.33301 78.833 16 112.5s26.5 62.5 47.5 86.5s46.833 42.5 77.5 55.5s65.667 19.5 105 19.5c43.333 0 80.5 -7.33301 111.5 -22
s56.333 -34.334 76 -59.001s34 -53.167 43 -85.5s13.5 -66.166 13.5 -101.499v-44h-337v-8c0 -34.667 9.33301 -62.167 28 -82.5s48 -30.5 88 -30.5c30.667 0 55.667 6.16699 75 18.5s37.333 27.166 54 44.499l74 -92c-23.333 -27.333 -53.833 -48.666 -91.5 -63.999
s-80.5 -23 -128.5 -23zM285 428c-30 0 -53.5 -9.83203 -70.5 -29.499s-25.5 -45.834 -25.5 -78.501v-8h184v9c0 32 -7.16699 57.833 -21.5 77.5s-36.5 29.5 -66.5 29.5zM288 579.001c-29.333 0 -54.667 5.5 -76 16.5s-39.333 24.833 -54 41.5s-26.834 35 -36.501 55
s-17.5 39 -23.5 57l81 42l20 -33c14.667 -24 28.834 -42.667 42.501 -56s29.167 -20 46.5 -20s33 6.66699 47 20s28.333 32 43 56l20 33l80 -42c-6 -18 -14 -37 -24 -57s-22.667 -38.333 -38 -55s-33.5 -30.5 -54.5 -41.5s-45.5 -16.5 -73.5 -16.5z" />
    <glyph glyph-name="Edotaccent" unicode="&#x116;" horiz-adv-x="607" 
d="M77 0v698h475v-135h-323v-143h277v-134h-277v-151h323v-135h-475zM315 752c-33.333 0 -56.5 6.83301 -69.5 20.5s-19.5 30.167 -19.5 49.5v29c0 19.333 6.5 35.833 19.5 49.5s36.167 20.5 69.5 20.5s56.5 -6.83301 69.5 -20.5s19.5 -30.167 19.5 -49.5v-29
c0 -19.333 -6.5 -35.833 -19.5 -49.5s-36.167 -20.5 -69.5 -20.5z" />
    <glyph glyph-name="edotaccent" unicode="&#x117;" horiz-adv-x="562" 
d="M288 -12c-40 0 -75.667 6.5 -107 19.5s-57.833 31.333 -79.5 55s-38 52.5 -49 86.5s-16.5 72 -16.5 114c0 41.333 5.33301 78.833 16 112.5s26.5 62.5 47.5 86.5s46.833 42.5 77.5 55.5s65.667 19.5 105 19.5c43.333 0 80.5 -7.33301 111.5 -22
s56.333 -34.334 76 -59.001s34 -53.167 43 -85.5s13.5 -66.166 13.5 -101.499v-44h-337v-8c0 -34.667 9.33301 -62.167 28 -82.5s48 -30.5 88 -30.5c30.667 0 55.667 6.16699 75 18.5s37.333 27.166 54 44.499l74 -92c-23.333 -27.333 -53.833 -48.666 -91.5 -63.999
s-80.5 -23 -128.5 -23zM285 428c-30 0 -53.5 -9.83203 -70.5 -29.499s-25.5 -45.834 -25.5 -78.501v-8h184v9c0 32 -7.16699 57.833 -21.5 77.5s-36.5 29.5 -66.5 29.5zM288 591.001c-33.333 0 -56.5 6.83301 -69.5 20.5s-19.5 30.167 -19.5 49.5v29
c0 19.333 6.5 35.833 19.5 49.5s36.167 20.5 69.5 20.5s56.5 -6.83301 69.5 -20.5s19.5 -30.167 19.5 -49.5v-29c0 -19.333 -6.5 -35.833 -19.5 -49.5s-36.167 -20.5 -69.5 -20.5z" />
    <glyph glyph-name="Eogonek" unicode="&#x118;" horiz-adv-x="607" 
d="M77 698l475.001 0.000976562v-135h-323v-143h277v-134h-277v-151h323v-135c-24.667 -15.333 -44.334 -28.166 -59.001 -38.499s-26 -19.5 -34 -27.5s-13.333 -15 -16 -21s-4 -12 -4 -18c0 -12.667 3.83301 -21.334 11.5 -26.001s16.5 -7 26.5 -7
c12 0 22.333 2.66699 31 8s16.667 12 24 20l53 -51c-8.66699 -16 -23.167 -28.5 -43.5 -37.5s-46.5 -13.5 -78.5 -13.5c-16.667 0 -32.5 1.5 -47.5 4.5s-28.167 7.66699 -39.5 14s-20.333 15 -27 26s-10 24.5 -10 40.5c0 28 10.5 51.167 31.5 69.5
s50.167 36.166 87.5 53.499l-1 4h-380v698z" />
    <glyph glyph-name="eogonek" unicode="&#x119;" horiz-adv-x="562" 
d="M336 -212c-16 0 -31.335 1.50098 -46.002 4.50098s-27.667 7.66699 -39 14s-20.333 14.833 -27 25.5s-10 24 -10 40c0 28 10.333 50.5 31 67.5s48.334 33.167 83.001 48.5l-1 4c-9.33301 -2 -17.5 -3.16699 -24.5 -3.5s-13.5 -0.5 -19.5 -0.5
c-39.333 0 -74.333 6.5 -105 19.5s-56.5 31.333 -77.5 55s-37 52.5 -48 86.5s-16.5 72 -16.5 114c0 41.333 5.33301 78.833 16 112.5s26.5 62.5 47.5 86.5s46.833 42.5 77.5 55.5s65.667 19.5 105 19.5c43.333 0 80.5 -7.33301 111.5 -22s56.333 -34.334 76 -59.001
s34 -53.167 43 -85.5s13.5 -66.166 13.5 -101.499v-44h-337v-8c0 -34.667 9.5 -62.167 28.5 -82.5s48.833 -30.5 89.5 -30.5c29.333 0 54.333 6.66699 75 20s38.334 27.666 53.001 42.999l74 -92c-7.33301 -8.66699 -19.5 -19.5 -36.5 -32.5l-70.5 -52.5
c-29.333 -21.333 -51.5 -39 -66.5 -53s-22.5 -28.333 -22.5 -43c0 -11.333 3.83301 -19.5 11.5 -24.5s16.5 -7.5 26.5 -7.5c11.333 0 21.333 2.66699 30 8s16.667 12 24 20l52 -51c-8.66699 -16 -23 -28.5 -43 -37.5s-46 -13.5 -78 -13.5zM372.998 312.001v9.00098
c0 32 -7.16699 57.833 -21.5 77.5s-36.5 29.5 -66.5 29.5s-53.5 -9.83301 -70.5 -29.5s-25.5 -45.834 -25.5 -78.501v-8h184z" />
    <glyph glyph-name="Ecaron" unicode="&#x11a;" horiz-adv-x="607" 
d="M77 0v698h475v-135h-323v-143h277v-134h-277v-151h323v-135h-475zM253 748l-132 159l73 58l121 -115l121 115l73 -58l-132 -159h-124z" />
    <glyph glyph-name="ecaron" unicode="&#x11b;" horiz-adv-x="562" 
d="M288 -12c-40 0 -75.667 6.5 -107 19.5s-57.833 31.333 -79.5 55s-38 52.5 -49 86.5s-16.5 72 -16.5 114c0 41.333 5.33301 78.833 16 112.5s26.5 62.5 47.5 86.5s46.833 42.5 77.5 55.5s65.667 19.5 105 19.5c43.333 0 80.5 -7.33301 111.5 -22
s56.333 -34.334 76 -59.001s34 -53.167 43 -85.5s13.5 -66.166 13.5 -101.499v-44h-337v-8c0 -34.667 9.33301 -62.167 28 -82.5s48 -30.5 88 -30.5c30.667 0 55.667 6.16699 75 18.5s37.333 27.166 54 44.499l74 -92c-23.333 -27.333 -53.833 -48.666 -91.5 -63.999
s-80.5 -23 -128.5 -23zM285 428c-30 0 -53.5 -9.83203 -70.5 -29.499s-25.5 -45.834 -25.5 -78.501v-8h184v9c0 32 -7.16699 57.833 -21.5 77.5s-36.5 29.5 -66.5 29.5zM226 587.001l-132 159l73 58l121 -115l121 115l73 -58l-132 -159h-124z" />
    <glyph glyph-name="Gcircumflex" unicode="&#x11c;" horiz-adv-x="719" 
d="M520 111l-5 -0.00195312c-5.33301 -35.333 -23.333 -64.666 -54 -87.999s-72.334 -35 -125.001 -35c-40 0 -77.333 7.66699 -112 23s-65 38 -91 68s-46.333 67.333 -61 112s-22 96.334 -22 155.001s7.66699 110.667 23 156s36.833 83.333 64.5 114s60.834 54 99.501 70
s81.667 24 129 24c62.667 0 116.667 -13.5 162 -40.5s81 -67.5 107 -121.5l-124 -71c-10.667 27.333 -27.334 50.5 -50.001 69.5s-54.334 28.5 -95.001 28.5c-47.333 0 -85 -13.667 -113 -41s-42 -70.333 -42 -129v-112c0 -58 14 -100.833 42 -128.5s65.667 -41.5 113 -41.5
c18.667 0 36.334 2.16699 53.001 6.5s31.334 11 44.001 20s22.5 19.833 29.5 32.5s10.5 27.667 10.5 45v35h-130v127h275v-389h-128v111zM420 955.998l132 -159l-73 -58l-121 115l-121 -115l-73 58l132 159h124z" />
    <glyph glyph-name="gcircumflex" unicode="&#x11d;" horiz-adv-x="562" 
d="M555 -38c0 -28 -4.83398 -52.666 -14.501 -73.999s-25.5 -39.5 -47.5 -54.5s-51.167 -26.333 -87.5 -34s-81.166 -11.5 -134.499 -11.5c-45.333 0 -83.833 2.83301 -115.5 8.5s-57.334 13.667 -77.001 24s-34 23 -43 38s-13.5 32.167 -13.5 51.5
c0 29.333 8.66699 52.333 26 69s41.333 27 72 31v11c-25.333 4.66699 -44.333 15.5 -57 32.5s-19 36.833 -19 59.5c0 14 2.83301 26.167 8.5 36.5s13 19.333 22 27s19.5 13.834 31.5 18.501s24 8.33398 36 11.001v4c-32 14.667 -55.667 34.834 -71 60.501s-23 55.5 -23 89.5
c0 53.333 18.5 96.166 55.5 128.499s93.5 48.5 169.5 48.5c16.667 0 33.5 -0.833008 50.5 -2.5s33.167 -4.83398 48.5 -9.50098h174v-99h-64c10.667 -18.667 16 -40.667 16 -66c0 -52.667 -18.5 -94.834 -55.5 -126.501s-93.5 -47.5 -169.5 -47.5c-34 0 -65 3.66699 -93 11
c-15.333 -10 -23 -24 -23 -42c0 -12.667 4.83301 -22.5 14.5 -29.5s25.834 -10.5 48.501 -10.5h152c64 0 110.5 -13.333 139.5 -40s43.5 -64.334 43.5 -113.001zM272.999 283.001c29.333 0 51.166 6.16699 65.499 18.5s21.5 30.166 21.5 53.499v12
c0 23.333 -7.16699 41.166 -21.5 53.499s-36.166 18.5 -65.499 18.5s-51.166 -6.16699 -65.499 -18.5s-21.5 -30.166 -21.5 -53.499v-12c0 -23.333 7.16699 -41.166 21.5 -53.499s36.166 -18.5 65.499 -18.5zM415.999 -57.999c0 15.333 -6 27 -18 35s-33 12 -63 12h-180
c-6.66699 -6.66699 -11.5 -14.167 -14.5 -22.5s-4.5 -16.5 -4.5 -24.5c0 -19.333 8.33301 -33.5 25 -42.5s45 -13.5 85 -13.5h60c40 0 68.333 4.5 85 13.5s25 23.167 25 42.5zM340.999 795.001l132 -159l-73 -58l-121 115l-121 -115l-73 58l132 159h124z" />
    <glyph glyph-name="Gbreve" unicode="&#x11e;" horiz-adv-x="719" 
d="M520 111l-5 -0.00195312c-5.33301 -35.333 -23.333 -64.666 -54 -87.999s-72.334 -35 -125.001 -35c-40 0 -77.333 7.66699 -112 23s-65 38 -91 68s-46.333 67.333 -61 112s-22 96.334 -22 155.001s7.66699 110.667 23 156s36.833 83.333 64.5 114s60.834 54 99.501 70
s81.667 24 129 24c62.667 0 116.667 -13.5 162 -40.5s81 -67.5 107 -121.5l-124 -71c-10.667 27.333 -27.334 50.5 -50.001 69.5s-54.334 28.5 -95.001 28.5c-47.333 0 -85 -13.667 -113 -41s-42 -70.333 -42 -129v-112c0 -58 14 -100.833 42 -128.5s65.667 -41.5 113 -41.5
c18.667 0 36.334 2.16699 53.001 6.5s31.334 11 44.001 20s22.5 19.833 29.5 32.5s10.5 27.667 10.5 45v35h-130v127h275v-389h-128v111zM358 739.998c-29.333 0 -54.6689 5.5 -76.002 16.5s-39.5 24.833 -54.5 41.5s-27.167 35 -36.5 55s-17 39 -23 57l81 42l19 -32
c14.667 -24.667 28.667 -43.667 42 -57s29.333 -20 48 -20s34.834 6.66699 48.501 20s27.834 32.333 42.501 57l19 32l80 -42c-6 -18 -14 -37 -24 -57s-22.5 -38.333 -37.5 -55s-33.167 -30.5 -54.5 -41.5s-46 -16.5 -74 -16.5z" />
    <glyph glyph-name="gbreve" unicode="&#x11f;" horiz-adv-x="562" 
d="M555 -38c0 -28 -4.83398 -52.666 -14.501 -73.999s-25.5 -39.5 -47.5 -54.5s-51.167 -26.333 -87.5 -34s-81.166 -11.5 -134.499 -11.5c-45.333 0 -83.833 2.83301 -115.5 8.5s-57.334 13.667 -77.001 24s-34 23 -43 38s-13.5 32.167 -13.5 51.5
c0 29.333 8.66699 52.333 26 69s41.333 27 72 31v11c-25.333 4.66699 -44.333 15.5 -57 32.5s-19 36.833 -19 59.5c0 14 2.83301 26.167 8.5 36.5s13 19.333 22 27s19.5 13.834 31.5 18.501s24 8.33398 36 11.001v4c-32 14.667 -55.667 34.834 -71 60.501s-23 55.5 -23 89.5
c0 53.333 18.5 96.166 55.5 128.499s93.5 48.5 169.5 48.5c16.667 0 33.5 -0.833008 50.5 -2.5s33.167 -4.83398 48.5 -9.50098h174v-99h-64c10.667 -18.667 16 -40.667 16 -66c0 -52.667 -18.5 -94.834 -55.5 -126.501s-93.5 -47.5 -169.5 -47.5c-34 0 -65 3.66699 -93 11
c-15.333 -10 -23 -24 -23 -42c0 -12.667 4.83301 -22.5 14.5 -29.5s25.834 -10.5 48.501 -10.5h152c64 0 110.5 -13.333 139.5 -40s43.5 -64.334 43.5 -113.001zM272.999 283.001c29.333 0 51.166 6.16699 65.499 18.5s21.5 30.166 21.5 53.499v12
c0 23.333 -7.16699 41.166 -21.5 53.499s-36.166 18.5 -65.499 18.5s-51.166 -6.16699 -65.499 -18.5s-21.5 -30.166 -21.5 -53.499v-12c0 -23.333 7.16699 -41.166 21.5 -53.499s36.166 -18.5 65.499 -18.5zM415.999 -57.999c0 15.333 -6 27 -18 35s-33 12 -63 12h-180
c-6.66699 -6.66699 -11.5 -14.167 -14.5 -22.5s-4.5 -16.5 -4.5 -24.5c0 -19.333 8.33301 -33.5 25 -42.5s45 -13.5 85 -13.5h60c40 0 68.333 4.5 85 13.5s25 23.167 25 42.5zM278.999 579.001c-29.333 0 -54.667 5.5 -76 16.5s-39.333 24.833 -54 41.5
s-26.834 35 -36.501 55s-17.5 39 -23.5 57l81 42l20 -33c14.667 -24 28.834 -42.667 42.501 -56s29.167 -20 46.5 -20s33 6.66699 47 20s28.333 32 43 56l20 33l80 -42c-6 -18 -14 -37 -24 -57s-22.667 -38.333 -38 -55s-33.5 -30.5 -54.5 -41.5s-45.5 -16.5 -73.5 -16.5z
" />
    <glyph glyph-name="Gdotaccent" unicode="&#x120;" horiz-adv-x="719" 
d="M520 111l-5 -0.00195312c-5.33301 -35.333 -23.333 -64.666 -54 -87.999s-72.334 -35 -125.001 -35c-40 0 -77.333 7.66699 -112 23s-65 38 -91 68s-46.333 67.333 -61 112s-22 96.334 -22 155.001s7.66699 110.667 23 156s36.833 83.333 64.5 114s60.834 54 99.501 70
s81.667 24 129 24c62.667 0 116.667 -13.5 162 -40.5s81 -67.5 107 -121.5l-124 -71c-10.667 27.333 -27.334 50.5 -50.001 69.5s-54.334 28.5 -95.001 28.5c-47.333 0 -85 -13.667 -113 -41s-42 -70.333 -42 -129v-112c0 -58 14 -100.833 42 -128.5s65.667 -41.5 113 -41.5
c18.667 0 36.334 2.16699 53.001 6.5s31.334 11 44.001 20s22.5 19.833 29.5 32.5s10.5 27.667 10.5 45v35h-130v127h275v-389h-128v111zM358 751.998c-33.333 0 -56.5 6.83301 -69.5 20.5s-19.5 30.167 -19.5 49.5v29c0 19.333 6.5 35.833 19.5 49.5s36.167 20.5 69.5 20.5
s56.5 -6.83301 69.5 -20.5s19.5 -30.167 19.5 -49.5v-29c0 -19.333 -6.5 -35.833 -19.5 -49.5s-36.167 -20.5 -69.5 -20.5z" />
    <glyph glyph-name="gdotaccent" unicode="&#x121;" horiz-adv-x="562" 
d="M555 -38c0 -28 -4.83398 -52.666 -14.501 -73.999s-25.5 -39.5 -47.5 -54.5s-51.167 -26.333 -87.5 -34s-81.166 -11.5 -134.499 -11.5c-45.333 0 -83.833 2.83301 -115.5 8.5s-57.334 13.667 -77.001 24s-34 23 -43 38s-13.5 32.167 -13.5 51.5
c0 29.333 8.66699 52.333 26 69s41.333 27 72 31v11c-25.333 4.66699 -44.333 15.5 -57 32.5s-19 36.833 -19 59.5c0 14 2.83301 26.167 8.5 36.5s13 19.333 22 27s19.5 13.834 31.5 18.501s24 8.33398 36 11.001v4c-32 14.667 -55.667 34.834 -71 60.501s-23 55.5 -23 89.5
c0 53.333 18.5 96.166 55.5 128.499s93.5 48.5 169.5 48.5c16.667 0 33.5 -0.833008 50.5 -2.5s33.167 -4.83398 48.5 -9.50098h174v-99h-64c10.667 -18.667 16 -40.667 16 -66c0 -52.667 -18.5 -94.834 -55.5 -126.501s-93.5 -47.5 -169.5 -47.5c-34 0 -65 3.66699 -93 11
c-15.333 -10 -23 -24 -23 -42c0 -12.667 4.83301 -22.5 14.5 -29.5s25.834 -10.5 48.501 -10.5h152c64 0 110.5 -13.333 139.5 -40s43.5 -64.334 43.5 -113.001zM272.999 283.001c29.333 0 51.166 6.16699 65.499 18.5s21.5 30.166 21.5 53.499v12
c0 23.333 -7.16699 41.166 -21.5 53.499s-36.166 18.5 -65.499 18.5s-51.166 -6.16699 -65.499 -18.5s-21.5 -30.166 -21.5 -53.499v-12c0 -23.333 7.16699 -41.166 21.5 -53.499s36.166 -18.5 65.499 -18.5zM415.999 -57.999c0 15.333 -6 27 -18 35s-33 12 -63 12h-180
c-6.66699 -6.66699 -11.5 -14.167 -14.5 -22.5s-4.5 -16.5 -4.5 -24.5c0 -19.333 8.33301 -33.5 25 -42.5s45 -13.5 85 -13.5h60c40 0 68.333 4.5 85 13.5s25 23.167 25 42.5zM274.999 591.001c-33.333 0 -56.5 6.83301 -69.5 20.5s-19.5 30.167 -19.5 49.5v29
c0 19.333 6.5 35.833 19.5 49.5s36.167 20.5 69.5 20.5s56.5 -6.83301 69.5 -20.5s19.5 -30.167 19.5 -49.5v-29c0 -19.333 -6.5 -35.833 -19.5 -49.5s-36.167 -20.5 -69.5 -20.5z" />
    <glyph glyph-name="Gcommaaccent" unicode="&#x122;" horiz-adv-x="719" 
d="M520 111l-5 -0.00195312c-5.33301 -35.333 -23.333 -64.666 -54 -87.999s-72.334 -35 -125.001 -35c-40 0 -77.333 7.66699 -112 23s-65 38 -91 68s-46.333 67.333 -61 112s-22 96.334 -22 155.001s7.66699 110.667 23 156s36.833 83.333 64.5 114s60.834 54 99.501 70
s81.667 24 129 24c62.667 0 116.667 -13.5 162 -40.5s81 -67.5 107 -121.5l-124 -71c-10.667 27.333 -27.334 50.5 -50.001 69.5s-54.334 28.5 -95.001 28.5c-47.333 0 -85 -13.667 -113 -41s-42 -70.333 -42 -129v-112c0 -58 14 -100.833 42 -128.5s65.667 -41.5 113 -41.5
c18.667 0 36.334 2.16699 53.001 6.5s31.334 11 44.001 20s22.5 19.833 29.5 32.5s10.5 27.667 10.5 45v35h-130v127h275v-389h-128v111zM348 -42.002c22 0 39.1689 -5.33105 51.502 -15.998s18.5 -26 18.5 -46v-14c0 -30.667 -6.33301 -60.334 -19 -89.001
s-28.667 -51.334 -48 -68.001h-85c17.333 14.667 30.666 29.834 39.999 45.501s16.666 33.5 21.999 53.5c-19.333 1.33301 -32.5 8.16602 -39.5 20.499s-10.5 25.833 -10.5 40.5v11c0 20 6.16699 35.333 18.5 46s29.5 16 51.5 16z" />
    <glyph glyph-name="gcommaaccent" unicode="&#x123;" horiz-adv-x="562" 
d="M555 -38c0 -28 -4.83398 -52.666 -14.501 -73.999s-25.5 -39.5 -47.5 -54.5s-51.167 -26.333 -87.5 -34s-81.166 -11.5 -134.499 -11.5c-45.333 0 -83.833 2.83301 -115.5 8.5s-57.334 13.667 -77.001 24s-34 23 -43 38s-13.5 32.167 -13.5 51.5
c0 29.333 8.66699 52.333 26 69s41.333 27 72 31v11c-25.333 4.66699 -44.333 15.5 -57 32.5s-19 36.833 -19 59.5c0 14 2.83301 26.167 8.5 36.5s13 19.333 22 27s19.5 13.834 31.5 18.501s24 8.33398 36 11.001v4c-32 14.667 -55.667 34.834 -71 60.501s-23 55.5 -23 89.5
c0 53.333 18.5 96.166 55.5 128.499s93.5 48.5 169.5 48.5c16.667 0 33.5 -0.833008 50.5 -2.5s33.167 -4.83398 48.5 -9.50098h174v-99h-64c10.667 -18.667 16 -40.667 16 -66c0 -52.667 -18.5 -94.834 -55.5 -126.501s-93.5 -47.5 -169.5 -47.5c-34 0 -65 3.66699 -93 11
c-15.333 -10 -23 -24 -23 -42c0 -12.667 4.83301 -22.5 14.5 -29.5s25.834 -10.5 48.501 -10.5h152c64 0 110.5 -13.333 139.5 -40s43.5 -64.334 43.5 -113.001zM272.999 283.001c29.333 0 51.166 6.16699 65.499 18.5s21.5 30.166 21.5 53.499v12
c0 23.333 -7.16699 41.166 -21.5 53.499s-36.166 18.5 -65.499 18.5s-51.166 -6.16699 -65.499 -18.5s-21.5 -30.166 -21.5 -53.499v-12c0 -23.333 7.16699 -41.166 21.5 -53.499s36.166 -18.5 65.499 -18.5zM415.999 -57.999c0 15.333 -6 27 -18 35s-33 12 -63 12h-180
c-6.66699 -6.66699 -11.5 -14.167 -14.5 -22.5s-4.5 -16.5 -4.5 -24.5c0 -19.333 8.33301 -33.5 25 -42.5s45 -13.5 85 -13.5h60c40 0 68.333 4.5 85 13.5s25 23.167 25 42.5zM275.999 576.001c-22 0 -39.1689 5.33105 -51.502 15.998s-18.5 26 -18.5 46v14
c0 30.667 6.33301 60.334 19 89.001s28.667 51.334 48 68.001h85c-17.333 -14.667 -30.666 -29.834 -39.999 -45.501s-16.666 -33.5 -21.999 -53.5c19.333 -1.33301 32.5 -8.16602 39.5 -20.499s10.5 -25.833 10.5 -40.5v-11c0 -20 -6.16699 -35.333 -18.5 -46
s-29.5 -16 -51.5 -16z" />
    <glyph glyph-name="Hcircumflex" unicode="&#x124;" horiz-adv-x="724" 
d="M495 286h-266v-286h-152v698h152v-278h266v278h152v-698h-152v286zM424 956l132 -159l-73 -58l-121 115l-121 -115l-73 58l132 159h124z" />
    <glyph glyph-name="hcircumflex" unicode="&#x125;" horiz-adv-x="596" 
d="M69 740l148.002 0.00195312v-304h6c9.33301 27.333 25.666 51 48.999 71s55.666 30 96.999 30c54 0 94.833 -18 122.5 -54s41.5 -87.333 41.5 -154v-329h-148v317c0 34 -5.33301 59.167 -16 75.5s-29.667 24.5 -57 24.5c-12 0 -23.667 -1.5 -35 -4.5
s-21.5 -7.83301 -30.5 -14.5s-16.167 -14.834 -21.5 -24.501s-8 -20.834 -8 -33.501v-340h-148v740zM206.002 953.002l132 -159l-73 -58l-121 115l-121 -115l-73 58l132 159h124z" />
    <glyph glyph-name="Hbar" unicode="&#x126;" horiz-adv-x="734" 
d="M500 286h-266v-286h-152v506h-74v114h74v78h152v-78h266v78h152v-78h74v-114h-74v-506h-152v286zM500 420v86h-266v-86h266z" />
    <glyph glyph-name="hbar" unicode="&#x127;" horiz-adv-x="596" 
d="M69 0l0.00195312 590.002h-62v100h62v50h148v-50h140v-100h-140v-154h6c9.33301 27.333 25.666 51 48.999 71s55.666 30 96.999 30c54 0 94.833 -18 122.5 -54s41.5 -87.333 41.5 -154v-329h-148v317c0 34 -5.33301 59.167 -16 75.5s-29.667 24.5 -57 24.5
c-12 0 -23.667 -1.5 -35 -4.5s-21.5 -7.83301 -30.5 -14.5s-16.167 -14.834 -21.5 -24.501s-8 -20.834 -8 -33.501v-340h-148z" />
    <glyph glyph-name="Itilde" unicode="&#x128;" horiz-adv-x="432" 
d="M50 0v121h90v456h-90v121h332v-121h-90v-456h90v-121h-332zM293 762c-15.333 0 -28.833 2 -40.5 6s-23.834 8.66699 -36.501 14c-14.667 6 -28 11.167 -40 15.5s-24.667 6.5 -38 6.5c-11.333 0 -21.333 -2 -30 -6s-18.334 -10.333 -29.001 -19l-52 68
c12 18 27.333 33.167 46 45.5s41.334 18.5 68.001 18.5c15.333 0 28.833 -2 40.5 -6s23.834 -8.66699 36.501 -14c14.667 -6 28 -11.167 40 -15.5s24.667 -6.5 38 -6.5c11.333 0 21.333 2 30 6s18.334 10.333 29.001 19l52 -68c-12 -18 -27.333 -33.167 -46 -45.5
s-41.334 -18.5 -68.001 -18.5z" />
    <glyph glyph-name="itilde" unicode="&#x129;" horiz-adv-x="286" 
d="M69 0v525h148v-525h-148zM220 601c-15.333 0 -28.833 2 -40.5 6s-23.834 8.66699 -36.501 14c-14.667 6 -28 11.167 -40 15.5s-24.667 6.5 -38 6.5c-11.333 0 -21.333 -2 -30 -6s-18.334 -10.333 -29.001 -19l-52 68c12 18 27.333 33.167 46 45.5
s41.334 18.5 68.001 18.5c15.333 0 28.833 -2 40.5 -6s23.834 -8.66699 36.501 -14c14.667 -6 28 -11.167 40 -15.5s24.667 -6.5 38 -6.5c11.333 0 21.333 2 30 6s18.334 10.333 29.001 19l52 -68c-12 -18 -27.333 -33.167 -46 -45.5s-41.334 -18.5 -68.001 -18.5z" />
    <glyph glyph-name="Imacron" unicode="&#x12a;" horiz-adv-x="432" 
d="M50 0v121h90v456h-90v121h332v-121h-90v-456h90v-121h-332zM64 888h306v-103h-306v103z" />
    <glyph glyph-name="imacron" unicode="&#x12b;" horiz-adv-x="286" 
d="M69 0v525h148v-525h-148zM-9 727h306v-103h-306v103z" />
    <glyph glyph-name="Ibreve" unicode="&#x12c;" horiz-adv-x="432" 
d="M50 0v121h90v456h-90v121h332v-121h-90v-456h90v-121h-332zM217 740c-29.333 0 -54.6689 5.5 -76.002 16.5s-39.5 24.833 -54.5 41.5s-27.167 35 -36.5 55s-17 39 -23 57l81 42l19 -32c14.667 -24.667 28.667 -43.667 42 -57s29.333 -20 48 -20s34.834 6.66699 48.501 20
s27.834 32.333 42.501 57l19 32l80 -42c-6 -18 -14 -37 -24 -57s-22.5 -38.333 -37.5 -55s-33.167 -30.5 -54.5 -41.5s-46 -16.5 -74 -16.5z" />
    <glyph glyph-name="ibreve" unicode="&#x12d;" horiz-adv-x="286" 
d="M69 0v525h148v-525h-148zM144 579c-29.333 0 -54.667 5.5 -76 16.5s-39.333 24.833 -54 41.5s-26.834 35 -36.501 55s-17.5 39 -23.5 57l81 42l20 -33c14.667 -24 28.834 -42.667 42.501 -56s29.167 -20 46.5 -20s33 6.66699 47 20s28.333 32 43 56l20 33l80 -42
c-6 -18 -14 -37 -24 -57s-22.667 -38.333 -38 -55s-33.5 -30.5 -54.5 -41.5s-45.5 -16.5 -73.5 -16.5z" />
    <glyph glyph-name="Iogonek" unicode="&#x12e;" horiz-adv-x="432" 
d="M50 121l90 0.000976562v456h-90v121h333v-121h-91v-456h91v-121c-24.667 -15.333 -44.5 -28.166 -59.5 -38.499s-26.5 -19.5 -34.5 -27.5s-13.333 -15 -16 -21s-4 -12 -4 -18c0 -12.667 3.83301 -21.334 11.5 -26.001s16.5 -7 26.5 -7c12 0 22.333 2.66699 31 8
s16.667 12 24 20l53 -51c-8.66699 -16 -23.167 -28.5 -43.5 -37.5s-46.5 -13.5 -78.5 -13.5c-16.667 0 -32.5 1.5 -47.5 4.5s-28.167 7.66699 -39.5 14s-20.333 15 -27 26s-10 24.5 -10 40.5c0 28 10.5 51.167 31.5 69.5s50.167 36.166 87.5 53.499l-1 4h-237v121z" />
    <glyph glyph-name="iogonek" unicode="&#x12f;" horiz-adv-x="286" 
d="M69 525l148 0.000976562v-525c-24.667 -15.333 -44.5 -28.166 -59.5 -38.499s-26.5 -19.5 -34.5 -27.5s-13.333 -15 -16 -21s-4 -12 -4 -18c0 -12.667 3.83301 -21.334 11.5 -26.001s16.5 -7 26.5 -7c12 0 22.333 2.66699 31 8s16.667 12 24 20l53 -51
c-8.66699 -16 -23.167 -28.5 -43.5 -37.5s-46.5 -13.5 -78.5 -13.5c-16.667 0 -32.5 1.5 -47.5 4.5s-28.167 7.66699 -39.5 14s-20.333 15 -27 26s-10 24.5 -10 40.5c0 28 10.5 51.167 31.5 69.5s50.167 36.166 87.5 53.499l-1 4h-52v525zM143 581.001
c-30 0 -51.833 6.83301 -65.5 20.5s-20.5 31.167 -20.5 52.5v22c0 21.333 6.83301 38.833 20.5 52.5s35.5 20.5 65.5 20.5s51.833 -6.83301 65.5 -20.5s20.5 -31.167 20.5 -52.5v-22c0 -21.333 -6.83301 -38.833 -20.5 -52.5s-35.5 -20.5 -65.5 -20.5z" />
    <glyph glyph-name="Idotaccent" unicode="&#x130;" horiz-adv-x="432" 
d="M50 0v121h90v456h-90v121h332v-121h-90v-456h90v-121h-332zM217 752c-33.333 0 -56.5 6.83301 -69.5 20.5s-19.5 30.167 -19.5 49.5v29c0 19.333 6.5 35.833 19.5 49.5s36.167 20.5 69.5 20.5s56.5 -6.83301 69.5 -20.5s19.5 -30.167 19.5 -49.5v-29
c0 -19.333 -6.5 -35.833 -19.5 -49.5s-36.167 -20.5 -69.5 -20.5z" />
    <glyph glyph-name="dotlessi" unicode="&#x131;" horiz-adv-x="286" 
d="M69 0v525h148v-525h-148z" />
    <glyph glyph-name="IJ" unicode="&#x132;" horiz-adv-x="656" 
d="M583 698l-0.00195312 -488c0 -34 -6 -64.667 -18 -92s-29.167 -50.5 -51.5 -69.5s-49 -33.667 -80 -44s-65.5 -15.5 -103.5 -15.5c-74 0 -131.667 18 -173 54s-67 83.333 -77 142l142 28c5.33301 -30 17.333 -52.667 36 -68s42.334 -23 71.001 -23
c12.667 0 25.167 1.83301 37.5 5.5s23.333 9.33398 33 17.001s17.334 17.667 23.001 30s8.5 27.166 8.5 44.499v357h-88v122h240zM72.998 698h152v-389h-152v389z" />
    <glyph glyph-name="ij" unicode="&#x133;" horiz-adv-x="566" 
d="M143 581c-30 0 -51.833 6.83301 -65.5 20.5s-20.5 31.167 -20.5 52.5v22c0 21.333 6.83301 38.833 20.5 52.5s35.5 20.5 65.5 20.5s51.833 -6.83301 65.5 -20.5s20.5 -31.167 20.5 -52.5v-22c0 -21.333 -6.83301 -38.833 -20.5 -52.5s-35.5 -20.5 -65.5 -20.5zM69 525
h148v-525h-148v525zM349 525l148 0.000976562v-581c0 -46.667 -11.667 -82.334 -35 -107.001s-61 -37 -113 -37h-78v115h78v610zM423 581.001c-30 0 -51.833 6.83301 -65.5 20.5s-20.5 31.167 -20.5 52.5v22c0 21.333 6.83301 38.833 20.5 52.5s35.5 20.5 65.5 20.5
s51.833 -6.83301 65.5 -20.5s20.5 -31.167 20.5 -52.5v-22c0 -21.333 -6.83301 -38.833 -20.5 -52.5s-35.5 -20.5 -65.5 -20.5z" />
    <glyph glyph-name="Jcircumflex" unicode="&#x134;" horiz-adv-x="559" 
d="M486 698v-496.001c0 -32 -5.16699 -61.167 -15.5 -87.5s-25.5 -48.666 -45.5 -66.999s-44.167 -32.666 -72.5 -42.999s-60.5 -15.5 -96.5 -15.5c-34.667 0 -65.167 4.66699 -91.5 14s-49 22.666 -68 39.999s-34.5 38 -46.5 62s-20.333 50.667 -25 80l142 28
c11.333 -60.667 40.333 -91 87 -91c22 0 40.833 7 56.5 21s23.5 36 23.5 66v367h-212v122h364zM365 955.999l132 -159l-73 -58l-121 115l-121 -115l-73 58l132 159h124z" />
    <glyph glyph-name="jcircumflex" unicode="&#x135;" horiz-adv-x="286" 
d="M-9 -85l78 0.000976562v610h148v-581c0 -46.667 -11.667 -82.334 -35 -107.001s-61 -37 -113 -37h-78v115zM206 795.001l132 -159l-73 -58l-121 115l-121 -115l-73 58l132 159h124z" />
    <glyph glyph-name="Kcommaaccent" unicode="&#x136;" horiz-adv-x="696" 
d="M320 304l-91 -110v-194h-152v698h152v-332h6l99 135l157 197h172l-235 -287l256 -411h-179zM364 -42c22 0 39.1689 -5.33105 51.502 -15.998s18.5 -26 18.5 -46v-14c0 -30.667 -6.33301 -60.334 -19 -89.001s-28.667 -51.334 -48 -68.001h-85
c17.333 14.667 30.666 29.834 39.999 45.501s16.666 33.5 21.999 53.5c-19.333 1.33301 -32.5 8.16602 -39.5 20.499s-10.5 25.833 -10.5 40.5v11c0 20 6.16699 35.333 18.5 46s29.5 16 51.5 16z" />
    <glyph glyph-name="kcommaaccent" unicode="&#x137;" horiz-adv-x="577" 
d="M69 740h148v-437h6l65 97l105 125h164l-175 -201l195 -324h-176l-118 222l-66 -74v-148h-148v740zM323 -42c22 0 39.1689 -5.33105 51.502 -15.998s18.5 -26 18.5 -46v-14c0 -30.667 -6.33301 -60.334 -19 -89.001s-28.667 -51.334 -48 -68.001h-85
c17.333 14.667 30.666 29.834 39.999 45.501s16.666 33.5 21.999 53.5c-19.333 1.33301 -32.5 8.16602 -39.5 20.499s-10.5 25.833 -10.5 40.5v11c0 20 6.16699 35.333 18.5 46s29.5 16 51.5 16z" />
    <glyph glyph-name="kgreenlandic" unicode="&#x138;" horiz-adv-x="577" 
d="M282 219l-65 -71v-148h-148v525h148v-222h6l69 93l113 129h166l-186 -205l192 -320h-173z" />
    <glyph glyph-name="Lacute" unicode="&#x139;" horiz-adv-x="530" 
d="M77 0v698h152v-563h266v-135h-418zM170 740l-88 43l99 194l123 -61z" />
    <glyph glyph-name="lacute" unicode="&#x13a;" horiz-adv-x="303" 
d="M216 0c-50.667 0 -87.833 12.332 -111.5 36.999s-35.5 60.334 -35.5 107.001v596h148v-625h66v-115h-67zM160.001 778.999l-88 43l99 194l123 -61z" />
    <glyph glyph-name="Lcommaaccent" unicode="&#x13b;" horiz-adv-x="530" 
d="M77 0v698h152v-563h266v-135h-418zM285 -42c22 0 39.1689 -5.33105 51.502 -15.998s18.5 -26 18.5 -46v-14c0 -30.667 -6.33301 -60.334 -19 -89.001s-28.667 -51.334 -48 -68.001h-85c17.333 14.667 30.666 29.834 39.999 45.501s16.666 33.5 21.999 53.5
c-19.333 1.33301 -32.5 8.16602 -39.5 20.499s-10.5 25.833 -10.5 40.5v11c0 20 6.16699 35.333 18.5 46s29.5 16 51.5 16z" />
    <glyph glyph-name="lcommaaccent" unicode="&#x13c;" horiz-adv-x="303" 
d="M216 0c-50.667 0 -87.833 12.332 -111.5 36.999s-35.5 60.334 -35.5 107.001v596h148v-625h66v-115h-67zM174.001 -42.001c22 0 39.1689 -5.33105 51.502 -15.998s18.5 -26 18.5 -46v-14c0 -30.667 -6.33301 -60.334 -19 -89.001s-28.667 -51.334 -48 -68.001h-85
c17.333 14.667 30.666 29.834 39.999 45.501s16.666 33.5 21.999 53.5c-19.333 1.33301 -32.5 8.16602 -39.5 20.499s-10.5 25.833 -10.5 40.5v11c0 20 6.16699 35.333 18.5 46s29.5 16 51.5 16z" />
    <glyph glyph-name="Lcaron" unicode="&#x13d;" horiz-adv-x="530" 
d="M77 0v698h152v-563h266v-135h-418zM398 525h-97l6 215h157z" />
    <glyph glyph-name="lcaron" unicode="&#x13e;" horiz-adv-x="360" 
d="M216 0c-50.667 0 -87.833 12.332 -111.5 36.999s-35.5 60.334 -35.5 107.001v596h148v-625h66v-115h-67zM377.001 524.999h-97l6 215h157z" />
    <glyph glyph-name="Ldot" unicode="&#x13f;" horiz-adv-x="530" 
d="M77 0v698h152v-563h266v-135h-418zM414 322c-33.333 0 -56.5 6.83301 -69.5 20.5s-19.5 30.167 -19.5 49.5v29c0 19.333 6.5 35.833 19.5 49.5s36.167 20.5 69.5 20.5s56.5 -6.83301 69.5 -20.5s19.5 -30.167 19.5 -49.5v-29c0 -19.333 -6.5 -35.833 -19.5 -49.5
s-36.167 -20.5 -69.5 -20.5z" />
    <glyph glyph-name="ldot" unicode="&#x140;" horiz-adv-x="448" 
d="M216 0c-50.667 0 -87.833 12.332 -111.5 36.999s-35.5 60.334 -35.5 107.001v596h148v-625h66v-115h-67zM363.001 273.999c-33.333 0 -56.5 6.83301 -69.5 20.5s-19.5 30.167 -19.5 49.5v29c0 19.333 6.5 35.833 19.5 49.5s36.167 20.5 69.5 20.5
s56.5 -6.83301 69.5 -20.5s19.5 -30.167 19.5 -49.5v-29c0 -19.333 -6.5 -35.833 -19.5 -49.5s-36.167 -20.5 -69.5 -20.5z" />
    <glyph glyph-name="Lslash" unicode="&#x141;" horiz-adv-x="540" 
d="M500 0h-418v243l-89 -29v113l89 29v342h152v-294l158 51v-113l-158 -51v-156h266v-135z" />
    <glyph glyph-name="lslash" unicode="&#x142;" horiz-adv-x="314" 
d="M289 0l-66.999 -0.000976562c-50.667 0 -87.834 12.333 -111.501 37s-35.5 60.334 -35.5 107.001v151l-77 -25v109l77 25v336h148v-288l104 34v-109l-104 -34v-228h66v-115z" />
    <glyph glyph-name="Nacute" unicode="&#x143;" horiz-adv-x="724" 
d="M290 330l-67 140h-3v-470h-143v698h166l191 -330l67 -140h3v470h143v-698h-166zM377 740l-88 43l99 194l123 -61z" />
    <glyph glyph-name="nacute" unicode="&#x144;" horiz-adv-x="596" 
d="M69 0l0.00195312 525.002h148v-89h6c9.33301 27.333 25.666 51 48.999 71s55.666 30 96.999 30c54 0 94.833 -18 122.5 -54s41.5 -87.333 41.5 -154v-329h-148v317c0 34 -5.33301 59.167 -16 75.5s-29.667 24.5 -57 24.5c-12 0 -23.667 -1.5 -35 -4.5
s-21.5 -7.83301 -30.5 -14.5s-16.167 -14.834 -21.5 -24.501s-8 -20.834 -8 -33.501v-340h-148zM316.002 579.002l-88 43l99 194l123 -61z" />
    <glyph glyph-name="Ncommaaccent" unicode="&#x145;" horiz-adv-x="724" 
d="M290 330l-67 140h-3v-470h-143v698h166l191 -330l67 -140h3v470h143v-698h-166zM360 -42c22 0 39.1689 -5.33105 51.502 -15.998s18.5 -26 18.5 -46v-14c0 -30.667 -6.33301 -60.334 -19 -89.001s-28.667 -51.334 -48 -68.001h-85
c17.333 14.667 30.666 29.834 39.999 45.501s16.666 33.5 21.999 53.5c-19.333 1.33301 -32.5 8.16602 -39.5 20.499s-10.5 25.833 -10.5 40.5v11c0 20 6.16699 35.333 18.5 46s29.5 16 51.5 16z" />
    <glyph glyph-name="ncommaaccent" unicode="&#x146;" horiz-adv-x="596" 
d="M69 0l0.00195312 525.002h148v-89h6c9.33301 27.333 25.666 51 48.999 71s55.666 30 96.999 30c54 0 94.833 -18 122.5 -54s41.5 -87.333 41.5 -154v-329h-148v317c0 34 -5.33301 59.167 -16 75.5s-29.667 24.5 -57 24.5c-12 0 -23.667 -1.5 -35 -4.5
s-21.5 -7.83301 -30.5 -14.5s-16.167 -14.834 -21.5 -24.501s-8 -20.834 -8 -33.501v-340h-148zM301.002 -41.998c22 0 39.1689 -5.33105 51.502 -15.998s18.5 -26 18.5 -46v-14c0 -30.667 -6.33301 -60.334 -19 -89.001s-28.667 -51.334 -48 -68.001h-85
c17.333 14.667 30.666 29.834 39.999 45.501s16.666 33.5 21.999 53.5c-19.333 1.33301 -32.5 8.16602 -39.5 20.499s-10.5 25.833 -10.5 40.5v11c0 20 6.16699 35.333 18.5 46s29.5 16 51.5 16z" />
    <glyph glyph-name="Ncaron" unicode="&#x147;" horiz-adv-x="724" 
d="M290 330l-67 140h-3v-470h-143v698h166l191 -330l67 -140h3v470h143v-698h-166zM299 748l-132 159l73 58l121 -115l121 115l73 -58l-132 -159h-124z" />
    <glyph glyph-name="ncaron" unicode="&#x148;" horiz-adv-x="596" 
d="M69 0l0.00195312 525.002h148v-89h6c9.33301 27.333 25.666 51 48.999 71s55.666 30 96.999 30c54 0 94.833 -18 122.5 -54s41.5 -87.333 41.5 -154v-329h-148v317c0 34 -5.33301 59.167 -16 75.5s-29.667 24.5 -57 24.5c-12 0 -23.667 -1.5 -35 -4.5
s-21.5 -7.83301 -30.5 -14.5s-16.167 -14.834 -21.5 -24.501s-8 -20.834 -8 -33.501v-340h-148zM238.002 587.002l-132 159l73 58l121 -115l121 115l73 -58l-132 -159h-124z" />
    <glyph glyph-name="napostrophe" unicode="&#x149;" horiz-adv-x="886" 
d="M152 750c30 0 51.833 -6.83301 65.5 -20.5s20.5 -30.834 20.5 -51.501v-21c0 -19.333 -2.83301 -38.833 -8.5 -58.5s-13.334 -38.5 -23.001 -56.5s-21.167 -34.833 -34.5 -50.5s-27.666 -29.5 -42.999 -41.5h-93c22 20 40.833 40.333 56.5 61s27.5 43.667 35.5 69
c-21.333 4 -37 12.833 -47 26.5s-15 29.167 -15 46.5v25c0 20.667 6.83301 37.834 20.5 51.501s35.5 20.5 65.5 20.5zM359 0l0.00195312 525.002h148v-89h6c9.33301 27.333 25.666 51 48.999 71s55.666 30 96.999 30c54 0 94.833 -18 122.5 -54s41.5 -87.333 41.5 -154v-329
h-148v317c0 34 -5.33301 59.167 -16 75.5s-29.667 24.5 -57 24.5c-12 0 -23.667 -1.5 -35 -4.5s-21.5 -7.83301 -30.5 -14.5s-16.167 -14.834 -21.5 -24.501s-8 -20.834 -8 -33.501v-340h-148z" />
    <glyph glyph-name="Eng" unicode="&#x14a;" horiz-adv-x="724" 
d="M77 0v698.001h166l191 -330l67 -140h3v470h143v-754c0 -46.667 -11.833 -82.334 -35.5 -107.001s-61.167 -37 -112.5 -37h-79v115h84v85h-23l-191 330l-67 140h-3v-470h-143z" />
    <glyph glyph-name="eng" unicode="&#x14b;" horiz-adv-x="596" 
d="M307 -85l78.001 0.000976562v402c0 34 -5.33301 59.167 -16 75.5s-29.667 24.5 -57 24.5c-12 0 -23.667 -1.5 -35 -4.5s-21.5 -7.66699 -30.5 -14s-16.167 -14.333 -21.5 -24s-8 -21.167 -8 -34.5v-340h-148v525h148v-89h6c9.33301 27.333 25.666 51 48.999 71
s55.666 30 96.999 30c54 0 94.833 -18 122.5 -54s41.5 -87.333 41.5 -154v-385c0 -46.667 -11.667 -82.334 -35 -107.001s-60.666 -37 -111.999 -37h-79v115z" />
    <glyph glyph-name="Omacron" unicode="&#x14c;" horiz-adv-x="714" 
d="M357 -12c-46 0 -88 7.66699 -126 23s-70.333 38.166 -97 68.499s-47.334 68 -62.001 113s-22 97.167 -22 156.5s7.33301 111.5 22 156.5s35.334 82.667 62.001 113s59 53.166 97 68.499s80 23 126 23s88 -7.66699 126 -23s70.333 -38.166 97 -68.499
s47.334 -68 62.001 -113s22 -97.167 22 -156.5s-7.33301 -111.5 -22 -156.5s-35.334 -82.667 -62.001 -113s-59 -53.166 -97 -68.499s-80 -23 -126 -23zM357 123c46 0 81.833 15 107.5 45s38.5 73 38.5 129v104c0 56 -12.833 99 -38.5 129s-61.5 45 -107.5 45
s-81.833 -15 -107.5 -45s-38.5 -73 -38.5 -129v-104c0 -56 12.833 -99 38.5 -129s61.5 -45 107.5 -45zM204 888h306v-103h-306v103z" />
    <glyph glyph-name="omacron" unicode="&#x14d;" horiz-adv-x="564" 
d="M282 -12c-38.667 0 -73.167 6.33301 -103.5 19s-56 31 -77 55s-37.167 53 -48.5 87s-17 72 -17 114s5.66699 80 17 114s27.5 62.833 48.5 86.5s46.667 41.834 77 54.501s64.833 19 103.5 19s73.167 -6.33301 103.5 -19s56 -30.834 77 -54.501s37.167 -52.5 48.5 -86.5
s17 -72 17 -114s-5.66699 -80 -17 -114s-27.5 -63 -48.5 -87s-46.667 -42.333 -77 -55s-64.833 -19 -103.5 -19zM282 105c29.333 0 52 9 68 27s24 43.667 24 77v107c0 33.333 -8 59 -24 77s-38.667 27 -68 27s-52 -9 -68 -27s-24 -43.667 -24 -77v-107
c0 -33.333 8 -59 24 -77s38.667 -27 68 -27zM129 727h306v-103h-306v103z" />
    <glyph glyph-name="Obreve" unicode="&#x14e;" horiz-adv-x="714" 
d="M357 -12c-46 0 -88 7.66699 -126 23s-70.333 38.166 -97 68.499s-47.334 68 -62.001 113s-22 97.167 -22 156.5s7.33301 111.5 22 156.5s35.334 82.667 62.001 113s59 53.166 97 68.499s80 23 126 23s88 -7.66699 126 -23s70.333 -38.166 97 -68.499
s47.334 -68 62.001 -113s22 -97.167 22 -156.5s-7.33301 -111.5 -22 -156.5s-35.334 -82.667 -62.001 -113s-59 -53.166 -97 -68.499s-80 -23 -126 -23zM357 123c46 0 81.833 15 107.5 45s38.5 73 38.5 129v104c0 56 -12.833 99 -38.5 129s-61.5 45 -107.5 45
s-81.833 -15 -107.5 -45s-38.5 -73 -38.5 -129v-104c0 -56 12.833 -99 38.5 -129s61.5 -45 107.5 -45zM357 740c-29.333 0 -54.6689 5.5 -76.002 16.5s-39.5 24.833 -54.5 41.5s-27.167 35 -36.5 55s-17 39 -23 57l81 42l19 -32c14.667 -24.667 28.667 -43.667 42 -57
s29.333 -20 48 -20s34.834 6.66699 48.501 20s27.834 32.333 42.501 57l19 32l80 -42c-6 -18 -14 -37 -24 -57s-22.5 -38.333 -37.5 -55s-33.167 -30.5 -54.5 -41.5s-46 -16.5 -74 -16.5z" />
    <glyph glyph-name="obreve" unicode="&#x14f;" horiz-adv-x="564" 
d="M282 -12c-38.667 0 -73.167 6.33301 -103.5 19s-56 31 -77 55s-37.167 53 -48.5 87s-17 72 -17 114s5.66699 80 17 114s27.5 62.833 48.5 86.5s46.667 41.834 77 54.501s64.833 19 103.5 19s73.167 -6.33301 103.5 -19s56 -30.834 77 -54.501s37.167 -52.5 48.5 -86.5
s17 -72 17 -114s-5.66699 -80 -17 -114s-27.5 -63 -48.5 -87s-46.667 -42.333 -77 -55s-64.833 -19 -103.5 -19zM282 105c29.333 0 52 9 68 27s24 43.667 24 77v107c0 33.333 -8 59 -24 77s-38.667 27 -68 27s-52 -9 -68 -27s-24 -43.667 -24 -77v-107
c0 -33.333 8 -59 24 -77s38.667 -27 68 -27zM282 579c-29.333 0 -54.667 5.5 -76 16.5s-39.333 24.833 -54 41.5s-26.834 35 -36.501 55s-17.5 39 -23.5 57l81 42l20 -33c14.667 -24 28.834 -42.667 42.501 -56s29.167 -20 46.5 -20s33 6.66699 47 20s28.333 32 43 56l20 33
l80 -42c-6 -18 -14 -37 -24 -57s-22.667 -38.333 -38 -55s-33.5 -30.5 -54.5 -41.5s-45.5 -16.5 -73.5 -16.5z" />
    <glyph glyph-name="Ohungarumlaut" unicode="&#x150;" horiz-adv-x="714" 
d="M357 -12c-46 0 -88 7.66699 -126 23s-70.333 38.166 -97 68.499s-47.334 68 -62.001 113s-22 97.167 -22 156.5s7.33301 111.5 22 156.5s35.334 82.667 62.001 113s59 53.166 97 68.499s80 23 126 23s88 -7.66699 126 -23s70.333 -38.166 97 -68.499
s47.334 -68 62.001 -113s22 -97.167 22 -156.5s-7.33301 -111.5 -22 -156.5s-35.334 -82.667 -62.001 -113s-59 -53.166 -97 -68.499s-80 -23 -126 -23zM357 123c46 0 81.833 15 107.5 45s38.5 73 38.5 129v104c0 56 -12.833 99 -38.5 129s-61.5 45 -107.5 45
s-81.833 -15 -107.5 -45s-38.5 -73 -38.5 -129v-104c0 -56 12.833 -99 38.5 -129s61.5 -45 107.5 -45zM267 740l-81 39l99 194l116 -57zM472 740l-81 39l99 194l116 -57z" />
    <glyph glyph-name="ohungarumlaut" unicode="&#x151;" horiz-adv-x="564" 
d="M282 -12c-38.667 0 -73.167 6.33301 -103.5 19s-56 31 -77 55s-37.167 53 -48.5 87s-17 72 -17 114s5.66699 80 17 114s27.5 62.833 48.5 86.5s46.667 41.834 77 54.501s64.833 19 103.5 19s73.167 -6.33301 103.5 -19s56 -30.834 77 -54.501s37.167 -52.5 48.5 -86.5
s17 -72 17 -114s-5.66699 -80 -17 -114s-27.5 -63 -48.5 -87s-46.667 -42.333 -77 -55s-64.833 -19 -103.5 -19zM282 105c29.333 0 52 9 68 27s24 43.667 24 77v107c0 33.333 -8 59 -24 77s-38.667 27 -68 27s-52 -9 -68 -27s-24 -43.667 -24 -77v-107
c0 -33.333 8 -59 24 -77s38.667 -27 68 -27zM192 579l-81 39l99 194l116 -57zM397 579l-81 39l99 194l116 -57z" />
    <glyph glyph-name="OE" unicode="&#x152;" horiz-adv-x="998" 
d="M472 0c-14.667 -4 -31.832 -6.99805 -51.499 -8.99805s-40.834 -3 -63.501 -3c-46 0 -88 7.66699 -126 23s-70.333 38.166 -97 68.499s-47.334 68 -62.001 113s-22 97.167 -22 156.5s7.33301 111.5 22 156.5s35.334 82.667 62.001 113s59 53.166 97 68.499s80 23 126 23
c44.667 0 85.667 -4 123 -12h463v-135h-324v-143h278v-134h-278v-151h324v-135h-471zM357.002 123.002c39.333 0 75.998 3 109.998 9v433c-17.333 3.33301 -35.166 5.83301 -53.499 7.5s-37.166 2.5 -56.499 2.5c-45.333 0 -81 -15 -107 -45s-39 -73 -39 -129v-104
c0 -56 13 -99 39 -129s61.667 -45 107 -45z" />
    <glyph glyph-name="oe" unicode="&#x153;" horiz-adv-x="901" 
d="M282 105c29.333 0 52 9 68 27s24 43.667 24 77v107c0 33.333 -8 59 -24 77s-38.667 27 -68 27s-52 -9 -68 -27s-24 -43.667 -24 -77v-107c0 -33.333 8 -59 24 -77s38.667 -27 68 -27zM711 312v9.00098c0 32 -7.16699 57.833 -21.5 77.5s-36.5 29.5 -66.5 29.5
s-53.5 -9.83301 -70.5 -29.5s-25.5 -45.834 -25.5 -78.501v-8h184zM630 -11.999c-44.667 0 -82.498 6.83398 -113.498 20.501s-51.833 31.5 -62.5 53.5h-6c-13.333 -23.333 -33.833 -41.5 -61.5 -54.5s-62.5 -19.5 -104.5 -19.5c-38.667 0 -73.167 6.5 -103.5 19.5
s-56 31.667 -77 56s-37.167 53.666 -48.5 87.999s-17 72.5 -17 114.5c0 84.667 21.667 151 65 199s103.666 72 180.999 72c38 0 71.167 -5.83301 99.5 -17.5s50.5 -30.5 66.5 -56.5h6c13.333 23.333 34.666 41.5 63.999 54.5s65 19.5 107 19.5c38.667 0 73 -6.33301 103 -19
s55.167 -30.667 75.5 -54s35.666 -51.5 45.999 -84.5s15.5 -69.833 15.5 -110.5v-44h-338v-8c0 -34.667 9.83301 -62.167 29.5 -82.5s49.834 -30.5 90.501 -30.5c30.667 0 55.667 6.16699 75 18.5s37.333 27.166 54 44.499l74 -92
c-23.333 -27.333 -53.833 -48.666 -91.5 -63.999s-80.5 -23 -128.5 -23z" />
    <glyph glyph-name="Racute" unicode="&#x154;" horiz-adv-x="674" 
d="M229 0l-152 -0.000976562v698h331c32 0 61 -5.33301 87 -16s48.167 -25.834 66.5 -45.501s32.5 -43.167 42.5 -70.5s15 -57.666 15 -90.999c0 -47.333 -10.5 -88.666 -31.5 -123.999s-52.833 -61 -95.5 -77l137 -274h-169l-122 256h-109v-256zM389 383.999
c22.667 0 40.5 5.83105 53.5 17.498s19.5 28.834 19.5 51.501v44c0 22.667 -6.5 39.834 -19.5 51.501s-30.833 17.5 -53.5 17.5h-160v-182h160zM340 739.997l-88 43l99 194l123 -61z" />
    <glyph glyph-name="racute" unicode="&#x155;" horiz-adv-x="404" 
d="M69 0l-0.000976562 524.998h148v-114h5c2.66699 14.667 7.33398 28.834 14.001 42.501s15.5 25.834 26.5 36.501s24.167 19.167 39.5 25.5s33.333 9.5 54 9.5h26v-138h-37c-43.333 0 -75.5 -5.66699 -96.5 -17s-31.5 -32.333 -31.5 -63v-307h-148zM240.999 578.998
l-88 43l99 194l123 -61z" />
    <glyph glyph-name="Rcommaaccent" unicode="&#x156;" horiz-adv-x="674" 
d="M229 0l-152 -0.000976562v698h331c32 0 61 -5.33301 87 -16s48.167 -25.834 66.5 -45.501s32.5 -43.167 42.5 -70.5s15 -57.666 15 -90.999c0 -47.333 -10.5 -88.666 -31.5 -123.999s-52.833 -61 -95.5 -77l137 -274h-169l-122 256h-109v-256zM389 383.999
c22.667 0 40.5 5.83105 53.5 17.498s19.5 28.834 19.5 51.501v44c0 22.667 -6.5 39.834 -19.5 51.501s-30.833 17.5 -53.5 17.5h-160v-182h160zM353 -42.0029c22 0 39.1689 -5.33105 51.502 -15.998s18.5 -26 18.5 -46v-14c0 -30.667 -6.33301 -60.334 -19 -89.001
s-28.667 -51.334 -48 -68.001h-85c17.333 14.667 30.666 29.834 39.999 45.501s16.666 33.5 21.999 53.5c-19.333 1.33301 -32.5 8.16602 -39.5 20.499s-10.5 25.833 -10.5 40.5v11c0 20 6.16699 35.333 18.5 46s29.5 16 51.5 16z" />
    <glyph glyph-name="rcommaaccent" unicode="&#x157;" horiz-adv-x="404" 
d="M69 0l-0.000976562 524.998h148v-114h5c2.66699 14.667 7.33398 28.834 14.001 42.501s15.5 25.834 26.5 36.501s24.167 19.167 39.5 25.5s33.333 9.5 54 9.5h26v-138h-37c-43.333 0 -75.5 -5.66699 -96.5 -17s-31.5 -32.333 -31.5 -63v-307h-148zM141.999 -42.002
c22 0 39.1689 -5.33105 51.502 -15.998s18.5 -26 18.5 -46v-14c0 -30.667 -6.33301 -60.334 -19 -89.001s-28.667 -51.334 -48 -68.001h-85c17.333 14.667 30.666 29.834 39.999 45.501s16.666 33.5 21.999 53.5c-19.333 1.33301 -32.5 8.16602 -39.5 20.499
s-10.5 25.833 -10.5 40.5v11c0 20 6.16699 35.333 18.5 46s29.5 16 51.5 16z" />
    <glyph glyph-name="Rcaron" unicode="&#x158;" horiz-adv-x="674" 
d="M229 0l-152 -0.000976562v698h331c32 0 61 -5.33301 87 -16s48.167 -25.834 66.5 -45.501s32.5 -43.167 42.5 -70.5s15 -57.666 15 -90.999c0 -47.333 -10.5 -88.666 -31.5 -123.999s-52.833 -61 -95.5 -77l137 -274h-169l-122 256h-109v-256zM389 383.999
c22.667 0 40.5 5.83105 53.5 17.498s19.5 28.834 19.5 51.501v44c0 22.667 -6.5 39.834 -19.5 51.501s-30.833 17.5 -53.5 17.5h-160v-182h160zM262 747.997l-132 159l73 58l121 -115l121 115l73 -58l-132 -159h-124z" />
    <glyph glyph-name="rcaron" unicode="&#x159;" horiz-adv-x="404" 
d="M69 0l-0.000976562 524.998h148v-114h5c2.66699 14.667 7.33398 28.834 14.001 42.501s15.5 25.834 26.5 36.501s24.167 19.167 39.5 25.5s33.333 9.5 54 9.5h26v-138h-37c-43.333 0 -75.5 -5.66699 -96.5 -17s-31.5 -32.333 -31.5 -63v-307h-148zM162.999 586.998
l-132 159l73 58l121 -115l121 115l73 -58l-132 -159h-124z" />
    <glyph glyph-name="Sacute" unicode="&#x15a;" horiz-adv-x="624" 
d="M303 -12c-61.333 0 -113.328 10.5039 -155.995 31.5039s-79 48.167 -109 81.5l100 101c47.333 -53.333 105.666 -80 174.999 -80c37.333 0 65 7.66699 83 23s27 35.666 27 60.999c0 19.333 -5.33301 35.5 -16 48.5s-32.334 21.833 -65.001 26.5l-69 9
c-74 9.33301 -128.167 31.666 -162.5 66.999s-51.5 82.333 -51.5 141c0 31.333 6 60 18 86s29.167 48.333 51.5 67s49.666 33.167 81.999 43.5s69.166 15.5 110.499 15.5c52.667 0 99 -8.33301 139 -25s74.333 -41 103 -73l-101 -102
c-16.667 19.333 -36.834 35.166 -60.501 47.499s-53.5 18.5 -89.5 18.5c-34 0 -59.333 -6 -76 -18s-25 -28.667 -25 -50c0 -24 6.5 -41.333 19.5 -52s34.167 -18.334 63.5 -23.001l69 -11c72 -11.333 125.333 -33.5 160 -66.5s52 -79.833 52 -140.5
c0 -33.333 -6 -64 -18 -92s-29.5 -52 -52.5 -72s-51.5 -35.5 -85.5 -46.5s-72.667 -16.5 -116 -16.5zM326.005 740.004l-88 43l99 194l123 -61z" />
    <glyph glyph-name="sacute" unicode="&#x15b;" horiz-adv-x="504" 
d="M247 -12c-50.667 0 -93.333 8.16504 -128 24.498s-65.667 39.5 -93 69.5l87 88c18.667 -20.667 39.334 -37 62.001 -49s48.334 -18 77.001 -18c29.333 0 49.666 4.5 60.999 13.5s17 21.167 17 36.5c0 24.667 -17.667 39.334 -53 44.001l-57 7
c-118 14.667 -177 68.667 -177 162c0 25.333 4.83301 48.5 14.5 69.5s23.334 39 41.001 54s39 26.667 64 35s53.167 12.5 84.5 12.5c27.333 0 51.5 -1.83301 72.5 -5.5s39.667 -9 56 -16s31.333 -15.667 45 -26s27.167 -21.833 40.5 -34.5l-85 -87
c-16.667 16.667 -35.5 29.834 -56.5 39.501s-42.5 14.5 -64.5 14.5c-25.333 0 -43.333 -4 -54 -12s-16 -18.667 -16 -32c0 -14 3.83301 -24.833 11.5 -32.5s22.167 -13.167 43.5 -16.5l59 -8c115.333 -15.333 173 -68 173 -158c0 -25.333 -5.33301 -48.666 -16 -69.999
s-25.834 -39.833 -45.501 -55.5s-43.334 -27.834 -71.001 -36.501s-58.5 -13 -92.5 -13zM267.001 578.998l-88 43l99 194l123 -61z" />
    <glyph glyph-name="Scircumflex" unicode="&#x15c;" horiz-adv-x="624" 
d="M303 -12c-61.333 0 -113.328 10.5039 -155.995 31.5039s-79 48.167 -109 81.5l100 101c47.333 -53.333 105.666 -80 174.999 -80c37.333 0 65 7.66699 83 23s27 35.666 27 60.999c0 19.333 -5.33301 35.5 -16 48.5s-32.334 21.833 -65.001 26.5l-69 9
c-74 9.33301 -128.167 31.666 -162.5 66.999s-51.5 82.333 -51.5 141c0 31.333 6 60 18 86s29.167 48.333 51.5 67s49.666 33.167 81.999 43.5s69.166 15.5 110.499 15.5c52.667 0 99 -8.33301 139 -25s74.333 -41 103 -73l-101 -102
c-16.667 19.333 -36.834 35.166 -60.501 47.499s-53.5 18.5 -89.5 18.5c-34 0 -59.333 -6 -76 -18s-25 -28.667 -25 -50c0 -24 6.5 -41.333 19.5 -52s34.167 -18.334 63.5 -23.001l69 -11c72 -11.333 125.333 -33.5 160 -66.5s52 -79.833 52 -140.5
c0 -33.333 -6 -64 -18 -92s-29.5 -52 -52.5 -72s-51.5 -35.5 -85.5 -46.5s-72.667 -16.5 -116 -16.5zM372.005 956.004l132 -159l-73 -58l-121 115l-121 -115l-73 58l132 159h124z" />
    <glyph glyph-name="scircumflex" unicode="&#x15d;" horiz-adv-x="504" 
d="M247 -12c-50.667 0 -93.333 8.16504 -128 24.498s-65.667 39.5 -93 69.5l87 88c18.667 -20.667 39.334 -37 62.001 -49s48.334 -18 77.001 -18c29.333 0 49.666 4.5 60.999 13.5s17 21.167 17 36.5c0 24.667 -17.667 39.334 -53 44.001l-57 7
c-118 14.667 -177 68.667 -177 162c0 25.333 4.83301 48.5 14.5 69.5s23.334 39 41.001 54s39 26.667 64 35s53.167 12.5 84.5 12.5c27.333 0 51.5 -1.83301 72.5 -5.5s39.667 -9 56 -16s31.333 -15.667 45 -26s27.167 -21.833 40.5 -34.5l-85 -87
c-16.667 16.667 -35.5 29.834 -56.5 39.501s-42.5 14.5 -64.5 14.5c-25.333 0 -43.333 -4 -54 -12s-16 -18.667 -16 -32c0 -14 3.83301 -24.833 11.5 -32.5s22.167 -13.167 43.5 -16.5l59 -8c115.333 -15.333 173 -68 173 -158c0 -25.333 -5.33301 -48.666 -16 -69.999
s-25.834 -39.833 -45.501 -55.5s-43.334 -27.834 -71.001 -36.501s-58.5 -13 -92.5 -13zM313.001 794.998l132 -159l-73 -58l-121 115l-121 -115l-73 58l132 159h124z" />
    <glyph glyph-name="Scedilla" unicode="&#x15e;" horiz-adv-x="624" 
d="M312 576c-34 0 -59.3252 -5.99805 -75.9922 -17.998s-25 -28.667 -25 -50c0 -24 6.5 -41.333 19.5 -52s34.167 -18.334 63.5 -23.001l69 -11c72 -11.333 125.333 -33.5 160 -66.5s52 -79.833 52 -140.5c0 -31.333 -5.33301 -60.166 -16 -86.499
s-26.167 -49.333 -46.5 -69s-45.333 -35.667 -75 -48s-63.834 -19.833 -102.501 -22.5l-9 -44l4 -4c8 2 16 3.66699 24 5s16 2 24 2c20 0 37.167 -5.33301 51.5 -16s21.5 -28.334 21.5 -53.001c0 -17.333 -3.66699 -31.666 -11 -42.999s-17.166 -20.666 -29.499 -27.999
s-26.5 -12.5 -42.5 -15.5s-32.333 -4.5 -49 -4.5c-34.667 0 -61.834 4.83301 -81.501 14.5s-33.834 19.5 -42.501 29.5l46 56c6.66699 -8 15.5 -14.833 26.5 -20.5s24.167 -8.5 39.5 -8.5c12.667 0 23.167 2 31.5 6s12.5 10.333 12.5 19c0 4 -1 8 -3 12
s-5.83301 7.83301 -11.5 11.5s-13.334 7 -23.001 10s-22.167 5.16699 -37.5 6.5l-21 2l13 63c-52 4 -96.5 16.167 -133.5 36.5s-69.167 45.5 -96.5 75.5l100 101c47.333 -53.333 105.666 -80 174.999 -80c37.333 0 65 7.66699 83 23s27 35.666 27 60.999
c0 19.333 -5.33301 35.5 -16 48.5s-32.334 21.833 -65.001 26.5l-69 9c-74 9.33301 -128.167 31.666 -162.5 66.999s-51.5 82.333 -51.5 141c0 31.333 6 60 18 86s29.167 48.333 51.5 67s49.666 33.167 81.999 43.5s69.166 15.5 110.499 15.5c52.667 0 99 -8.33301 139 -25
s74.333 -41 103 -73l-101 -102c-16.667 19.333 -36.834 35.166 -60.501 47.499s-53.5 18.5 -89.5 18.5z" />
    <glyph glyph-name="scedilla" unicode="&#x15f;" horiz-adv-x="504" 
d="M262 -212c-34.667 0 -61.833 4.83008 -81.5 14.4971s-33.834 19.5 -42.501 29.5l46 56c6.66699 -8 15.5 -14.833 26.5 -20.5s24.167 -8.5 39.5 -8.5c12.667 0 23.167 2 31.5 6s12.5 10.333 12.5 19c0 4 -1 8 -3 12s-5.83301 7.83301 -11.5 11.5s-13.334 7 -23.001 10
s-22.167 5.16699 -37.5 6.5l-21 2l13 64c-40.667 3.33301 -75.834 12.833 -105.501 28.5s-56.167 36.834 -79.5 63.501l87 88c18.667 -20.667 39.334 -37 62.001 -49s48.334 -18 77.001 -18c29.333 0 49.666 4.5 60.999 13.5s17 21.167 17 36.5
c0 24.667 -17.667 39.334 -53 44.001l-57 7c-118 14.667 -177 68.667 -177 162c0 25.333 4.83301 48.5 14.5 69.5s23.334 39 41.001 54s39 26.667 64 35s53.167 12.5 84.5 12.5c27.333 0 51.5 -1.83301 72.5 -5.5s39.667 -9 56 -16s31.333 -15.667 45 -26
s27.167 -21.833 40.5 -34.5l-85 -87c-16.667 16.667 -35.5 29.834 -56.5 39.501s-42.5 14.5 -64.5 14.5c-25.333 0 -43.333 -4 -54 -12s-16 -18.667 -16 -32c0 -14 3.83301 -24.833 11.5 -32.5s22.167 -13.167 43.5 -16.5l59 -8c115.333 -15.333 173 -68 173 -158
c0 -23.333 -4.5 -45 -13.5 -65s-22 -37.667 -39 -53s-37.5 -27.833 -61.5 -37.5s-50.667 -15.834 -80 -18.501l-9 -44l4 -4c8 2 16 3.66699 24 5s16 2 24 2c20 0 37.167 -5.33301 51.5 -16s21.5 -28.334 21.5 -53.001c0 -17.333 -3.66699 -31.666 -11 -42.999
s-17.166 -20.666 -29.499 -27.999s-26.5 -12.5 -42.5 -15.5s-32.333 -4.5 -49 -4.5z" />
    <glyph glyph-name="Scaron" unicode="&#x160;" horiz-adv-x="624" 
d="M303 -12c-61.333 0 -113.328 10.5039 -155.995 31.5039s-79 48.167 -109 81.5l100 101c47.333 -53.333 105.666 -80 174.999 -80c37.333 0 65 7.66699 83 23s27 35.666 27 60.999c0 19.333 -5.33301 35.5 -16 48.5s-32.334 21.833 -65.001 26.5l-69 9
c-74 9.33301 -128.167 31.666 -162.5 66.999s-51.5 82.333 -51.5 141c0 31.333 6 60 18 86s29.167 48.333 51.5 67s49.666 33.167 81.999 43.5s69.166 15.5 110.499 15.5c52.667 0 99 -8.33301 139 -25s74.333 -41 103 -73l-101 -102
c-16.667 19.333 -36.834 35.166 -60.501 47.499s-53.5 18.5 -89.5 18.5c-34 0 -59.333 -6 -76 -18s-25 -28.667 -25 -50c0 -24 6.5 -41.333 19.5 -52s34.167 -18.334 63.5 -23.001l69 -11c72 -11.333 125.333 -33.5 160 -66.5s52 -79.833 52 -140.5
c0 -33.333 -6 -64 -18 -92s-29.5 -52 -52.5 -72s-51.5 -35.5 -85.5 -46.5s-72.667 -16.5 -116 -16.5zM248.005 748.004l-132 159l73 58l121 -115l121 115l73 -58l-132 -159h-124z" />
    <glyph glyph-name="scaron" unicode="&#x161;" horiz-adv-x="504" 
d="M247 -12c-50.667 0 -93.333 8.16504 -128 24.498s-65.667 39.5 -93 69.5l87 88c18.667 -20.667 39.334 -37 62.001 -49s48.334 -18 77.001 -18c29.333 0 49.666 4.5 60.999 13.5s17 21.167 17 36.5c0 24.667 -17.667 39.334 -53 44.001l-57 7
c-118 14.667 -177 68.667 -177 162c0 25.333 4.83301 48.5 14.5 69.5s23.334 39 41.001 54s39 26.667 64 35s53.167 12.5 84.5 12.5c27.333 0 51.5 -1.83301 72.5 -5.5s39.667 -9 56 -16s31.333 -15.667 45 -26s27.167 -21.833 40.5 -34.5l-85 -87
c-16.667 16.667 -35.5 29.834 -56.5 39.501s-42.5 14.5 -64.5 14.5c-25.333 0 -43.333 -4 -54 -12s-16 -18.667 -16 -32c0 -14 3.83301 -24.833 11.5 -32.5s22.167 -13.167 43.5 -16.5l59 -8c115.333 -15.333 173 -68 173 -158c0 -25.333 -5.33301 -48.666 -16 -69.999
s-25.834 -39.833 -45.501 -55.5s-43.334 -27.834 -71.001 -36.501s-58.5 -13 -92.5 -13zM189.001 586.998l-132 159l73 58l121 -115l121 115l73 -58l-132 -159h-124z" />
    <glyph glyph-name="uni0162" unicode="&#x162;" horiz-adv-x="584" 
d="M306 -212c-34.667 0 -61.832 4.83203 -81.499 14.499s-33.834 19.5 -42.501 29.5l46 56c6.66699 -8 15.5 -14.833 26.5 -20.5s24.167 -8.5 39.5 -8.5c12.667 0 23.167 2 31.5 6s12.5 10.333 12.5 19c0 4 -1 8 -3 12s-5.83301 7.83301 -11.5 11.5s-13.334 7 -23.001 10
s-22.167 5.16699 -37.5 6.5l-21 2l15 74h-41v563h-189v135h530v-135h-189v-563h-44l-11 -55l4 -4c8 2 16 3.66699 24 5s16 2 24 2c20 0 37.167 -5.33301 51.5 -16s21.5 -28.334 21.5 -53.001c0 -17.333 -3.66699 -31.666 -11 -42.999s-17.166 -20.666 -29.499 -27.999
s-26.5 -12.5 -42.5 -15.5s-32.333 -4.5 -49 -4.5z" />
    <glyph glyph-name="uni0163" unicode="&#x163;" horiz-adv-x="383" 
d="M243 -212c-34.667 0 -61.832 4.83203 -81.499 14.499s-33.834 19.5 -42.501 29.5l46 56c6.66699 -8 15.5 -14.833 26.5 -20.5s24.167 -8.5 39.5 -8.5c12.667 0 23.167 2 31.5 6s12.5 10.333 12.5 19c0 4 -1 8 -3 12s-5.83301 7.83301 -11.5 11.5s-13.334 7 -23.001 10
s-22.167 5.16699 -37.5 6.5l-21 2l17 81c-66 17.333 -99 66 -99 146v257h-74v115h37c20 0 33.667 4.83301 41 14.5s11 23.5 11 41.5v86h133v-142h104v-115h-104v-295h96v-115h-80l-11 -55l4 -4c8 2 16 3.66699 24 5s16 2 24 2c20 0 37.167 -5.33301 51.5 -16
s21.5 -28.334 21.5 -53.001c0 -17.333 -3.66699 -31.666 -11 -42.999s-17.166 -20.666 -29.499 -27.999s-26.5 -12.5 -42.5 -15.5s-32.333 -4.5 -49 -4.5z" />
    <glyph glyph-name="Tcaron" unicode="&#x164;" horiz-adv-x="584" 
d="M368 563v-563h-152v563h-189v135h530v-135h-189zM231 748l-132 159l73 58l121 -115l121 115l73 -58l-132 -159h-124z" />
    <glyph glyph-name="tcaron" unicode="&#x165;" horiz-adv-x="388" 
d="M253 0c-51.333 0 -90.167 13 -116.5 39s-39.5 64 -39.5 114v257h-74v115h37c20 0 33.667 4.83301 41 14.5s11 23.5 11 41.5v86h133v-142h104v-115h-104v-295h96v-115h-88zM404.999 576h-97l6 215h157z" />
    <glyph glyph-name="Tbar" unicode="&#x166;" horiz-adv-x="594" 
d="M373 274v-274h-152v274h-139v114h139v175h-189v135h530v-135h-189v-175h139v-114h-139z" />
    <glyph glyph-name="tbar" unicode="&#x167;" horiz-adv-x="391" 
d="M345 0h-88.001c-51.333 0 -90.166 13 -116.499 39s-39.5 64 -39.5 114v68h-64v100h64v89h-74v115h37c20 0 33.667 4.83301 41 14.5s11 23.5 11 41.5v86h133v-142h104v-115h-104v-89h85v-100h-85v-106h96v-115z" />
    <glyph glyph-name="Utilde" unicode="&#x168;" horiz-adv-x="694" 
d="M221 698l0.00195312 -428c0 -49.333 9.66699 -86.166 29 -110.499s51.666 -36.5 96.999 -36.5s77.666 12.167 96.999 36.5s29 61.166 29 110.499v428h148v-412c0 -51.333 -4.83301 -95.833 -14.5 -133.5s-25.5 -68.667 -47.5 -93s-50.333 -42.333 -85 -54
s-77 -17.5 -127 -17.5s-92.333 5.83301 -127 17.5s-63 29.667 -85 54s-37.833 55.333 -47.5 93s-14.5 82.167 -14.5 133.5v412h148zM423.002 762c-15.333 0 -28.833 2 -40.5 6s-23.834 8.66699 -36.501 14c-14.667 6 -28 11.167 -40 15.5s-24.667 6.5 -38 6.5
c-11.333 0 -21.333 -2 -30 -6s-18.334 -10.333 -29.001 -19l-52 68c12 18 27.333 33.167 46 45.5s41.334 18.5 68.001 18.5c15.333 0 28.833 -2 40.5 -6s23.834 -8.66699 36.501 -14c14.667 -6 28 -11.167 40 -15.5s24.667 -6.5 38 -6.5c11.333 0 21.333 2 30 6
s18.334 10.333 29.001 19l52 -68c-12 -18 -27.333 -33.167 -46 -45.5s-41.334 -18.5 -68.001 -18.5z" />
    <glyph glyph-name="utilde" unicode="&#x169;" horiz-adv-x="596" 
d="M379 88h-4.99805c-4.66699 -13.333 -10.834 -26 -18.501 -38s-17.5 -22.667 -29.5 -32s-26.167 -16.666 -42.5 -21.999s-35.166 -8 -56.499 -8c-54 0 -94.833 17.833 -122.5 53.5s-41.5 86.834 -41.5 153.501v330h148v-317c0 -32 5.66699 -56.667 17 -74
s30.666 -26 57.999 -26c11.333 0 22.666 1.66699 33.999 5s21.333 8.16602 30 14.499s15.667 14.166 21 23.499s8 20.333 8 33v341h148v-525h-148v88zM372.002 601c-15.333 0 -28.833 2 -40.5 6s-23.834 8.66699 -36.501 14c-14.667 6 -28 11.167 -40 15.5
s-24.667 6.5 -38 6.5c-11.333 0 -21.333 -2 -30 -6s-18.334 -10.333 -29.001 -19l-52 68c12 18 27.333 33.167 46 45.5s41.334 18.5 68.001 18.5c15.333 0 28.833 -2 40.5 -6s23.834 -8.66699 36.501 -14c14.667 -6 28 -11.167 40 -15.5s24.667 -6.5 38 -6.5
c11.333 0 21.333 2 30 6s18.334 10.333 29.001 19l52 -68c-12 -18 -27.333 -33.167 -46 -45.5s-41.334 -18.5 -68.001 -18.5z" />
    <glyph glyph-name="Umacron" unicode="&#x16a;" horiz-adv-x="694" 
d="M221 698l0.00195312 -428c0 -49.333 9.66699 -86.166 29 -110.499s51.666 -36.5 96.999 -36.5s77.666 12.167 96.999 36.5s29 61.166 29 110.499v428h148v-412c0 -51.333 -4.83301 -95.833 -14.5 -133.5s-25.5 -68.667 -47.5 -93s-50.333 -42.333 -85 -54
s-77 -17.5 -127 -17.5s-92.333 5.83301 -127 17.5s-63 29.667 -85 54s-37.833 55.333 -47.5 93s-14.5 82.167 -14.5 133.5v412h148zM194.002 888h306v-103h-306v103z" />
    <glyph glyph-name="umacron" unicode="&#x16b;" horiz-adv-x="596" 
d="M379 88h-4.99805c-4.66699 -13.333 -10.834 -26 -18.501 -38s-17.5 -22.667 -29.5 -32s-26.167 -16.666 -42.5 -21.999s-35.166 -8 -56.499 -8c-54 0 -94.833 17.833 -122.5 53.5s-41.5 86.834 -41.5 153.501v330h148v-317c0 -32 5.66699 -56.667 17 -74
s30.666 -26 57.999 -26c11.333 0 22.666 1.66699 33.999 5s21.333 8.16602 30 14.499s15.667 14.166 21 23.499s8 20.333 8 33v341h148v-525h-148v88zM143.002 727h306v-103h-306v103z" />
    <glyph glyph-name="Ubreve" unicode="&#x16c;" horiz-adv-x="694" 
d="M221 698l0.00195312 -428c0 -49.333 9.66699 -86.166 29 -110.499s51.666 -36.5 96.999 -36.5s77.666 12.167 96.999 36.5s29 61.166 29 110.499v428h148v-412c0 -51.333 -4.83301 -95.833 -14.5 -133.5s-25.5 -68.667 -47.5 -93s-50.333 -42.333 -85 -54
s-77 -17.5 -127 -17.5s-92.333 5.83301 -127 17.5s-63 29.667 -85 54s-37.833 55.333 -47.5 93s-14.5 82.167 -14.5 133.5v412h148zM347.002 740c-29.333 0 -54.6689 5.5 -76.002 16.5s-39.5 24.833 -54.5 41.5s-27.167 35 -36.5 55s-17 39 -23 57l81 42l19 -32
c14.667 -24.667 28.667 -43.667 42 -57s29.333 -20 48 -20s34.834 6.66699 48.501 20s27.834 32.333 42.501 57l19 32l80 -42c-6 -18 -14 -37 -24 -57s-22.5 -38.333 -37.5 -55s-33.167 -30.5 -54.5 -41.5s-46 -16.5 -74 -16.5z" />
    <glyph glyph-name="ubreve" unicode="&#x16d;" horiz-adv-x="596" 
d="M379 88h-4.99805c-4.66699 -13.333 -10.834 -26 -18.501 -38s-17.5 -22.667 -29.5 -32s-26.167 -16.666 -42.5 -21.999s-35.166 -8 -56.499 -8c-54 0 -94.833 17.833 -122.5 53.5s-41.5 86.834 -41.5 153.501v330h148v-317c0 -32 5.66699 -56.667 17 -74
s30.666 -26 57.999 -26c11.333 0 22.666 1.66699 33.999 5s21.333 8.16602 30 14.499s15.667 14.166 21 23.499s8 20.333 8 33v341h148v-525h-148v88zM296.002 579c-29.333 0 -54.667 5.5 -76 16.5s-39.333 24.833 -54 41.5s-26.834 35 -36.501 55s-17.5 39 -23.5 57l81 42
l20 -33c14.667 -24 28.834 -42.667 42.501 -56s29.167 -20 46.5 -20s33 6.66699 47 20s28.333 32 43 56l20 33l80 -42c-6 -18 -14 -37 -24 -57s-22.667 -38.333 -38 -55s-33.5 -30.5 -54.5 -41.5s-45.5 -16.5 -73.5 -16.5z" />
    <glyph glyph-name="Uring" unicode="&#x16e;" horiz-adv-x="694" 
d="M221 698l0.00195312 -428c0 -49.333 9.66699 -86.166 29 -110.499s51.666 -36.5 96.999 -36.5s77.666 12.167 96.999 36.5s29 61.166 29 110.499v428h148v-412c0 -51.333 -4.83301 -95.833 -14.5 -133.5s-25.5 -68.667 -47.5 -93s-50.333 -42.333 -85 -54
s-77 -17.5 -127 -17.5s-92.333 5.83301 -127 17.5s-63 29.667 -85 54s-37.833 55.333 -47.5 93s-14.5 82.167 -14.5 133.5v412h148zM347.002 719c-20.667 0 -40 3.5 -58 10.5s-33.667 16.833 -47 29.5s-23.833 27.834 -31.5 45.501s-11.5 36.834 -11.5 57.501
s3.83301 39.834 11.5 57.501s18.167 32.834 31.5 45.501s29 22.5 47 29.5s37.333 10.5 58 10.5s40 -3.5 58 -10.5s33.667 -16.833 47 -29.5s23.833 -27.834 31.5 -45.501s11.5 -36.834 11.5 -57.501s-3.83301 -39.834 -11.5 -57.501s-18.167 -32.834 -31.5 -45.501
s-29 -22.5 -47 -29.5s-37.333 -10.5 -58 -10.5zM347.002 794c16.667 0 29.334 4.66699 38.001 14s13 21.666 13 36.999v34c0 15.333 -4.33301 27.666 -13 36.999s-21.334 14 -38.001 14s-29.334 -4.66699 -38.001 -14s-13 -21.666 -13 -36.999v-34
c0 -15.333 4.33301 -27.666 13 -36.999s21.334 -14 38.001 -14z" />
    <glyph glyph-name="uring" unicode="&#x16f;" horiz-adv-x="596" 
d="M379 88h-4.99805c-4.66699 -13.333 -10.834 -26 -18.501 -38s-17.5 -22.667 -29.5 -32s-26.167 -16.666 -42.5 -21.999s-35.166 -8 -56.499 -8c-54 0 -94.833 17.833 -122.5 53.5s-41.5 86.834 -41.5 153.501v330h148v-317c0 -32 5.66699 -56.667 17 -74
s30.666 -26 57.999 -26c11.333 0 22.666 1.66699 33.999 5s21.333 8.16602 30 14.499s15.667 14.166 21 23.499s8 20.333 8 33v341h148v-525h-148v88zM296.002 558c-20.667 0 -40 3.5 -58 10.5s-33.667 16.833 -47 29.5s-23.833 27.834 -31.5 45.501
s-11.5 36.834 -11.5 57.501s3.83301 39.834 11.5 57.501s18.167 32.834 31.5 45.501s29 22.5 47 29.5s37.333 10.5 58 10.5s40 -3.5 58 -10.5s33.667 -16.833 47 -29.5s23.833 -27.834 31.5 -45.501s11.5 -36.834 11.5 -57.501s-3.83301 -39.834 -11.5 -57.501
s-18.167 -32.834 -31.5 -45.501s-29 -22.5 -47 -29.5s-37.333 -10.5 -58 -10.5zM296.002 633c16.667 0 29.334 4.5 38.001 13.5s13 21.5 13 37.5v34c0 16 -4.33301 28.5 -13 37.5s-21.334 13.5 -38.001 13.5s-29.334 -4.5 -38.001 -13.5s-13 -21.5 -13 -37.5v-34
c0 -16 4.33301 -28.5 13 -37.5s21.334 -13.5 38.001 -13.5z" />
    <glyph glyph-name="Uhungarumlaut" unicode="&#x170;" horiz-adv-x="694" 
d="M221 698l0.00195312 -428c0 -49.333 9.66699 -86.166 29 -110.499s51.666 -36.5 96.999 -36.5s77.666 12.167 96.999 36.5s29 61.166 29 110.499v428h148v-412c0 -51.333 -4.83301 -95.833 -14.5 -133.5s-25.5 -68.667 -47.5 -93s-50.333 -42.333 -85 -54
s-77 -17.5 -127 -17.5s-92.333 5.83301 -127 17.5s-63 29.667 -85 54s-37.833 55.333 -47.5 93s-14.5 82.167 -14.5 133.5v412h148zM257.002 740l-81 39l99 194l116 -57zM462.002 740l-81 39l99 194l116 -57z" />
    <glyph glyph-name="uhungarumlaut" unicode="&#x171;" horiz-adv-x="596" 
d="M379 88h-4.99805c-4.66699 -13.333 -10.834 -26 -18.501 -38s-17.5 -22.667 -29.5 -32s-26.167 -16.666 -42.5 -21.999s-35.166 -8 -56.499 -8c-54 0 -94.833 17.833 -122.5 53.5s-41.5 86.834 -41.5 153.501v330h148v-317c0 -32 5.66699 -56.667 17 -74
s30.666 -26 57.999 -26c11.333 0 22.666 1.66699 33.999 5s21.333 8.16602 30 14.499s15.667 14.166 21 23.499s8 20.333 8 33v341h148v-525h-148v88zM206.002 579l-81 39l99 194l116 -57zM411.002 579l-81 39l99 194l116 -57z" />
    <glyph glyph-name="Uogonek" unicode="&#x172;" horiz-adv-x="694" 
d="M221 698l0.00292969 -428c0 -49.333 9.66699 -86.166 29 -110.499s51.666 -36.5 96.999 -36.5s77.666 12.167 96.999 36.5s29 61.166 29 110.499v428h148v-412c0 -34.667 -1.83301 -66 -5.5 -94s-10.167 -53.833 -19.5 -77.5s-21.833 -45.167 -37.5 -64.5
s-35.5 -38 -59.5 -56c-11.333 -8 -23 -15.833 -35 -23.5s-23 -15.5 -33 -23.5s-18.167 -16.333 -24.5 -25s-9.5 -18 -9.5 -28c0 -11.333 3.83301 -19.5 11.5 -24.5s16.5 -7.5 26.5 -7.5c12 0 22.167 2.66699 30.5 8s16.166 12 23.499 20l53 -51
c-8.66699 -16 -23.167 -28.5 -43.5 -37.5s-46.166 -13.5 -77.499 -13.5c-16.667 0 -32.334 1.5 -47.001 4.5s-27.667 7.83301 -39 14.5s-20.333 15.334 -27 26.001s-10 23.667 -10 39c0 28 10.667 50.167 32 66.5s50.333 32.166 87 47.499l-2 6
c-10.667 -1.33301 -21.5 -2.33301 -32.5 -3s-22.833 -1 -35.5 -1c-50 0 -92.333 5.83301 -127 17.5s-63 29.667 -85 54s-37.833 55.333 -47.5 93s-14.5 82.167 -14.5 133.5v412h148z" />
    <glyph glyph-name="uogonek" unicode="&#x173;" horiz-adv-x="596" 
d="M526 0c-24.667 -15.333 -44.3311 -28.165 -58.998 -38.498s-26 -19.5 -34 -27.5s-13.333 -15 -16 -21s-4 -12 -4 -18c0 -12.667 3.83301 -21.334 11.5 -26.001s16.5 -7 26.5 -7c12 0 22.333 2.66699 31 8s16.667 12 24 20l53 -51c-8.66699 -16 -23.167 -28.5 -43.5 -37.5
s-46.5 -13.5 -78.5 -13.5c-16.667 0 -32.5 1.5 -47.5 4.5s-28.167 7.66699 -39.5 14s-20.333 15 -27 26s-10 24.5 -10 40.5c0 28 10.5 51.167 31.5 69.5s50.167 36.166 87.5 53.499l-1 4h-52v88h-5c-4.66699 -13.333 -10.834 -26 -18.501 -38s-17.5 -22.667 -29.5 -32
s-26.167 -16.666 -42.5 -21.999s-35.166 -8 -56.499 -8c-54 0 -94.833 17.833 -122.5 53.5s-41.5 86.834 -41.5 153.501v330h148v-317c0 -32 5.66699 -56.667 17 -74s30.666 -26 57.999 -26c11.333 0 22.666 1.66699 33.999 5s21.333 8.16602 30 14.499
s15.667 14.166 21 23.499s8 20.333 8 33v341h147v-525z" />
    <glyph glyph-name="Wcircumflex" unicode="&#x174;" horiz-adv-x="973" 
d="M187 0l-158 698h150l66 -335l37 -194h3l44 194l77 335h166l78 -335l43 -194h3l37 194l67 335h144l-162 -698h-173l-88 378l-34 153h-3l-35 -153l-88 -378h-174zM549 956l132 -159l-73 -58l-121 115l-121 -115l-73 58l132 159h124z" />
    <glyph glyph-name="wcircumflex" unicode="&#x175;" horiz-adv-x="841" 
d="M19 525h143l51 -212l36 -160h4l42 160l60 212h135l61 -212l43 -160h4l36 160l51 212h137l-145 -525h-155l-64 222l-37 136h-3l-36 -136l-64 -222h-152zM483 795l132 -159l-73 -58l-121 115l-121 -115l-73 58l132 159h124z" />
    <glyph glyph-name="Ycircumflex" unicode="&#x176;" horiz-adv-x="649" 
d="M248 0v273l-239 425h170l150 -278h2l144 278h165l-239 -424v-274h-153zM387 956l132 -159l-73 -58l-121 115l-121 -115l-73 58l132 159h124z" />
    <glyph glyph-name="ycircumflex" unicode="&#x177;" horiz-adv-x="534" 
d="M390 525h137.998l-202 -606c-13.333 -40.667 -32.166 -70.667 -56.499 -90s-59.166 -29 -104.499 -29h-92v115h99l18 58l-184 552h147l77 -245l38 -152h6l39 152zM333.998 795l132 -159l-73 -58l-121 115l-121 -115l-73 58l132 159h124z" />
    <glyph glyph-name="Ydieresis" unicode="&#x178;" horiz-adv-x="649" 
d="M248 0v273l-239 425h170l150 -278h2l144 278h165l-239 -424v-274h-153zM215 761c-30 0 -50.833 6.16699 -62.5 18.5s-17.5 27.166 -17.5 44.499v25c0 17.333 5.83301 32.166 17.5 44.499s32.5 18.5 62.5 18.5s50.833 -6.16699 62.5 -18.5s17.5 -27.166 17.5 -44.499v-25
c0 -17.333 -5.83301 -32.166 -17.5 -44.499s-32.5 -18.5 -62.5 -18.5zM435 761c-30 0 -50.833 6.16699 -62.5 18.5s-17.5 27.166 -17.5 44.499v25c0 17.333 5.83301 32.166 17.5 44.499s32.5 18.5 62.5 18.5s50.833 -6.16699 62.5 -18.5s17.5 -27.166 17.5 -44.499v-25
c0 -17.333 -5.83301 -32.166 -17.5 -44.499s-32.5 -18.5 -62.5 -18.5z" />
    <glyph glyph-name="Zacute" unicode="&#x179;" horiz-adv-x="607" 
d="M568 0h-529v135l344 428h-327v135h504v-135l-345 -428h353v-135zM319 740l-88 43l99 194l123 -61z" />
    <glyph glyph-name="zacute" unicode="&#x17a;" horiz-adv-x="518" 
d="M39 0v117l261 293h-252v115h424v-116l-262 -294h269v-115h-440zM276 579l-88 43l99 194l123 -61z" />
    <glyph glyph-name="Zdotaccent" unicode="&#x17b;" horiz-adv-x="607" 
d="M568 0h-529v135l344 428h-327v135h504v-135l-345 -428h353v-135zM303 752c-33.333 0 -56.5 6.83301 -69.5 20.5s-19.5 30.167 -19.5 49.5v29c0 19.333 6.5 35.833 19.5 49.5s36.167 20.5 69.5 20.5s56.5 -6.83301 69.5 -20.5s19.5 -30.167 19.5 -49.5v-29
c0 -19.333 -6.5 -35.833 -19.5 -49.5s-36.167 -20.5 -69.5 -20.5z" />
    <glyph glyph-name="zdotaccent" unicode="&#x17c;" horiz-adv-x="518" 
d="M39 0v117l261 293h-252v115h424v-116l-262 -294h269v-115h-440zM260 591c-33.333 0 -56.5 6.83301 -69.5 20.5s-19.5 30.167 -19.5 49.5v29c0 19.333 6.5 35.833 19.5 49.5s36.167 20.5 69.5 20.5s56.5 -6.83301 69.5 -20.5s19.5 -30.167 19.5 -49.5v-29
c0 -19.333 -6.5 -35.833 -19.5 -49.5s-36.167 -20.5 -69.5 -20.5z" />
    <glyph glyph-name="Zcaron" unicode="&#x17d;" horiz-adv-x="607" 
d="M568 0h-529v135l344 428h-327v135h504v-135l-345 -428h353v-135zM241 748l-132 159l73 58l121 -115l121 115l73 -58l-132 -159h-124z" />
    <glyph glyph-name="zcaron" unicode="&#x17e;" horiz-adv-x="518" 
d="M39 0v117l261 293h-252v115h424v-116l-262 -294h269v-115h-440zM198 587l-132 159l73 58l121 -115l121 115l73 -58l-132 -159h-124z" />
    <glyph glyph-name="uni017F" unicode="&#x17f;" horiz-adv-x="312" 
d="M95 410l-74 -0.000976562v115h74v62c0 50.667 13.333 88.834 40 114.501s65.667 38.5 117 38.5h96v-115h-105v-625h-148v410z" />
    <glyph glyph-name="uni018F" unicode="&#x18f;" horiz-adv-x="714" 
d="M50 399l453.003 0.000976562v3c0 55.333 -13 98 -39 128s-61.667 45 -107 45c-22.667 0 -42 -2.5 -58 -7.5s-29.833 -12.333 -41.5 -22s-21.167 -21.334 -28.5 -35.001s-13.333 -29.167 -18 -46.5l-137 49c8.66699 27.333 21 53 37 77s35.667 44.833 59 62.5
s50.5 31.667 81.5 42s66.167 15.5 105.5 15.5c46.667 0 88.834 -7.66699 126.501 -23s69.834 -38.333 96.501 -69s47.334 -68.5 62.001 -113.5s22 -96.833 22 -155.5c0 -59.333 -7.33301 -111.333 -22 -156s-35.334 -82.334 -62.001 -113.001s-58.834 -53.667 -96.501 -69
s-79.834 -23 -126.501 -23s-88.834 7.66699 -126.501 23s-69.834 38.333 -96.501 69s-47.334 68.334 -62.001 113.001s-22 96.667 -22 156v50zM357.003 123.001c42 0 75.833 13 101.5 39s40.167 63.333 43.5 112h-290c3.33301 -48.667 17.833 -86 43.5 -112
s59.5 -39 101.5 -39z" />
    <glyph glyph-name="florin" unicode="&#x192;" horiz-adv-x="484" 
d="M17 -19h115.001l28 270h-106l12 120h106l18 175c4.66699 44 21.167 80.333 49.5 109s69.166 43 122.499 43h110l-12 -115h-119l-22 -212h125l-10 -120h-127l-24 -234c-4.66699 -44 -21 -80.167 -49 -108.5s-69 -42.5 -123 -42.5h-106z" />
    <glyph glyph-name="Ohorn" unicode="&#x1a0;" horiz-adv-x="714" 
d="M685 804l0.000976562 -93.999c0 -32.667 -6.66699 -57.5 -20 -74.5s-39.333 -25.833 -78 -26.5c24.667 -30 43.667 -66.667 57 -110s20 -93.333 20 -150c0 -59.333 -7.33301 -111.5 -22 -156.5s-35.334 -82.667 -62.001 -113s-59 -53.166 -97 -68.499s-80 -23 -126 -23
s-88 7.66699 -126 23s-70.333 38.166 -97 68.499s-47.334 68 -62.001 113s-22 97.167 -22 156.5s7.33301 111.5 22 156.5s35.334 82.667 62.001 113s59 53.166 97 68.499s80 23 126 23c34 0 65 -4 93 -12h111v106h124zM357.001 123.001c46 0 81.833 15 107.5 45
s38.5 73 38.5 129v104c0 56 -12.833 99 -38.5 129s-61.5 45 -107.5 45s-81.833 -15 -107.5 -45s-38.5 -73 -38.5 -129v-104c0 -56 12.833 -99 38.5 -129s61.5 -45 107.5 -45z" />
    <glyph glyph-name="ohorn" unicode="&#x1a1;" horiz-adv-x="564" 
d="M551 631l0.000976562 -94.001c0 -31.333 -5.16699 -54.666 -15.5 -69.999s-27.833 -24.666 -52.5 -27.999c16 -24.667 27.5 -50.834 34.5 -78.501s10.5 -59.167 10.5 -94.5c0 -42 -5.66699 -80.167 -17 -114.5s-27.5 -63.666 -48.5 -87.999s-46.667 -43 -77 -56
s-64.833 -19.5 -103.5 -19.5s-73.167 6.5 -103.5 19.5s-56 31.667 -77 56s-37.167 53.666 -48.5 87.999s-17 72.5 -17 114.5c0 84.667 21.667 151 65 199s103.666 72 180.999 72c30.667 0 59 -4 85 -12h60v106h124zM282.001 104.999c29.333 0 52 9 68 27s24 43.667 24 77
v107c0 33.333 -8 59 -24 77s-38.667 27 -68 27s-52 -9 -68 -27s-24 -43.667 -24 -77v-107c0 -33.333 8 -59 24 -77s38.667 -27 68 -27z" />
    <glyph glyph-name="Uhorn" unicode="&#x1af;" horiz-adv-x="694" 
d="M221 698l0.00195312 -428c0 -49.333 9.66699 -86.166 29 -110.499s51.666 -36.5 96.999 -36.5s77.666 12.167 96.999 36.5s29 61.166 29 110.499v428h77v106h124v-94c0 -25.333 -3.66699 -45.833 -11 -61.5s-21.333 -26.5 -42 -32.5v-330
c0 -51.333 -4.83301 -95.833 -14.5 -133.5s-25.5 -68.667 -47.5 -93s-50.333 -42.333 -85 -54s-77 -17.5 -127 -17.5s-92.333 5.83301 -127 17.5s-63 29.667 -85 54s-37.833 55.333 -47.5 93s-14.5 82.167 -14.5 133.5v412h148z" />
    <glyph glyph-name="uhorn" unicode="&#x1b0;" horiz-adv-x="596" 
d="M590 537c0 -28.667 -4.49805 -51.167 -13.498 -67.5s-25.833 -26.5 -50.5 -30.5v-439h-147v88h-5c-4.66699 -13.333 -10.834 -26 -18.501 -38s-17.5 -22.667 -29.5 -32s-26.167 -16.666 -42.5 -21.999s-35.166 -8 -56.499 -8c-54 0 -94.833 17.833 -122.5 53.5
s-41.5 86.834 -41.5 153.501v330h148v-317c0 -32 5.66699 -56.667 17 -74s30.666 -26 57.999 -26c11.333 0 22.666 1.66699 33.999 5s21.333 8.16602 30 14.499s15.667 14.166 21 23.499s8 20.333 8 33v341h87v106h124v-94z" />
    <glyph glyph-name="uni01CD" unicode="&#x1cd;" horiz-adv-x="685" 
d="M507 0l-50 166h-233l-50 -166h-154l230 698h188l227 -698h-158zM342 560h-5l-77 -265h160zM277 748l-132 159l73 58l121 -115l121 115l73 -58l-132 -159h-124z" />
    <glyph glyph-name="uni01CE" unicode="&#x1ce;" horiz-adv-x="569" 
d="M457 0c-26.667 0 -48.832 8.33398 -66.499 25.001s-28.834 39 -33.501 67h-6c-8 -34 -25.667 -59.833 -53 -77.5s-61 -26.5 -101 -26.5c-52.667 0 -93 14 -121 42s-42 65 -42 111c0 55.333 20.167 96.5 60.5 123.5s95.166 40.5 164.499 40.5h83v33
c0 25.333 -6.66699 45.5 -20 60.5s-35.666 22.5 -66.999 22.5c-29.333 0 -52.666 -6.33301 -69.999 -19s-31.666 -27 -42.999 -43l-88 78c21.333 31.333 48.166 55.833 80.499 73.5s76.166 26.5 131.499 26.5c74.667 0 130.667 -16.333 168 -49s56 -80.334 56 -143.001v-230
h49v-115h-82zM252.002 91.001c24.667 0 45.833 5.33301 63.5 16s26.5 28 26.5 52v62h-72c-58 0 -87 -19.667 -87 -59v-15c0 -19.333 6 -33.5 18 -42.5s29 -13.5 51 -13.5zM207.001 587.001l-132 159l73 58l121 -115l121 115l73 -58l-132 -159h-124z" />
    <glyph glyph-name="uni01CF" unicode="&#x1cf;" horiz-adv-x="432" 
d="M50 0v121h90v456h-90v121h332v-121h-90v-456h90v-121h-332zM155 748l-132 159l73 58l121 -115l121 115l73 -58l-132 -159h-124z" />
    <glyph glyph-name="uni01D0" unicode="&#x1d0;" horiz-adv-x="286" 
d="M69 0v525h148v-525h-148zM82 587l-132 159l73 58l121 -115l121 115l73 -58l-132 -159h-124z" />
    <glyph glyph-name="uni01D1" unicode="&#x1d1;" horiz-adv-x="714" 
d="M357 -12c-46 0 -88 7.66699 -126 23s-70.333 38.166 -97 68.499s-47.334 68 -62.001 113s-22 97.167 -22 156.5s7.33301 111.5 22 156.5s35.334 82.667 62.001 113s59 53.166 97 68.499s80 23 126 23s88 -7.66699 126 -23s70.333 -38.166 97 -68.499
s47.334 -68 62.001 -113s22 -97.167 22 -156.5s-7.33301 -111.5 -22 -156.5s-35.334 -82.667 -62.001 -113s-59 -53.166 -97 -68.499s-80 -23 -126 -23zM357 123c46 0 81.833 15 107.5 45s38.5 73 38.5 129v104c0 56 -12.833 99 -38.5 129s-61.5 45 -107.5 45
s-81.833 -15 -107.5 -45s-38.5 -73 -38.5 -129v-104c0 -56 12.833 -99 38.5 -129s61.5 -45 107.5 -45zM295 748l-132 159l73 58l121 -115l121 115l73 -58l-132 -159h-124z" />
    <glyph glyph-name="uni01D2" unicode="&#x1d2;" horiz-adv-x="564" 
d="M282 -12c-38.667 0 -73.167 6.33301 -103.5 19s-56 31 -77 55s-37.167 53 -48.5 87s-17 72 -17 114s5.66699 80 17 114s27.5 62.833 48.5 86.5s46.667 41.834 77 54.501s64.833 19 103.5 19s73.167 -6.33301 103.5 -19s56 -30.834 77 -54.501s37.167 -52.5 48.5 -86.5
s17 -72 17 -114s-5.66699 -80 -17 -114s-27.5 -63 -48.5 -87s-46.667 -42.333 -77 -55s-64.833 -19 -103.5 -19zM282 105c29.333 0 52 9 68 27s24 43.667 24 77v107c0 33.333 -8 59 -24 77s-38.667 27 -68 27s-52 -9 -68 -27s-24 -43.667 -24 -77v-107
c0 -33.333 8 -59 24 -77s38.667 -27 68 -27zM220 587l-132 159l73 58l121 -115l121 115l73 -58l-132 -159h-124z" />
    <glyph glyph-name="uni01D3" unicode="&#x1d3;" horiz-adv-x="694" 
d="M221 698l0.00195312 -428c0 -49.333 9.66699 -86.166 29 -110.499s51.666 -36.5 96.999 -36.5s77.666 12.167 96.999 36.5s29 61.166 29 110.499v428h148v-412c0 -51.333 -4.83301 -95.833 -14.5 -133.5s-25.5 -68.667 -47.5 -93s-50.333 -42.333 -85 -54
s-77 -17.5 -127 -17.5s-92.333 5.83301 -127 17.5s-63 29.667 -85 54s-37.833 55.333 -47.5 93s-14.5 82.167 -14.5 133.5v412h148zM285.002 748l-132 159l73 58l121 -115l121 115l73 -58l-132 -159h-124z" />
    <glyph glyph-name="uni01D4" unicode="&#x1d4;" horiz-adv-x="596" 
d="M379 88h-4.99805c-4.66699 -13.333 -10.834 -26 -18.501 -38s-17.5 -22.667 -29.5 -32s-26.167 -16.666 -42.5 -21.999s-35.166 -8 -56.499 -8c-54 0 -94.833 17.833 -122.5 53.5s-41.5 86.834 -41.5 153.501v330h148v-317c0 -32 5.66699 -56.667 17 -74
s30.666 -26 57.999 -26c11.333 0 22.666 1.66699 33.999 5s21.333 8.16602 30 14.499s15.667 14.166 21 23.499s8 20.333 8 33v341h148v-525h-148v88zM234.002 587l-132 159l73 58l121 -115l121 115l73 -58l-132 -159h-124z" />
    <glyph glyph-name="uni01D5" unicode="&#x1d5;" horiz-adv-x="694" 
d="M221 698l0.00195312 -428c0 -49.333 9.66699 -86.166 29 -110.499s51.666 -36.5 96.999 -36.5s77.666 12.167 96.999 36.5s29 61.166 29 110.499v428h148v-412c0 -51.333 -4.83301 -95.833 -14.5 -133.5s-25.5 -68.667 -47.5 -93s-50.333 -42.333 -85 -54
s-77 -17.5 -127 -17.5s-92.333 5.83301 -127 17.5s-63 29.667 -85 54s-37.833 55.333 -47.5 93s-14.5 82.167 -14.5 133.5v412h148zM194.002 1050h306v-103h-306v103zM237.002 748c-30 0 -50.833 6.16699 -62.5 18.5s-17.5 27.166 -17.5 44.499v25
c0 17.333 5.83301 32.166 17.5 44.499s32.5 18.5 62.5 18.5s50.833 -6.16699 62.5 -18.5s17.5 -27.166 17.5 -44.499v-25c0 -17.333 -5.83301 -32.166 -17.5 -44.499s-32.5 -18.5 -62.5 -18.5zM457.002 748c-30 0 -50.833 6.16699 -62.5 18.5s-17.5 27.166 -17.5 44.499v25
c0 17.333 5.83301 32.166 17.5 44.499s32.5 18.5 62.5 18.5s50.833 -6.16699 62.5 -18.5s17.5 -27.166 17.5 -44.499v-25c0 -17.333 -5.83301 -32.166 -17.5 -44.499s-32.5 -18.5 -62.5 -18.5z" />
    <glyph glyph-name="uni01D6" unicode="&#x1d6;" horiz-adv-x="596" 
d="M379 88h-4.99805c-4.66699 -13.333 -10.834 -26 -18.501 -38s-17.5 -22.667 -29.5 -32s-26.167 -16.666 -42.5 -21.999s-35.166 -8 -56.499 -8c-54 0 -94.833 17.833 -122.5 53.5s-41.5 86.834 -41.5 153.501v330h148v-317c0 -32 5.66699 -56.667 17 -74
s30.666 -26 57.999 -26c11.333 0 22.666 1.66699 33.999 5s21.333 8.16602 30 14.499s15.667 14.166 21 23.499s8 20.333 8 33v341h148v-525h-148v88zM142.002 889h306v-103h-306v103zM185.002 587c-30 0 -50.833 6.16699 -62.5 18.5s-17.5 27.166 -17.5 44.499v25
c0 17.333 5.83301 32.166 17.5 44.499s32.5 18.5 62.5 18.5s50.833 -6.16699 62.5 -18.5s17.5 -27.166 17.5 -44.499v-25c0 -17.333 -5.83301 -32.166 -17.5 -44.499s-32.5 -18.5 -62.5 -18.5zM405.002 587c-30 0 -50.833 6.16699 -62.5 18.5s-17.5 27.166 -17.5 44.499v25
c0 17.333 5.83301 32.166 17.5 44.499s32.5 18.5 62.5 18.5s50.833 -6.16699 62.5 -18.5s17.5 -27.166 17.5 -44.499v-25c0 -17.333 -5.83301 -32.166 -17.5 -44.499s-32.5 -18.5 -62.5 -18.5z" />
    <glyph glyph-name="uni01D7" unicode="&#x1d7;" horiz-adv-x="694" 
d="M221 698l0.00195312 -428c0 -49.333 9.66699 -86.166 29 -110.499s51.666 -36.5 96.999 -36.5s77.666 12.167 96.999 36.5s29 61.166 29 110.499v428h148v-412c0 -51.333 -4.83301 -95.833 -14.5 -133.5s-25.5 -68.667 -47.5 -93s-50.333 -42.333 -85 -54
s-77 -17.5 -127 -17.5s-92.333 5.83301 -127 17.5s-63 29.667 -85 54s-37.833 55.333 -47.5 93s-14.5 82.167 -14.5 133.5v412h148zM357.002 894l-79 39l99 194l114 -57zM237.002 748c-30 0 -50.833 6.16699 -62.5 18.5s-17.5 27.166 -17.5 44.499v25
c0 17.333 5.83301 32.166 17.5 44.499s32.5 18.5 62.5 18.5s50.833 -6.16699 62.5 -18.5s17.5 -27.166 17.5 -44.499v-25c0 -17.333 -5.83301 -32.166 -17.5 -44.499s-32.5 -18.5 -62.5 -18.5zM457.002 748c-30 0 -50.833 6.16699 -62.5 18.5s-17.5 27.166 -17.5 44.499v25
c0 17.333 5.83301 32.166 17.5 44.499s32.5 18.5 62.5 18.5s50.833 -6.16699 62.5 -18.5s17.5 -27.166 17.5 -44.499v-25c0 -17.333 -5.83301 -32.166 -17.5 -44.499s-32.5 -18.5 -62.5 -18.5z" />
    <glyph glyph-name="uni01D8" unicode="&#x1d8;" horiz-adv-x="596" 
d="M379 88h-4.99805c-4.66699 -13.333 -10.834 -26 -18.501 -38s-17.5 -22.667 -29.5 -32s-26.167 -16.666 -42.5 -21.999s-35.166 -8 -56.499 -8c-54 0 -94.833 17.833 -122.5 53.5s-41.5 86.834 -41.5 153.501v330h148v-317c0 -32 5.66699 -56.667 17 -74
s30.666 -26 57.999 -26c11.333 0 22.666 1.66699 33.999 5s21.333 8.16602 30 14.499s15.667 14.166 21 23.499s8 20.333 8 33v341h148v-525h-148v88zM305.002 733l-79 39l99 194l114 -57zM185.002 587c-30 0 -50.833 6.16699 -62.5 18.5s-17.5 27.166 -17.5 44.499v25
c0 17.333 5.83301 32.166 17.5 44.499s32.5 18.5 62.5 18.5s50.833 -6.16699 62.5 -18.5s17.5 -27.166 17.5 -44.499v-25c0 -17.333 -5.83301 -32.166 -17.5 -44.499s-32.5 -18.5 -62.5 -18.5zM405.002 587c-30 0 -50.833 6.16699 -62.5 18.5s-17.5 27.166 -17.5 44.499v25
c0 17.333 5.83301 32.166 17.5 44.499s32.5 18.5 62.5 18.5s50.833 -6.16699 62.5 -18.5s17.5 -27.166 17.5 -44.499v-25c0 -17.333 -5.83301 -32.166 -17.5 -44.499s-32.5 -18.5 -62.5 -18.5z" />
    <glyph glyph-name="uni01D9" unicode="&#x1d9;" horiz-adv-x="694" 
d="M221 698l0.00195312 -428c0 -49.333 9.66699 -86.166 29 -110.499s51.666 -36.5 96.999 -36.5s77.666 12.167 96.999 36.5s29 61.166 29 110.499v428h148v-412c0 -51.333 -4.83301 -95.833 -14.5 -133.5s-25.5 -68.667 -47.5 -93s-50.333 -42.333 -85 -54
s-77 -17.5 -127 -17.5s-92.333 5.83301 -127 17.5s-63 29.667 -85 54s-37.833 55.333 -47.5 93s-14.5 82.167 -14.5 133.5v412h148zM300.002 918l-145 147l68 64l124 -104l124 104l68 -64l-145 -147h-94zM237.002 748c-30 0 -50.833 6.16699 -62.5 18.5
s-17.5 27.166 -17.5 44.499v25c0 17.333 5.83301 32.166 17.5 44.499s32.5 18.5 62.5 18.5s50.833 -6.16699 62.5 -18.5s17.5 -27.166 17.5 -44.499v-25c0 -17.333 -5.83301 -32.166 -17.5 -44.499s-32.5 -18.5 -62.5 -18.5zM457.002 748c-30 0 -50.833 6.16699 -62.5 18.5
s-17.5 27.166 -17.5 44.499v25c0 17.333 5.83301 32.166 17.5 44.499s32.5 18.5 62.5 18.5s50.833 -6.16699 62.5 -18.5s17.5 -27.166 17.5 -44.499v-25c0 -17.333 -5.83301 -32.166 -17.5 -44.499s-32.5 -18.5 -62.5 -18.5z" />
    <glyph glyph-name="uni01DA" unicode="&#x1da;" horiz-adv-x="596" 
d="M379 88h-4.99805c-4.66699 -13.333 -10.834 -26 -18.501 -38s-17.5 -22.667 -29.5 -32s-26.167 -16.666 -42.5 -21.999s-35.166 -8 -56.499 -8c-54 0 -94.833 17.833 -122.5 53.5s-41.5 86.834 -41.5 153.501v330h148v-317c0 -32 5.66699 -56.667 17 -74
s30.666 -26 57.999 -26c11.333 0 22.666 1.66699 33.999 5s21.333 8.16602 30 14.499s15.667 14.166 21 23.499s8 20.333 8 33v341h148v-525h-148v88zM248.002 757l-145 147l68 64l124 -104l124 104l68 -64l-145 -147h-94zM185.002 587c-30 0 -50.833 6.16699 -62.5 18.5
s-17.5 27.166 -17.5 44.499v25c0 17.333 5.83301 32.166 17.5 44.499s32.5 18.5 62.5 18.5s50.833 -6.16699 62.5 -18.5s17.5 -27.166 17.5 -44.499v-25c0 -17.333 -5.83301 -32.166 -17.5 -44.499s-32.5 -18.5 -62.5 -18.5zM405.002 587c-30 0 -50.833 6.16699 -62.5 18.5
s-17.5 27.166 -17.5 44.499v25c0 17.333 5.83301 32.166 17.5 44.499s32.5 18.5 62.5 18.5s50.833 -6.16699 62.5 -18.5s17.5 -27.166 17.5 -44.499v-25c0 -17.333 -5.83301 -32.166 -17.5 -44.499s-32.5 -18.5 -62.5 -18.5z" />
    <glyph glyph-name="uni01DB" unicode="&#x1db;" horiz-adv-x="694" 
d="M221 698l0.00195312 -428c0 -49.333 9.66699 -86.166 29 -110.499s51.666 -36.5 96.999 -36.5s77.666 12.167 96.999 36.5s29 61.166 29 110.499v428h148v-412c0 -51.333 -4.83301 -95.833 -14.5 -133.5s-25.5 -68.667 -47.5 -93s-50.333 -42.333 -85 -54
s-77 -17.5 -127 -17.5s-92.333 5.83301 -127 17.5s-63 29.667 -85 54s-37.833 55.333 -47.5 93s-14.5 82.167 -14.5 133.5v412h148zM203.002 1070l114 57l99 -194l-79 -39zM237.002 748c-30 0 -50.833 6.16699 -62.5 18.5s-17.5 27.166 -17.5 44.499v25
c0 17.333 5.83301 32.166 17.5 44.499s32.5 18.5 62.5 18.5s50.833 -6.16699 62.5 -18.5s17.5 -27.166 17.5 -44.499v-25c0 -17.333 -5.83301 -32.166 -17.5 -44.499s-32.5 -18.5 -62.5 -18.5zM457.002 748c-30 0 -50.833 6.16699 -62.5 18.5s-17.5 27.166 -17.5 44.499v25
c0 17.333 5.83301 32.166 17.5 44.499s32.5 18.5 62.5 18.5s50.833 -6.16699 62.5 -18.5s17.5 -27.166 17.5 -44.499v-25c0 -17.333 -5.83301 -32.166 -17.5 -44.499s-32.5 -18.5 -62.5 -18.5z" />
    <glyph glyph-name="uni01DC" unicode="&#x1dc;" horiz-adv-x="596" 
d="M379 88h-4.99805c-4.66699 -13.333 -10.834 -26 -18.501 -38s-17.5 -22.667 -29.5 -32s-26.167 -16.666 -42.5 -21.999s-35.166 -8 -56.499 -8c-54 0 -94.833 17.833 -122.5 53.5s-41.5 86.834 -41.5 153.501v330h148v-317c0 -32 5.66699 -56.667 17 -74
s30.666 -26 57.999 -26c11.333 0 22.666 1.66699 33.999 5s21.333 8.16602 30 14.499s15.667 14.166 21 23.499s8 20.333 8 33v341h148v-525h-148v88zM151.002 909l114 57l99 -194l-79 -39zM185.002 587c-30 0 -50.833 6.16699 -62.5 18.5s-17.5 27.166 -17.5 44.499v25
c0 17.333 5.83301 32.166 17.5 44.499s32.5 18.5 62.5 18.5s50.833 -6.16699 62.5 -18.5s17.5 -27.166 17.5 -44.499v-25c0 -17.333 -5.83301 -32.166 -17.5 -44.499s-32.5 -18.5 -62.5 -18.5zM405.002 587c-30 0 -50.833 6.16699 -62.5 18.5s-17.5 27.166 -17.5 44.499v25
c0 17.333 5.83301 32.166 17.5 44.499s32.5 18.5 62.5 18.5s50.833 -6.16699 62.5 -18.5s17.5 -27.166 17.5 -44.499v-25c0 -17.333 -5.83301 -32.166 -17.5 -44.499s-32.5 -18.5 -62.5 -18.5z" />
    <glyph glyph-name="Aringacute" unicode="&#x1fa;" horiz-adv-x="685" 
d="M507 0l-50 166h-233l-50 -166h-154l230 698h188l227 -698h-158zM342 560h-5l-77 -265h160zM332 976l-53 57l129 117l74 -81zM339 725c-21.333 0 -41.166 2.66699 -59.499 8s-34.333 13.166 -48 23.499s-24.5 22.833 -32.5 37.5s-12 31.667 -12 51
c0 18.667 4 35.5 12 50.5s18.833 27.667 32.5 38s29.667 18.166 48 23.499s38.166 8 59.499 8s41.166 -2.66699 59.499 -8s34.333 -13.166 48 -23.499s24.5 -23 32.5 -38s12 -31.833 12 -50.5c0 -19.333 -4 -36.333 -12 -51s-18.833 -27.167 -32.5 -37.5
s-29.667 -18.166 -48 -23.499s-38.166 -8 -59.499 -8zM339 795c18 0 31.667 3.5 41 10.5s14 18.5 14 34.5v10c0 16 -4.66699 27.5 -14 34.5s-23 10.5 -41 10.5s-31.667 -3.5 -41 -10.5s-14 -18.5 -14 -34.5v-10c0 -16 4.66699 -27.5 14 -34.5s23 -10.5 41 -10.5z" />
    <glyph glyph-name="aringacute" unicode="&#x1fb;" horiz-adv-x="569" 
d="M457 0c-26.667 0 -48.832 8.33398 -66.499 25.001s-28.834 39 -33.501 67h-6c-8 -34 -25.667 -59.833 -53 -77.5s-61 -26.5 -101 -26.5c-52.667 0 -93 14 -121 42s-42 65 -42 111c0 55.333 20.167 96.5 60.5 123.5s95.166 40.5 164.499 40.5h83v33
c0 25.333 -6.66699 45.5 -20 60.5s-35.666 22.5 -66.999 22.5c-29.333 0 -52.666 -6.33301 -69.999 -19s-31.666 -27 -42.999 -43l-88 78c21.333 31.333 48.166 55.833 80.499 73.5s76.166 26.5 131.499 26.5c74.667 0 130.667 -16.333 168 -49s56 -80.334 56 -143.001v-230
h49v-115h-82zM252.002 91.001c24.667 0 45.833 5.33301 63.5 16s26.5 28 26.5 52v62h-72c-58 0 -87 -19.667 -87 -59v-15c0 -19.333 6 -33.5 18 -42.5s29 -13.5 51 -13.5zM262.001 815.001l-53 57l129 117l74 -81zM269.001 564.001c-21.333 0 -41.166 2.66699 -59.499 8
s-34.333 13.166 -48 23.499s-24.5 22.833 -32.5 37.5s-12 31.667 -12 51c0 18.667 4 35.5 12 50.5s18.833 27.667 32.5 38s29.667 18.166 48 23.499s38.166 8 59.499 8s41.166 -2.66699 59.499 -8s34.333 -13.166 48 -23.499s24.5 -23 32.5 -38s12 -31.833 12 -50.5
c0 -19.333 -4 -36.333 -12 -51s-18.833 -27.167 -32.5 -37.5s-29.667 -18.166 -48 -23.499s-38.166 -8 -59.499 -8zM269.001 634.001c36.667 0 55 15 55 45v10c0 30 -18.333 45 -55 45s-55 -15 -55 -45v-10c0 -30 18.333 -45 55 -45z" />
    <glyph glyph-name="AEacute" unicode="&#x1fc;" horiz-adv-x="968" 
d="M438 166h-209l-78 -166h-152l341 698h573v-135h-324v-143h278v-134h-278v-151h324v-135h-475v166zM415 563l-125 -268h148v268h-23zM661 740l-88 43l99 194l123 -61z" />
    <glyph glyph-name="aeacute" unicode="&#x1fd;" horiz-adv-x="864" 
d="M270 225c-26.667 0 -47.833 -5 -63.5 -15s-23.5 -24.667 -23.5 -44v-14c0 -40.667 23.667 -61 71 -61c23.333 0 43.833 5.33301 61.5 16s26.5 28 26.5 52v66h-72zM675.001 312v9.00098c0 32 -7.16699 57.833 -21.5 77.5s-36.5 29.5 -66.5 29.5
s-53.5 -9.83301 -70.5 -29.5s-25.5 -45.834 -25.5 -78.501v-8h184zM610.001 106.001c30.667 0 56.165 6.33105 76.498 18.998s37.833 26.667 52.5 42l74 -92c-23.333 -27.333 -53.833 -48.666 -91.5 -63.999s-80.5 -23 -128.5 -23c-50 0 -93 9.83301 -129 29.5
s-61 44.167 -75 73.5h-6c-5.33301 -14 -12.833 -27.333 -22.5 -40s-22 -23.667 -37 -33s-32.833 -16.666 -53.5 -21.999s-44.667 -8 -72 -8c-26.667 0 -50.167 3.83301 -70.5 11.5s-37.5 18.5 -51.5 32.5s-24.5 30.5 -31.5 49.5s-10.5 39.833 -10.5 62.5
c0 28 5.5 52.5 16.5 73.5s26.5 38.5 46.5 52.5s43.833 24.5 71.5 31.5s57.834 10.5 90.501 10.5h83v26c0 25.333 -6.66699 45.5 -20 60.5s-35.666 22.5 -66.999 22.5c-29.333 0 -52.666 -6.33301 -69.999 -19s-31.666 -27 -42.999 -43l-88 78
c21.333 31.333 48.166 55.833 80.499 73.5s76.166 26.5 131.499 26.5c32 0 60.5 -5.83301 85.5 -17.5s45.833 -30.5 62.5 -56.5h6c16 25.333 38.5 44 67.5 56s62.5 18 100.5 18c43.333 0 80.333 -7.33301 111 -22s55.5 -34.334 74.5 -59.001s32.833 -53.167 41.5 -85.5
s13 -66.166 13 -101.499v-44h-338v-8c0 -34 10.5 -61 31.5 -81s50.5 -30 88.5 -30zM447.999 578.999l-88 43l99 194l123 -61z" />
    <glyph glyph-name="Oslashacute" unicode="&#x1fe;" horiz-adv-x="714" 
d="M357 -12c-56 0 -106 11.333 -150 34l-53 -78l-92 59l61 90c-23.333 30 -41.333 66.333 -54 109s-19 91.667 -19 147c0 59.333 7.33301 111.5 22 156.5s35.334 82.667 62.001 113s59 53.166 97 68.499s80 23 126 23c56 0 106 -11.333 150 -34l53 78l92 -59l-61 -90
c23.333 -30 41.333 -66.333 54 -109s19 -91.667 19 -147c0 -59.333 -7.33301 -111.5 -22 -156.5s-35.334 -82.667 -62.001 -113s-59 -53.166 -97 -68.499s-80 -23 -126 -23zM204 294c0 -31.333 4 -59 12 -83l223 354c-22 14 -49.333 21 -82 21
c-48 0 -85.5 -15.667 -112.5 -47s-40.5 -76.333 -40.5 -135v-110zM510 404c0 31.333 -4 59 -12 83l-223 -354c22 -14 49.333 -21 82 -21c48 0 85.5 15.667 112.5 47s40.5 76.333 40.5 135v110zM373 740l-88 43l99 194l123 -61z" />
    <glyph glyph-name="oslashacute" unicode="&#x1ff;" horiz-adv-x="572" 
d="M14 10l66.999 82.999c-27.333 45.333 -41 102 -41 170c0 42 5.66699 80 17 114s27.5 62.833 48.5 86.5s46.667 41.834 77 54.501s64.833 19 103.5 19c50 0 94 -11.333 132 -34l60 72l80 -60l-68 -84c28 -44 42 -100.333 42 -169c0 -42 -5.66699 -80 -17 -114
s-27.5 -62.833 -48.5 -86.5s-46.667 -41.834 -77 -54.501s-64.833 -19 -103.5 -19c-25.333 0 -49.166 2.83301 -71.499 8.5s-42.5 13.834 -60.5 24.501l-60 -71zM285.999 95.999c30.667 0 54.5 10.667 71.5 32s25.5 50 25.5 86v98l-161 -193c16.667 -15.333 38 -23 64 -23z
M188.999 213.999l160 192c-16.667 15.333 -37.667 23 -63 23c-30.667 0 -54.5 -10.667 -71.5 -32s-25.5 -50 -25.5 -86v-97zM301.999 578.999l-88 43l99 194l123 -61z" />
    <glyph glyph-name="Scommaaccent" unicode="&#x218;" horiz-adv-x="624" 
d="M303 -12c-61.333 0 -113.328 10.5039 -155.995 31.5039s-79 48.167 -109 81.5l100 101c47.333 -53.333 105.666 -80 174.999 -80c37.333 0 65 7.66699 83 23s27 35.666 27 60.999c0 19.333 -5.33301 35.5 -16 48.5s-32.334 21.833 -65.001 26.5l-69 9
c-74 9.33301 -128.167 31.666 -162.5 66.999s-51.5 82.333 -51.5 141c0 31.333 6 60 18 86s29.167 48.333 51.5 67s49.666 33.167 81.999 43.5s69.166 15.5 110.499 15.5c52.667 0 99 -8.33301 139 -25s74.333 -41 103 -73l-101 -102
c-16.667 19.333 -36.834 35.166 -60.501 47.499s-53.5 18.5 -89.5 18.5c-34 0 -59.333 -6 -76 -18s-25 -28.667 -25 -50c0 -24 6.5 -41.333 19.5 -52s34.167 -18.334 63.5 -23.001l69 -11c72 -11.333 125.333 -33.5 160 -66.5s52 -79.833 52 -140.5
c0 -33.333 -6 -64 -18 -92s-29.5 -52 -52.5 -72s-51.5 -35.5 -85.5 -46.5s-72.667 -16.5 -116 -16.5zM309.005 -41.9961c22 0 39.1689 -5.33105 51.502 -15.998s18.5 -26 18.5 -46v-14c0 -30.667 -6.33301 -60.334 -19 -89.001s-28.667 -51.334 -48 -68.001h-85
c17.333 14.667 30.666 29.834 39.999 45.501s16.666 33.5 21.999 53.5c-19.333 1.33301 -32.5 8.16602 -39.5 20.499s-10.5 25.833 -10.5 40.5v11c0 20 6.16699 35.333 18.5 46s29.5 16 51.5 16z" />
    <glyph glyph-name="scommaaccent" unicode="&#x219;" horiz-adv-x="504" 
d="M247 -12c-50.667 0 -93.333 8.16504 -128 24.498s-65.667 39.5 -93 69.5l87 88c18.667 -20.667 39.334 -37 62.001 -49s48.334 -18 77.001 -18c29.333 0 49.666 4.5 60.999 13.5s17 21.167 17 36.5c0 24.667 -17.667 39.334 -53 44.001l-57 7
c-118 14.667 -177 68.667 -177 162c0 25.333 4.83301 48.5 14.5 69.5s23.334 39 41.001 54s39 26.667 64 35s53.167 12.5 84.5 12.5c27.333 0 51.5 -1.83301 72.5 -5.5s39.667 -9 56 -16s31.333 -15.667 45 -26s27.167 -21.833 40.5 -34.5l-85 -87
c-16.667 16.667 -35.5 29.834 -56.5 39.501s-42.5 14.5 -64.5 14.5c-25.333 0 -43.333 -4 -54 -12s-16 -18.667 -16 -32c0 -14 3.83301 -24.833 11.5 -32.5s22.167 -13.167 43.5 -16.5l59 -8c115.333 -15.333 173 -68 173 -158c0 -25.333 -5.33301 -48.666 -16 -69.999
s-25.834 -39.833 -45.501 -55.5s-43.334 -27.834 -71.001 -36.501s-58.5 -13 -92.5 -13zM248.001 -42.002c22 0 39.1689 -5.33105 51.502 -15.998s18.5 -26 18.5 -46v-14c0 -30.667 -6.33301 -60.334 -19 -89.001s-28.667 -51.334 -48 -68.001h-85
c17.333 14.667 30.666 29.834 39.999 45.501s16.666 33.5 21.999 53.5c-19.333 1.33301 -32.5 8.16602 -39.5 20.499s-10.5 25.833 -10.5 40.5v11c0 20 6.16699 35.333 18.5 46s29.5 16 51.5 16z" />
    <glyph glyph-name="uni021A" unicode="&#x21a;" horiz-adv-x="584" 
d="M368 563v-563h-152v563h-189v135h530v-135h-189zM291 -42c22 0 39.1689 -5.33105 51.502 -15.998s18.5 -26 18.5 -46v-14c0 -30.667 -6.33301 -60.334 -19 -89.001s-28.667 -51.334 -48 -68.001h-85c17.333 14.667 30.666 29.834 39.999 45.501s16.666 33.5 21.999 53.5
c-19.333 1.33301 -32.5 8.16602 -39.5 20.499s-10.5 25.833 -10.5 40.5v11c0 20 6.16699 35.333 18.5 46s29.5 16 51.5 16z" />
    <glyph glyph-name="uni021B" unicode="&#x21b;" horiz-adv-x="383" 
d="M253 0c-51.333 0 -90.167 13 -116.5 39s-39.5 64 -39.5 114v257h-74v115h37c20 0 33.667 4.83301 41 14.5s11 23.5 11 41.5v86h133v-142h104v-115h-104v-295h96v-115h-88zM227.999 -42c22 0 39.1689 -5.33105 51.502 -15.998s18.5 -26 18.5 -46v-14
c0 -30.667 -6.33301 -60.334 -19 -89.001s-28.667 -51.334 -48 -68.001h-85c17.333 14.667 30.666 29.834 39.999 45.501s16.666 33.5 21.999 53.5c-19.333 1.33301 -32.5 8.16602 -39.5 20.499s-10.5 25.833 -10.5 40.5v11c0 20 6.16699 35.333 18.5 46s29.5 16 51.5 16z
" />
    <glyph glyph-name="uni0237" unicode="&#x237;" horiz-adv-x="286" 
d="M-9 -85l78 0.000976562v610h148v-581c0 -46.667 -11.667 -82.334 -35 -107.001s-61 -37 -113 -37h-78v115z" />
    <glyph glyph-name="uni0259" unicode="&#x259;" horiz-adv-x="562" 
d="M373 300l0.000976562 8.00098c0 34.667 -9 62.167 -27 82.5s-46 30.5 -84 30.5c-16.667 0 -31.334 -2 -44.001 -6s-24 -9 -34 -15s-18.833 -12.833 -26.5 -20.5l-21.5 -21.5l-74 92c23.333 27.333 53.333 48.666 90 63.999s79 23 127 23c39.333 0 74.333 -6.5 105 -19.5
s56.5 -31.333 77.5 -55s37 -52.5 48 -86.5s16.5 -72 16.5 -114c0 -41.333 -5.33301 -78.833 -16 -112.5s-26.5 -62.5 -47.5 -86.5s-46.833 -42.5 -77.5 -55.5s-65.667 -19.5 -105 -19.5c-43.333 0 -80.5 7.33301 -111.5 22s-56.333 34.334 -76 59.001s-34 53.167 -43 85.5
s-13.5 66.166 -13.5 101.499v44h337zM189.001 204.001c0 -32 7.16699 -57.834 21.5 -77.501s36.5 -29.5 66.5 -29.5s53.5 9.83301 70.5 29.5s25.5 45.834 25.5 78.501v8h-184v-9z" />
    <glyph glyph-name="uni02BB" unicode="&#x2bb;" 
d="M301 576c-22 0 -39.1689 5.33105 -51.502 15.998s-18.5 26 -18.5 46v14c0 30.667 6.33301 60.334 19 89.001s28.667 51.334 48 68.001h85c-17.333 -14.667 -30.666 -29.834 -39.999 -45.501s-16.666 -33.5 -21.999 -53.5c19.333 -1.33301 32.5 -8.16602 39.5 -20.499
s10.5 -25.833 10.5 -40.5v-11c0 -20 -6.16699 -35.333 -18.5 -46s-29.5 -16 -51.5 -16z" />
    <glyph glyph-name="uni02BC" unicode="&#x2bc;" 
d="M234 525h-97l6 215h157z" />
    <glyph glyph-name="circumflex" unicode="&#x2c6;" 
d="M362 795l132 -159l-73 -58l-121 115l-121 -115l-73 58l132 159h124z" />
    <glyph glyph-name="caron" unicode="&#x2c7;" 
d="M238 587l-132 159l73 58l121 -115l121 115l73 -58l-132 -159h-124z" />
    </font>
</defs>
</svg>
